<svg width="16" height="16" viewBox="0 0 16 16" fill="none" xmlns="http://www.w3.org/2000/svg">
<path opacity="0.4" fill-rule="evenodd" clip-rule="evenodd" d="M4.19522 11.8046C3.93487 11.5443 3.93487 11.1222 4.19522 10.8618L11.5286 3.5285C11.7889 3.26815 12.211 3.26815 12.4714 3.5285C12.7317 3.78885 12.7317 4.21096 12.4714 4.47131L5.13803 11.8046C4.87768 12.065 4.45557 12.065 4.19522 11.8046Z" fill="#14C784"/>
<path d="M4.50364 12.4734C4.31651 12.4188 4.06224 12.323 3.8695 12.1303C3.67676 11.9376 3.58102 11.6833 3.52641 11.4962C3.46603 11.2893 3.42618 11.0553 3.3987 10.8199C3.34354 10.3474 3.32983 9.79281 3.33387 9.27712C3.33794 8.75743 3.36029 8.25844 3.38146 7.89068C3.39207 7.70639 3.40244 7.55408 3.41019 7.44742C3.41402 7.39475 3.4208 7.30877 3.42316 7.27876L3.42325 7.27764C3.45418 6.91075 3.77671 6.63802 4.1436 6.66895C4.51047 6.69988 4.7828 7.02234 4.75191 7.38921C4.74983 7.41558 4.74368 7.49362 4.74001 7.54408C4.73268 7.64504 4.72276 7.7906 4.71259 7.9673C4.6922 8.32155 4.67101 8.7971 4.66716 9.28757C4.66329 9.78205 4.67728 10.2733 4.72304 10.6653C4.74603 10.8621 4.79217 11.0686 4.82357 11.1762C4.93117 11.2076 5.13767 11.2538 5.33454 11.2768C5.72655 11.3225 6.21776 11.3365 6.71224 11.3326C7.20271 11.3288 7.67827 11.3076 8.03251 11.2872C8.20922 11.2771 8.35478 11.2672 8.45574 11.2598C8.5062 11.2561 8.58391 11.25 8.61029 11.2479C8.97715 11.2171 9.29993 11.4894 9.33086 11.8562C9.36179 12.2231 9.08944 12.5456 8.72255 12.5765L8.72102 12.5767C8.69066 12.5791 8.60482 12.5858 8.55238 12.5896C8.44572 12.5974 8.29341 12.6078 8.10912 12.6184C7.74136 12.6395 7.24237 12.6619 6.72267 12.6659C6.20698 12.67 5.6524 12.6563 5.17992 12.6011C4.94454 12.5736 4.71053 12.5338 4.50364 12.4734Z" fill="#14C784"/>
</svg>
