<svg width="17" height="16" viewBox="0 0 17 16" fill="none" xmlns="http://www.w3.org/2000/svg">
<path opacity="0.4" fill-rule="evenodd" clip-rule="evenodd" d="M12.4714 4.19529C12.7318 4.45564 12.7318 4.87775 12.4714 5.1381L5.13807 12.4714C4.87772 12.7318 4.45561 12.7318 4.19526 12.4714C3.93491 12.2111 3.93491 11.789 4.19526 11.5286L11.5286 4.19529C11.7889 3.93494 12.2111 3.93494 12.4714 4.19529Z" fill="#F54842"/>
<path d="M12.1629 3.52649C12.35 3.5811 12.6043 3.67684 12.797 3.86958C12.9897 4.06232 13.0855 4.3166 13.1401 4.50372C13.2005 4.71061 13.2403 4.94462 13.2678 5.18C13.323 5.65248 13.3367 6.20707 13.3326 6.72275C13.3286 7.24245 13.3062 7.74144 13.285 8.1092C13.2744 8.29349 13.2641 8.4458 13.2563 8.55245C13.2525 8.60513 13.2457 8.69111 13.2433 8.72111L13.2433 8.72224C13.2123 9.08913 12.8898 9.36186 12.5229 9.33093C12.156 9.3 11.8837 8.97754 11.9146 8.61067C11.9167 8.5843 11.9228 8.50626 11.9265 8.4558C11.9338 8.35484 11.9437 8.20928 11.9539 8.03257C11.9743 7.67833 11.9955 7.20278 11.9993 6.7123C12.0032 6.21783 11.9892 5.72663 11.9435 5.33462C11.9205 5.13775 11.8743 4.93125 11.8429 4.82366C11.7353 4.79226 11.5288 4.74611 11.332 4.72313C10.9399 4.67736 10.4487 4.66336 9.95427 4.66723C9.46379 4.67107 8.98824 4.69226 8.63399 4.71264C8.45729 4.72281 8.31172 4.73273 8.21077 4.74006C8.16031 4.74373 8.08259 4.74985 8.05621 4.75193C7.68935 4.78282 7.36657 4.51051 7.33565 4.14364C7.30472 3.77675 7.57707 3.45426 7.94396 3.42333L7.94548 3.42321C7.97585 3.42082 8.06168 3.41405 8.11413 3.41024C8.22079 3.40249 8.37309 3.39212 8.55739 3.38151C8.92514 3.36035 9.42414 3.33801 9.94383 3.33394C10.4595 3.3299 11.0141 3.34362 11.4866 3.39879C11.722 3.42627 11.956 3.46612 12.1629 3.52649Z" fill="#F54842"/>
</svg>
