<svg width="24" height="24" viewBox="0 0 24 24" fill="none" xmlns="http://www.w3.org/2000/svg">
<path opacity="0.2" d="M12 24C18.6274 24 24 18.6274 24 12C24 5.37258 18.6274 0 12 0C5.37258 0 0 5.37258 0 12C0 18.6274 5.37258 24 12 24Z" fill="#008FBB"/>
<path fill-rule="evenodd" clip-rule="evenodd" d="M18.5477 10.0938H14.95C14.6143 10.0938 14.3504 10.3617 14.3504 10.7027C14.3504 11.0437 14.6143 11.3117 14.95 11.3117H18.5477C18.8834 11.3117 19.1473 11.0437 19.1473 10.7027C19.1473 10.3617 18.8834 10.0938 18.5477 10.0938ZM7.03524 12.347H5.59619C5.26041 12.347 4.99658 12.6149 4.99658 12.9559C4.99658 13.297 5.26041 13.5649 5.59619 13.5649H7.03524C7.37102 13.5649 7.63485 13.297 7.63485 12.9559C7.63485 12.6149 7.37102 12.347 7.03524 12.347Z" fill="#008FBB"/>
<path fill-rule="evenodd" clip-rule="evenodd" d="M12.3161 10.226C12.2063 10.1398 12.071 10.0936 11.928 10.0936H10.417C10.0812 10.0815 9.80542 10.3616 9.79343 10.7026C9.79343 11.0436 10.0812 11.3238 10.417 11.3116H11.6642L14.8061 13.3821L14.7857 13.3475C14.8979 13.5259 15.1038 13.6257 15.3098 13.6257H16.8208C17.1566 13.6379 17.4324 13.3577 17.4444 13.0167C17.4444 12.6757 17.1566 12.3956 16.8208 12.4077H15.6935L12.3161 10.226ZM17.9481 12.0545V10.6904C17.9481 10.3616 18.2119 10.0936 18.5357 10.0936H18.5597C18.8834 10.0936 19.1473 10.3616 19.1473 10.6904V12.0545C19.1473 12.3834 18.8834 12.6513 18.5597 12.6513H18.5357C18.1999 12.6513 17.9481 12.3834 17.9481 12.0545ZM7.395 10.2155L10.6329 12.4078H11.7122C12.0479 12.4078 12.3118 12.6757 12.3118 13.0168C12.3118 13.3578 12.0479 13.6257 11.7122 13.6257H10.2731C10.0689 13.6257 9.88614 13.5276 9.77563 13.352L9.79343 13.3821L6.7954 11.3116H5.59619C5.26041 11.3116 4.99658 11.0437 4.99658 10.7027C4.99658 10.3616 5.26041 10.0937 5.59619 10.0937H7.03524C7.16861 10.0937 7.30197 10.1398 7.40528 10.2259L7.395 10.2155Z" fill="#008FBB"/>
</svg>
