<svg width="24" height="24" viewBox="0 0 24 24" fill="none" xmlns="http://www.w3.org/2000/svg">
<path opacity="0.2" d="M12 24C18.6274 24 24 18.6274 24 12C24 5.37258 18.6274 0 12 0C5.37258 0 0 5.37258 0 12C0 18.6274 5.37258 24 12 24Z" fill="#8BC53E"/>
<path fill-rule="evenodd" clip-rule="evenodd" d="M8.33483 7.02121C9.28086 6.26664 10.4544 5.7618 11.6826 5.67923C13.4135 5.56107 15.1472 6.14177 16.5385 7.1246C16.625 7.18569 16.7826 7.28907 16.681 7.40454C16.4673 7.66838 16.2156 7.90066 15.9984 8.1618C15.8276 8.34172 15.6845 8.54916 15.4867 8.70289C15.3221 8.75257 15.2011 8.61025 15.0759 8.53372C14.2461 7.92952 13.2115 7.59856 12.1742 7.60863C11.0706 7.56969 9.99037 8.07453 9.24697 8.85193C7.85767 10.3758 7.80166 12.8161 8.96275 14.479C9.33825 15.0134 9.86866 15.4484 10.4869 15.6948C11.0187 15.919 11.5982 15.9969 12.1694 16.0613C13.1894 16.0593 14.1949 15.7532 15.0704 15.2517C15.2661 15.0825 15.1776 14.8033 15.1866 14.5824C15.1596 14.3018 15.2253 14.0158 15.172 13.7392C15.096 13.5284 14.8373 13.6009 14.6645 13.5989C13.8277 13.5821 12.9903 13.5949 12.1556 13.562C12.141 13.2659 12.1528 12.9705 12.1466 12.6751C13.8408 12.6745 15.5351 12.6731 17.2294 12.6758C17.2231 13.7983 17.237 14.9207 17.2349 16.0439C15.8843 17.1462 14.161 17.8383 12.3859 17.8585C10.9032 17.9142 9.37283 17.5302 8.19929 16.6246C7.26019 15.9297 6.60392 14.9147 6.28927 13.8164C5.92967 12.5228 5.87988 11.121 6.30103 9.83542C6.65993 8.72236 7.39988 7.74558 8.33483 7.02121Z" fill="#8BC53E"/>
<path fill-rule="evenodd" clip-rule="evenodd" d="M12.1549 11.3283C13.8429 11.327 15.531 11.3263 17.219 11.329C17.2142 11.6257 17.2156 11.9231 17.2176 12.2205C15.5303 12.2172 13.8429 12.2279 12.1556 12.2245C12.1563 11.9258 12.157 11.6271 12.1549 11.3283Z" fill="#8BC53E"/>
</svg>
