<svg width="24" height="24" viewBox="0 0 24 24" fill="none" xmlns="http://www.w3.org/2000/svg">
<path opacity="0.2" fill-rule="evenodd" clip-rule="evenodd" d="M12 24C18.6274 24 24 18.6274 24 12C24 5.37258 18.6274 0 12 0C5.37258 0 0 5.37258 0 12C0 18.6274 5.37258 24 12 24Z" fill="#F04086"/>
<path fill-rule="evenodd" clip-rule="evenodd" d="M15.0865 11.7853C15.8732 11.9007 16.4756 12.1891 16.8935 12.6507C17.3168 13.1259 17.5469 13.7437 17.5382 14.3814C17.5382 15.3457 17.2134 16.132 16.5215 16.6641C15.8296 17.1962 14.8316 17.5383 13.5265 17.5383H8.39371V14.3735H10.6574V15.7581H13.3296C13.9408 15.7581 14.4015 15.592 14.7076 15.3398C15.0137 15.0876 15.1672 14.686 15.1672 14.2153C15.1672 13.7445 15.0117 13.426 14.7076 13.1798C14.4034 12.9335 13.9428 12.89 13.3296 12.89H5.53845V11.1098H8.39273V6.46143H13.3641C14.68 6.46143 15.6514 6.63252 16.2981 7.15373C16.9447 7.67494 17.2577 8.33758 17.2577 9.31274C17.2612 9.89925 17.0583 10.4681 16.6849 10.9189C16.3168 11.3729 15.7755 11.6567 15.0865 11.7685V11.7853ZM10.6574 11.1058H13.0452C14.2725 11.1058 14.8857 10.6242 14.8857 9.67176C14.8857 8.71934 14.2725 8.23769 13.0452 8.23769H10.6574V11.1058Z" fill="#F04086"/>
</svg>
