<svg width="24" height="24" viewBox="0 0 24 24" fill="none" xmlns="http://www.w3.org/2000/svg">
<path opacity="0.2" d="M12 24C18.6274 24 24 18.6274 24 12C24 5.37258 18.6274 0 12 0C5.37258 0 0 5.37258 0 12C0 18.6274 5.37258 24 12 24Z" fill="#2573C2"/>
<path d="M17.7941 9.37215C17.7825 9.17794 17.7255 8.98916 17.6277 8.82095C17.541 8.64761 17.3868 8.51241 17.2065 8.44308C17.0227 8.35146 16.819 8.3068 16.6137 8.31308H8.92118L8.36998 9.96495H15.3397L14.239 13.3415H7.27105L6.71985 14.9933H14.4488C14.6791 14.9867 14.9068 14.9428 15.123 14.8633C15.3397 14.7403 15.5876 14.6155 15.7973 14.4421C16.0021 14.2807 16.1871 14.0957 16.3485 13.8909C16.482 13.6903 16.5957 13.4773 16.6882 13.2548L17.7092 10.0447C17.8021 9.83347 17.8316 9.59982 17.7941 9.37215Z" fill="#2573C2"/>
<path d="M11.1173 10.8872H7.01623L6.46503 12.4143H10.6077L11.1173 10.8872Z" fill="#2573C2"/>
</svg>
