<svg width="1235" height="131" viewBox="0 0 1235 131" fill="none" xmlns="http://www.w3.org/2000/svg">
<path d="M1234 94.9769L1226.34 93.6051L1218.69 110.344L1211.03 112.059L1203.38 94.2584L1195.72 91.7108L1188.07 99.0596L1180.41 95.6791L1172.76 81.8307L1165.1 118.281L1157.45 111.324L1149.79 91.1229L1142.14 97.7368L1134.48 122.119L1126.83 91.7598L1119.17 86.7462L1111.51 125.107L1103.86 120.894L1096.2 114.574L1088.55 111.863L1080.89 87.0402L1073.24 103.257L1065.58 112.32L1057.93 71.3137L1050.27 84.6886L1042.62 96.365L1034.96 84.4109L1027.31 124.699L1019.65 95.0259L1012 68.3579L1004.34 74.0899L996.685 98.8963L989.029 90.6003L981.374 102.064L973.719 95.9894L966.063 100.546L958.408 84.3619L950.753 101.607L943.097 115.635L935.442 129.5L927.787 125.107L920.131 110.279L912.476 61.8746L904.821 72.5059L897.165 88.51L889.51 68.2109L881.855 91.8414L874.199 74.2369L866.544 84.6396L858.889 85.3581L851.233 85.8154L843.578 80.1976L835.923 61.9889L828.267 53.5459L820.612 66.7085L812.957 54.7707L805.301 74.4329L797.646 47.7322L789.991 105.037L782.335 113.398L774.68 77.895L767.025 61.9072L759.369 58.6738L751.714 58.2328L744.059 50.7207L736.404 56.5018L728.748 77.0948L721.093 52.5498L713.438 69.2887L705.782 46.7524L698.127 48.4671L690.472 74.3839L682.816 71.869L675.161 74.5309L667.506 62.0869L659.85 63.4587L652.195 51.3086L644.54 57.6286L636.884 49.202L629.229 60.6008L621.574 59.2453L613.918 61.5806L606.263 36.9866L598.608 41.2163L590.952 54.3788L583.297 50.2471L575.642 57.302L567.986 43.5025L560.331 55.7016L552.676 45.4132L545.02 44.956L537.365 49.3653L530.029 52.4681L522.373 44.1394L514.718 47.8792L507.063 44.1721L499.407 38.4237L491.752 54.9667L484.097 48.1895L476.441 49.6919L468.786 53.7419L461.131 41.7062L453.475 76.4416L445.82 78.6625L438.165 71.4607L430.509 64.1772L422.854 50.1491L415.199 66.5942L407.543 43.7312L399.888 54.0195L392.233 107.552L384.577 89.0815L376.922 57.0407L369.267 52.3048L361.611 42.1961L353.956 74.0573L346.301 74.7758L338.645 64.4222L330.99 39.6975L323.335 51.8312L315.679 65.0264L308.024 54.6891L300.369 35.6801L292.713 31.8098L285.058 46.4911L277.403 39.5669L269.747 39.7792L262.092 45.1193L254.437 29.8827L246.781 27.9231L239.126 51.0473L231.471 32.4957L223.816 38.1298L216.16 50.8514L208.505 60.5845L200.85 67.3127L193.194 42.2614L185.539 36.1047L177.884 47.9772L170.228 75.2984L162.573 58.5921L154.918 62.0216L147.262 63.3443L139.607 41.4449L131.952 32.2344L124.296 35.8924L116.641 37.8195L108.986 28.511L101.33 20.5906L93.675 48.7284L86.0196 78.9565L78.3643 61.4337L70.709 44.6294L63.0536 50.5737L55.3983 28.8376L47.743 10.0246L40.0877 1.5L32.4323 5.32138L24.777 19.5781L17.1217 26.486L9.46634 22.3543L1.82471 10.2696" stroke="#1E80FF" stroke-width="2" stroke-linecap="round" stroke-linejoin="round"/>
</svg>
