<svg width="59" height="59" viewBox="0 0 59 59" fill="none" xmlns="http://www.w3.org/2000/svg">
<mask id="path-1-inside-1_584_7158" fill="white">
<path d="M29.5 4.13C29.5 1.84906 31.358 -0.0296654 33.6166 0.288631C36.7123 0.7249 39.7279 1.65178 42.5475 3.04225C46.6058 5.04358 50.1493 7.95167 52.9039 11.5415C55.6585 15.1314 57.5504 19.3068 58.4332 23.7448C59.3159 28.1828 59.166 32.7644 57.9948 37.1352C56.8237 41.5059 54.6628 45.5487 51.6793 48.9507C48.6958 52.3527 44.9697 55.0228 40.7892 56.7544C36.6087 58.4861 32.0858 59.2328 27.5706 58.9368C24.4335 58.7312 21.3585 58.0261 18.4594 56.8561C16.3442 56.0024 15.6745 53.4464 16.815 51.4711C17.9555 49.4957 20.4759 48.8625 22.6344 49.5998C24.3981 50.2022 26.2391 50.5718 28.1108 50.6945C31.3618 50.9076 34.6182 50.37 37.6282 49.1232C40.6381 47.8764 43.321 45.954 45.4691 43.5045C47.6172 41.055 49.173 38.1443 50.0163 34.9973C50.8595 31.8504 50.9675 28.5516 50.3319 25.3563C49.6963 22.1609 48.3341 19.1546 46.3508 16.5699C44.3675 13.9852 41.8162 11.8914 38.8942 10.4504C37.2119 9.6208 35.4327 9.0204 33.6041 8.66027C31.3661 8.21954 29.5 6.41093 29.5 4.13Z"/>
</mask>
<path d="M29.5 4.13C29.5 1.84906 31.358 -0.0296654 33.6166 0.288631C36.7123 0.7249 39.7279 1.65178 42.5475 3.04225C46.6058 5.04358 50.1493 7.95167 52.9039 11.5415C55.6585 15.1314 57.5504 19.3068 58.4332 23.7448C59.3159 28.1828 59.166 32.7644 57.9948 37.1352C56.8237 41.5059 54.6628 45.5487 51.6793 48.9507C48.6958 52.3527 44.9697 55.0228 40.7892 56.7544C36.6087 58.4861 32.0858 59.2328 27.5706 58.9368C24.4335 58.7312 21.3585 58.0261 18.4594 56.8561C16.3442 56.0024 15.6745 53.4464 16.815 51.4711C17.9555 49.4957 20.4759 48.8625 22.6344 49.5998C24.3981 50.2022 26.2391 50.5718 28.1108 50.6945C31.3618 50.9076 34.6182 50.37 37.6282 49.1232C40.6381 47.8764 43.321 45.954 45.4691 43.5045C47.6172 41.055 49.173 38.1443 50.0163 34.9973C50.8595 31.8504 50.9675 28.5516 50.3319 25.3563C49.6963 22.1609 48.3341 19.1546 46.3508 16.5699C44.3675 13.9852 41.8162 11.8914 38.8942 10.4504C37.2119 9.6208 35.4327 9.0204 33.6041 8.66027C31.3661 8.21954 29.5 6.41093 29.5 4.13Z" fill="#14C784" stroke="#11171D" stroke-width="4" mask="url(#path-1-inside-1_584_7158)"/>
<mask id="path-2-inside-2_584_7158" fill="white">
<path d="M4.99446 22.9338C2.79125 22.3434 1.4574 20.0624 2.34942 17.9632C4.32987 13.3024 7.48722 9.20706 11.5415 6.09608C15.5959 2.98509 20.3688 0.99528 25.3834 0.288602C27.642 -0.0296958 29.5 1.84906 29.5 4.13C29.5 6.41093 27.6338 8.2195 25.3959 8.66026C22.2039 9.28891 19.1801 10.6463 16.5699 12.6492C13.9598 14.652 11.866 17.2215 10.4326 20.142C9.42762 22.1896 7.19768 23.5241 4.99446 22.9338Z"/>
</mask>
<path d="M4.99446 22.9338C2.79125 22.3434 1.4574 20.0624 2.34942 17.9632C4.32987 13.3024 7.48722 9.20706 11.5415 6.09608C15.5959 2.98509 20.3688 0.99528 25.3834 0.288602C27.642 -0.0296958 29.5 1.84906 29.5 4.13C29.5 6.41093 27.6338 8.2195 25.3959 8.66026C22.2039 9.28891 19.1801 10.6463 16.5699 12.6492C13.9598 14.652 11.866 17.2215 10.4326 20.142C9.42762 22.1896 7.19768 23.5241 4.99446 22.9338Z" fill="#F54842" stroke="#11171D" stroke-width="4" mask="url(#path-2-inside-2_584_7158)"/>
<mask id="path-3-inside-3_584_7158" fill="white">
<path d="M16.815 51.4711C15.6745 53.4464 13.1261 54.1445 11.3292 52.7395C7.33982 49.6202 4.2012 45.5105 2.24555 40.7892C0.289906 36.0678 -0.396765 30.9425 0.218492 25.9159C0.495613 23.6519 2.79125 22.3434 4.99446 22.9338C7.19768 23.5241 8.46161 25.7948 8.30813 28.0706C8.08922 31.3165 8.61776 34.5886 9.8768 37.6282C11.1358 40.6678 13.0758 43.3553 15.5258 45.4957C17.2436 46.9964 17.9555 49.4957 16.815 51.4711Z"/>
</mask>
<path d="M16.815 51.4711C15.6745 53.4464 13.1261 54.1445 11.3292 52.7395C7.33982 49.6202 4.2012 45.5105 2.24555 40.7892C0.289906 36.0678 -0.396765 30.9425 0.218492 25.9159C0.495613 23.6519 2.79125 22.3434 4.99446 22.9338C7.19768 23.5241 8.46161 25.7948 8.30813 28.0706C8.08922 31.3165 8.61776 34.5886 9.8768 37.6282C11.1358 40.6678 13.0758 43.3553 15.5258 45.4957C17.2436 46.9964 17.9555 49.4957 16.815 51.4711Z" fill="#1E80FF" stroke="#11171D" stroke-width="4" mask="url(#path-3-inside-3_584_7158)"/>
</svg>
