<svg width="1233" height="259" viewBox="0 0 1233 259" fill="none" xmlns="http://www.w3.org/2000/svg">
<path opacity="0.1" d="M1225.34 92.6051L1233 93.9769V258.5H0.824707V9.26958L8.46634 21.3543L16.1217 25.486L23.777 18.5781L31.4323 4.32138L39.0877 0.5L46.743 9.02462L54.3983 27.8376L62.0536 49.5737L69.709 43.6294L77.3643 60.4337L85.0196 77.9565L92.6749 47.7284L100.33 19.5906L107.986 27.511L115.641 36.8195L123.296 34.8924L130.952 31.2344L138.607 40.4449L146.262 62.3443L153.918 61.0216L161.573 57.5921L169.228 74.2984L176.884 46.9772L184.539 35.1047L192.194 41.2614L199.85 66.3127L207.505 59.5845L215.16 49.8514L222.816 37.1298L230.471 31.4957L238.126 50.0473L245.781 26.9231L253.437 28.8827L261.092 44.1193L268.747 38.7792L276.403 38.5669L284.058 45.4911L291.713 30.8098L299.369 34.6801L307.024 53.6891L314.679 64.0264L322.335 50.8312L329.99 38.6975L337.645 63.4222L345.301 73.7758L352.956 73.0573L360.611 41.1961L368.267 51.3048L375.922 56.0407L383.577 88.0815L391.233 106.552L398.888 53.0195L406.543 42.7312L414.199 65.5942L421.854 49.1491L429.509 63.1772L437.165 70.4607L444.82 77.6625L452.475 75.4416L460.131 40.7062L467.786 52.7419L475.441 48.6919L483.097 47.1895L490.752 53.9667L498.407 37.4237L506.063 43.1721L513.718 46.8792L521.373 43.1394L529.029 51.4681L536.365 48.3653L544.02 43.956L551.676 44.4132L559.331 54.7016L566.986 42.5025L574.642 56.302L582.297 49.2471L589.952 53.3788L597.608 40.2163L605.263 35.9866L612.918 60.5806L620.573 58.2453L628.229 59.6008L635.884 48.202L643.539 56.6286L651.195 50.3086L658.85 62.4587L666.505 61.0869L674.161 73.5309L681.816 70.869L689.471 73.3839L697.127 47.4671L704.782 45.7524L712.438 68.2887L720.093 51.5498L727.748 76.0948L735.404 55.5018L743.059 49.7207L750.714 57.2328L758.369 57.6738L766.025 60.9072L773.68 76.895L781.335 112.398L788.991 104.037L796.646 46.7322L804.301 73.4329L811.957 53.7707L819.612 65.7085L827.267 52.5459L834.923 60.9889L842.578 79.1976L850.233 84.8154L857.889 84.3581L865.544 83.6396L873.199 73.2369L880.855 90.8414L888.51 67.2109L896.165 87.5099L903.821 71.5059L911.476 60.8746L919.131 109.279L926.787 124.107L934.442 128.5L942.097 114.635L949.753 100.607L957.408 83.3619L965.063 99.5457L972.719 94.9894L980.374 101.064L988.029 89.6003L995.685 97.8963L1003.34 73.0899L1011 67.3579L1018.65 94.0259L1026.31 123.699L1033.96 83.4109L1041.62 95.365L1049.27 83.6886L1056.93 70.3137L1064.58 111.32L1072.24 102.257L1079.89 86.0402L1087.55 110.863L1095.2 113.574L1102.86 119.894L1110.51 124.107L1118.17 85.7462L1125.83 90.7598L1133.48 121.119L1141.14 96.7368L1148.79 90.1229L1156.45 110.324L1164.1 117.281L1171.76 80.8307L1179.41 94.6791L1187.07 98.0596L1194.72 90.7108L1202.38 93.2584L1210.03 111.059L1217.69 109.344L1225.34 92.6051Z" fill="url(#paint0_linear_802_12876)"/>
<defs>
<linearGradient id="paint0_linear_802_12876" x1="616.912" y1="63" x2="616.912" y2="290.5" gradientUnits="userSpaceOnUse">
<stop stop-color="#1E80FF"/>
<stop offset="1" stop-color="#1E80FF" stop-opacity="0"/>
</linearGradient>
</defs>
</svg>
