<svg width="1320" height="337" viewBox="0 0 1320 337" fill="none" xmlns="http://www.w3.org/2000/svg">
<mask id="path-1-inside-1_802_12850" fill="white">
<path d="M86.6246 0.5H1319.99V44.5H86.6246V0.5Z"/>
</mask>
<path d="M86.6246 0.5H1319.99V44.5H86.6246V0.5Z" fill="#11171D"/>
<path d="M86.6246 45H88.6268V44H86.6246V45ZM92.6313 45H96.6357V44H92.6313V45ZM100.64 45H104.645V44H100.64V45ZM108.649 45H112.653V44H108.649V45ZM116.658 45H120.662V44H116.658V45ZM124.667 45H128.671V44H124.667V45ZM132.675 45H136.68V44H132.675V45ZM140.684 45H144.689V44H140.684V45ZM148.693 45H152.698V44H148.693V45ZM156.702 45H160.706V44H156.702V45ZM164.711 45H168.715V44H164.711V45ZM172.72 45H176.724V44H172.72V45ZM180.728 45H184.733V44H180.728V45ZM188.737 45H192.742V44H188.737V45ZM196.746 45H200.751V44H196.746V45ZM204.755 45H208.759V44H204.755V45ZM212.764 45H216.768V44H212.764V45ZM220.773 45H224.777V44H220.773V45ZM228.781 45H232.786V44H228.781V45ZM236.79 45H240.795V44H236.79V45ZM244.799 45H248.804V44H244.799V45ZM252.808 45H256.812V44H252.808V45ZM260.817 45H264.821V44H260.817V45ZM268.826 45H272.83V44H268.826V45ZM276.835 45H280.839V44H276.835V45ZM284.843 45H288.848V44H284.843V45ZM292.852 45H296.857V44H292.852V45ZM300.861 45H304.866V44H300.861V45ZM308.87 45H312.874V44H308.87V45ZM316.879 45H320.883V44H316.879V45ZM324.888 45H328.892V44H324.888V45ZM332.897 45H336.901V44H332.897V45ZM340.905 45H344.91V44H340.905V45ZM348.914 45H352.919V44H348.914V45ZM356.923 45H360.928V44H356.923V45ZM364.932 45H368.936V44H364.932V45ZM372.941 45H376.945V44H372.941V45ZM380.95 45H384.954V44H380.95V45ZM388.958 45H392.963V44H388.958V45ZM396.967 45H400.972V44H396.967V45ZM404.976 45H408.981V44H404.976V45ZM412.985 45H416.989V44H412.985V45ZM420.994 45H424.998V44H420.994V45ZM429.003 45H433.007V44H429.003V45ZM437.012 45H441.016V44H437.012V45ZM445.02 45H449.025V44H445.02V45ZM453.029 45H457.034V44H453.029V45ZM461.038 45H465.043V44H461.038V45ZM469.047 45H473.051V44H469.047V45ZM477.056 45H481.06V44H477.056V45ZM485.065 45H489.069V44H485.065V45ZM493.074 45H497.078V44H493.074V45ZM501.082 45H505.087V44H501.082V45ZM509.091 45H513.096V44H509.091V45ZM517.1 45H521.105V44H517.1V45ZM525.109 45H529.113V44H525.109V45ZM533.118 45H537.122V44H533.118V45ZM541.127 45H545.131V44H541.127V45ZM549.135 45H553.14V44H549.135V45ZM557.144 45H561.149V44H557.144V45ZM565.153 45H569.158V44H565.153V45ZM573.162 45H577.166V44H573.162V45ZM581.171 45H585.175V44H581.171V45ZM589.18 45H593.184V44H589.18V45ZM597.189 45H601.193V44H597.189V45ZM605.197 45H609.202V44H605.197V45ZM613.206 45H617.211V44H613.206V45ZM621.215 45H625.219V44H621.215V45ZM629.224 45H633.228V44H629.224V45ZM637.233 45H641.237V44H637.233V45ZM645.241 45H649.246V44H645.241V45ZM653.25 45H657.255V44H653.25V45ZM661.259 45H665.263V44H661.259V45ZM669.268 45H673.272V44H669.268V45ZM677.276 45H681.281V44H677.276V45ZM685.285 45H689.29V44H685.285V45ZM693.294 45H697.298V44H693.294V45ZM701.303 45H705.307V44H701.303V45ZM709.312 45H713.316V44H709.312V45ZM717.32 45H721.325V44H717.32V45ZM725.329 45H729.334V44H725.329V45ZM733.338 45H737.342V44H733.338V45ZM741.347 45H745.351V44H741.347V45ZM749.356 45H753.36V44H749.356V45ZM757.364 45H761.369V44H757.364V45ZM765.373 45H769.378V44H765.373V45ZM773.382 45H777.386V44H773.382V45ZM781.391 45H785.395V44H781.391V45ZM789.4 45H793.404V44H789.4V45ZM797.408 45H801.413V44H797.408V45ZM805.417 45H809.422V44H805.417V45ZM813.426 45H817.43V44H813.426V45ZM821.435 45H825.439V44H821.435V45ZM829.443 45H833.448V44H829.443V45ZM837.452 45H841.457V44H837.452V45ZM845.461 45H849.465V44H845.461V45ZM853.47 45H857.474V44H853.47V45ZM861.479 45H865.483V44H861.479V45ZM869.487 45H873.492V44H869.487V45ZM877.496 45H881.501V44H877.496V45ZM885.505 45H889.509V44H885.505V45ZM893.514 45H897.518V44H893.514V45ZM901.523 45H905.527V44H901.523V45ZM909.531 45H913.536V44H909.531V45ZM917.54 45H921.545V44H917.54V45ZM925.549 45H929.553V44H925.549V45ZM933.558 45H937.562V44H933.558V45ZM941.567 45H945.571V44H941.567V45ZM949.575 45H953.58V44H949.575V45ZM957.584 45H961.589V44H957.584V45ZM965.593 45H969.597V44H965.593V45ZM973.602 45H977.606V44H973.602V45ZM981.61 45H985.615V44H981.61V45ZM989.619 45H993.624V44H989.619V45ZM997.628 45H1001.63V44H997.628V45ZM1005.64 45H1009.64V44H1005.64V45ZM1013.65 45H1017.65V44H1013.65V45ZM1021.65 45H1025.66V44H1021.65V45ZM1029.66 45H1033.67V44H1029.66V45ZM1037.67 45H1041.68V44H1037.67V45ZM1045.68 45H1049.69V44H1045.68V45ZM1053.69 45H1057.69V44H1053.69V45ZM1061.7 45H1065.7V44H1061.7V45ZM1069.71 45H1073.71V44H1069.71V45ZM1077.72 45H1081.72V44H1077.72V45ZM1085.72 45H1089.73V44H1085.72V45ZM1093.73 45H1097.74V44H1093.73V45ZM1101.74 45H1105.75V44H1101.74V45ZM1109.75 45H1113.76V44H1109.75V45ZM1117.76 45H1121.76V44H1117.76V45ZM1125.77 45H1129.77V44H1125.77V45ZM1133.78 45H1137.78V44H1133.78V45ZM1141.79 45H1145.79V44H1141.79V45ZM1149.8 45H1153.8V44H1149.8V45ZM1157.8 45H1161.81V44H1157.8V45ZM1165.81 45H1169.82V44H1165.81V45ZM1173.82 45H1177.83V44H1173.82V45ZM1181.83 45H1185.83V44H1181.83V45ZM1189.84 45H1193.84V44H1189.84V45ZM1197.85 45H1201.85V44H1197.85V45ZM1205.86 45H1209.86V44H1205.86V45ZM1213.87 45H1217.87V44H1213.87V45ZM1221.87 45H1225.88V44H1221.87V45ZM1229.88 45H1233.89V44H1229.88V45ZM1237.89 45H1241.9V44H1237.89V45ZM1245.9 45H1249.9V44H1245.9V45ZM1253.91 45H1257.91V44H1253.91V45ZM1261.92 45H1265.92V44H1261.92V45ZM1269.93 45H1273.93V44H1269.93V45ZM1277.94 45H1281.94V44H1277.94V45ZM1285.94 45H1289.95V44H1285.94V45ZM1293.95 45H1297.96V44H1293.95V45ZM1301.96 45H1305.97V44H1301.96V45ZM1309.97 45H1313.98V44H1309.97V45ZM1317.98 45H1319.99V44H1317.98V45ZM86.6246 45.5H88.6268V43.5H86.6246V45.5ZM92.6313 45.5H96.6357V43.5H92.6313V45.5ZM100.64 45.5H104.645V43.5H100.64V45.5ZM108.649 45.5H112.653V43.5H108.649V45.5ZM116.658 45.5H120.662V43.5H116.658V45.5ZM124.667 45.5H128.671V43.5H124.667V45.5ZM132.675 45.5H136.68V43.5H132.675V45.5ZM140.684 45.5H144.689V43.5H140.684V45.5ZM148.693 45.5H152.698V43.5H148.693V45.5ZM156.702 45.5H160.706V43.5H156.702V45.5ZM164.711 45.5H168.715V43.5H164.711V45.5ZM172.72 45.5H176.724V43.5H172.72V45.5ZM180.728 45.5H184.733V43.5H180.728V45.5ZM188.737 45.5H192.742V43.5H188.737V45.5ZM196.746 45.5H200.751V43.5H196.746V45.5ZM204.755 45.5H208.759V43.5H204.755V45.5ZM212.764 45.5H216.768V43.5H212.764V45.5ZM220.773 45.5H224.777V43.5H220.773V45.5ZM228.781 45.5H232.786V43.5H228.781V45.5ZM236.79 45.5H240.795V43.5H236.79V45.5ZM244.799 45.5H248.804V43.5H244.799V45.5ZM252.808 45.5H256.812V43.5H252.808V45.5ZM260.817 45.5H264.821V43.5H260.817V45.5ZM268.826 45.5H272.83V43.5H268.826V45.5ZM276.835 45.5H280.839V43.5H276.835V45.5ZM284.843 45.5H288.848V43.5H284.843V45.5ZM292.852 45.5H296.857V43.5H292.852V45.5ZM300.861 45.5H304.866V43.5H300.861V45.5ZM308.87 45.5H312.874V43.5H308.87V45.5ZM316.879 45.5H320.883V43.5H316.879V45.5ZM324.888 45.5H328.892V43.5H324.888V45.5ZM332.897 45.5H336.901V43.5H332.897V45.5ZM340.905 45.5H344.91V43.5H340.905V45.5ZM348.914 45.5H352.919V43.5H348.914V45.5ZM356.923 45.5H360.928V43.5H356.923V45.5ZM364.932 45.5H368.936V43.5H364.932V45.5ZM372.941 45.5H376.945V43.5H372.941V45.5ZM380.95 45.5H384.954V43.5H380.95V45.5ZM388.958 45.5H392.963V43.5H388.958V45.5ZM396.967 45.5H400.972V43.5H396.967V45.5ZM404.976 45.5H408.981V43.5H404.976V45.5ZM412.985 45.5H416.989V43.5H412.985V45.5ZM420.994 45.5H424.998V43.5H420.994V45.5ZM429.003 45.5H433.007V43.5H429.003V45.5ZM437.012 45.5H441.016V43.5H437.012V45.5ZM445.02 45.5H449.025V43.5H445.02V45.5ZM453.029 45.5H457.034V43.5H453.029V45.5ZM461.038 45.5H465.043V43.5H461.038V45.5ZM469.047 45.5H473.051V43.5H469.047V45.5ZM477.056 45.5H481.06V43.5H477.056V45.5ZM485.065 45.5H489.069V43.5H485.065V45.5ZM493.074 45.5H497.078V43.5H493.074V45.5ZM501.082 45.5H505.087V43.5H501.082V45.5ZM509.091 45.5H513.096V43.5H509.091V45.5ZM517.1 45.5H521.105V43.5H517.1V45.5ZM525.109 45.5H529.113V43.5H525.109V45.5ZM533.118 45.5H537.122V43.5H533.118V45.5ZM541.127 45.5H545.131V43.5H541.127V45.5ZM549.135 45.5H553.14V43.5H549.135V45.5ZM557.144 45.5H561.149V43.5H557.144V45.5ZM565.153 45.5H569.158V43.5H565.153V45.5ZM573.162 45.5H577.166V43.5H573.162V45.5ZM581.171 45.5H585.175V43.5H581.171V45.5ZM589.18 45.5H593.184V43.5H589.18V45.5ZM597.189 45.5H601.193V43.5H597.189V45.5ZM605.197 45.5H609.202V43.5H605.197V45.5ZM613.206 45.5H617.211V43.5H613.206V45.5ZM621.215 45.5H625.219V43.5H621.215V45.5ZM629.224 45.5H633.228V43.5H629.224V45.5ZM637.233 45.5H641.237V43.5H637.233V45.5ZM645.241 45.5H649.246V43.5H645.241V45.5ZM653.25 45.5H657.255V43.5H653.25V45.5ZM661.259 45.5H665.263V43.5H661.259V45.5ZM669.268 45.5H673.272V43.5H669.268V45.5ZM677.276 45.5H681.281V43.5H677.276V45.5ZM685.285 45.5H689.29V43.5H685.285V45.5ZM693.294 45.5H697.298V43.5H693.294V45.5ZM701.303 45.5H705.307V43.5H701.303V45.5ZM709.312 45.5H713.316V43.5H709.312V45.5ZM717.32 45.5H721.325V43.5H717.32V45.5ZM725.329 45.5H729.334V43.5H725.329V45.5ZM733.338 45.5H737.342V43.5H733.338V45.5ZM741.347 45.5H745.351V43.5H741.347V45.5ZM749.356 45.5H753.36V43.5H749.356V45.5ZM757.364 45.5H761.369V43.5H757.364V45.5ZM765.373 45.5H769.378V43.5H765.373V45.5ZM773.382 45.5H777.386V43.5H773.382V45.5ZM781.391 45.5H785.395V43.5H781.391V45.5ZM789.4 45.5H793.404V43.5H789.4V45.5ZM797.408 45.5H801.413V43.5H797.408V45.5ZM805.417 45.5H809.422V43.5H805.417V45.5ZM813.426 45.5H817.43V43.5H813.426V45.5ZM821.435 45.5H825.439V43.5H821.435V45.5ZM829.443 45.5H833.448V43.5H829.443V45.5ZM837.452 45.5H841.457V43.5H837.452V45.5ZM845.461 45.5H849.465V43.5H845.461V45.5ZM853.47 45.5H857.474V43.5H853.47V45.5ZM861.479 45.5H865.483V43.5H861.479V45.5ZM869.487 45.5H873.492V43.5H869.487V45.5ZM877.496 45.5H881.501V43.5H877.496V45.5ZM885.505 45.5H889.509V43.5H885.505V45.5ZM893.514 45.5H897.518V43.5H893.514V45.5ZM901.523 45.5H905.527V43.5H901.523V45.5ZM909.531 45.5H913.536V43.5H909.531V45.5ZM917.54 45.5H921.545V43.5H917.54V45.5ZM925.549 45.5H929.553V43.5H925.549V45.5ZM933.558 45.5H937.562V43.5H933.558V45.5ZM941.567 45.5H945.571V43.5H941.567V45.5ZM949.575 45.5H953.58V43.5H949.575V45.5ZM957.584 45.5H961.589V43.5H957.584V45.5ZM965.593 45.5H969.597V43.5H965.593V45.5ZM973.602 45.5H977.606V43.5H973.602V45.5ZM981.61 45.5H985.615V43.5H981.61V45.5ZM989.619 45.5H993.624V43.5H989.619V45.5ZM997.628 45.5H1001.63V43.5H997.628V45.5ZM1005.64 45.5H1009.64V43.5H1005.64V45.5ZM1013.65 45.5H1017.65V43.5H1013.65V45.5ZM1021.65 45.5H1025.66V43.5H1021.65V45.5ZM1029.66 45.5H1033.67V43.5H1029.66V45.5ZM1037.67 45.5H1041.68V43.5H1037.67V45.5ZM1045.68 45.5H1049.69V43.5H1045.68V45.5ZM1053.69 45.5H1057.69V43.5H1053.69V45.5ZM1061.7 45.5H1065.7V43.5H1061.7V45.5ZM1069.71 45.5H1073.71V43.5H1069.71V45.5ZM1077.72 45.5H1081.72V43.5H1077.72V45.5ZM1085.72 45.5H1089.73V43.5H1085.72V45.5ZM1093.73 45.5H1097.74V43.5H1093.73V45.5ZM1101.74 45.5H1105.75V43.5H1101.74V45.5ZM1109.75 45.5H1113.76V43.5H1109.75V45.5ZM1117.76 45.5H1121.76V43.5H1117.76V45.5ZM1125.77 45.5H1129.77V43.5H1125.77V45.5ZM1133.78 45.5H1137.78V43.5H1133.78V45.5ZM1141.79 45.5H1145.79V43.5H1141.79V45.5ZM1149.8 45.5H1153.8V43.5H1149.8V45.5ZM1157.8 45.5H1161.81V43.5H1157.8V45.5ZM1165.81 45.5H1169.82V43.5H1165.81V45.5ZM1173.82 45.5H1177.83V43.5H1173.82V45.5ZM1181.83 45.5H1185.83V43.5H1181.83V45.5ZM1189.84 45.5H1193.84V43.5H1189.84V45.5ZM1197.85 45.5H1201.85V43.5H1197.85V45.5ZM1205.86 45.5H1209.86V43.5H1205.86V45.5ZM1213.87 45.5H1217.87V43.5H1213.87V45.5ZM1221.87 45.5H1225.88V43.5H1221.87V45.5ZM1229.88 45.5H1233.89V43.5H1229.88V45.5ZM1237.89 45.5H1241.9V43.5H1237.89V45.5ZM1245.9 45.5H1249.9V43.5H1245.9V45.5ZM1253.91 45.5H1257.91V43.5H1253.91V45.5ZM1261.92 45.5H1265.92V43.5H1261.92V45.5ZM1269.93 45.5H1273.93V43.5H1269.93V45.5ZM1277.94 45.5H1281.94V43.5H1277.94V45.5ZM1285.94 45.5H1289.95V43.5H1285.94V45.5ZM1293.95 45.5H1297.96V43.5H1293.95V45.5ZM1301.96 45.5H1305.97V43.5H1301.96V45.5ZM1309.97 45.5H1313.98V43.5H1309.97V45.5ZM1317.98 45.5H1319.99V43.5H1317.98V45.5Z" fill="#19212A" mask="url(#path-1-inside-1_802_12850)"/>
<path d="M86.6246 44.5H1319.99V88.5H86.6246V44.5Z" fill="#11171D"/>
<path d="M86.6246 88.5H1319.99V132.5H86.6246V88.5Z" fill="#11171D"/>
<mask id="path-5-inside-2_802_12850" fill="white">
<path d="M86.6246 132.5H1319.99V176.5H86.6246V132.5Z"/>
</mask>
<path d="M86.6246 132.5H1319.99V176.5H86.6246V132.5Z" fill="#11171D"/>
<path d="M86.6246 177H88.6268V176H86.6246V177ZM92.6313 177H96.6357V176H92.6313V177ZM100.64 177H104.645V176H100.64V177ZM108.649 177H112.653V176H108.649V177ZM116.658 177H120.662V176H116.658V177ZM124.667 177H128.671V176H124.667V177ZM132.675 177H136.68V176H132.675V177ZM140.684 177H144.689V176H140.684V177ZM148.693 177H152.698V176H148.693V177ZM156.702 177H160.706V176H156.702V177ZM164.711 177H168.715V176H164.711V177ZM172.72 177H176.724V176H172.72V177ZM180.728 177H184.733V176H180.728V177ZM188.737 177H192.742V176H188.737V177ZM196.746 177H200.751V176H196.746V177ZM204.755 177H208.759V176H204.755V177ZM212.764 177H216.768V176H212.764V177ZM220.773 177H224.777V176H220.773V177ZM228.781 177H232.786V176H228.781V177ZM236.79 177H240.795V176H236.79V177ZM244.799 177H248.804V176H244.799V177ZM252.808 177H256.812V176H252.808V177ZM260.817 177H264.821V176H260.817V177ZM268.826 177H272.83V176H268.826V177ZM276.835 177H280.839V176H276.835V177ZM284.843 177H288.848V176H284.843V177ZM292.852 177H296.857V176H292.852V177ZM300.861 177H304.866V176H300.861V177ZM308.87 177H312.874V176H308.87V177ZM316.879 177H320.883V176H316.879V177ZM324.888 177H328.892V176H324.888V177ZM332.897 177H336.901V176H332.897V177ZM340.905 177H344.91V176H340.905V177ZM348.914 177H352.919V176H348.914V177ZM356.923 177H360.928V176H356.923V177ZM364.932 177H368.936V176H364.932V177ZM372.941 177H376.945V176H372.941V177ZM380.95 177H384.954V176H380.95V177ZM388.958 177H392.963V176H388.958V177ZM396.967 177H400.972V176H396.967V177ZM404.976 177H408.981V176H404.976V177ZM412.985 177H416.989V176H412.985V177ZM420.994 177H424.998V176H420.994V177ZM429.003 177H433.007V176H429.003V177ZM437.012 177H441.016V176H437.012V177ZM445.02 177H449.025V176H445.02V177ZM453.029 177H457.034V176H453.029V177ZM461.038 177H465.043V176H461.038V177ZM469.047 177H473.051V176H469.047V177ZM477.056 177H481.06V176H477.056V177ZM485.065 177H489.069V176H485.065V177ZM493.074 177H497.078V176H493.074V177ZM501.082 177H505.087V176H501.082V177ZM509.091 177H513.096V176H509.091V177ZM517.1 177H521.105V176H517.1V177ZM525.109 177H529.113V176H525.109V177ZM533.118 177H537.122V176H533.118V177ZM541.127 177H545.131V176H541.127V177ZM549.135 177H553.14V176H549.135V177ZM557.144 177H561.149V176H557.144V177ZM565.153 177H569.158V176H565.153V177ZM573.162 177H577.166V176H573.162V177ZM581.171 177H585.175V176H581.171V177ZM589.18 177H593.184V176H589.18V177ZM597.189 177H601.193V176H597.189V177ZM605.197 177H609.202V176H605.197V177ZM613.206 177H617.211V176H613.206V177ZM621.215 177H625.219V176H621.215V177ZM629.224 177H633.228V176H629.224V177ZM637.233 177H641.237V176H637.233V177ZM645.241 177H649.246V176H645.241V177ZM653.25 177H657.255V176H653.25V177ZM661.259 177H665.263V176H661.259V177ZM669.268 177H673.272V176H669.268V177ZM677.276 177H681.281V176H677.276V177ZM685.285 177H689.29V176H685.285V177ZM693.294 177H697.298V176H693.294V177ZM701.303 177H705.307V176H701.303V177ZM709.312 177H713.316V176H709.312V177ZM717.32 177H721.325V176H717.32V177ZM725.329 177H729.334V176H725.329V177ZM733.338 177H737.342V176H733.338V177ZM741.347 177H745.351V176H741.347V177ZM749.356 177H753.36V176H749.356V177ZM757.364 177H761.369V176H757.364V177ZM765.373 177H769.378V176H765.373V177ZM773.382 177H777.386V176H773.382V177ZM781.391 177H785.395V176H781.391V177ZM789.4 177H793.404V176H789.4V177ZM797.408 177H801.413V176H797.408V177ZM805.417 177H809.422V176H805.417V177ZM813.426 177H817.43V176H813.426V177ZM821.435 177H825.439V176H821.435V177ZM829.443 177H833.448V176H829.443V177ZM837.452 177H841.457V176H837.452V177ZM845.461 177H849.465V176H845.461V177ZM853.47 177H857.474V176H853.47V177ZM861.479 177H865.483V176H861.479V177ZM869.487 177H873.492V176H869.487V177ZM877.496 177H881.501V176H877.496V177ZM885.505 177H889.509V176H885.505V177ZM893.514 177H897.518V176H893.514V177ZM901.523 177H905.527V176H901.523V177ZM909.531 177H913.536V176H909.531V177ZM917.54 177H921.545V176H917.54V177ZM925.549 177H929.553V176H925.549V177ZM933.558 177H937.562V176H933.558V177ZM941.567 177H945.571V176H941.567V177ZM949.575 177H953.58V176H949.575V177ZM957.584 177H961.589V176H957.584V177ZM965.593 177H969.597V176H965.593V177ZM973.602 177H977.606V176H973.602V177ZM981.61 177H985.615V176H981.61V177ZM989.619 177H993.624V176H989.619V177ZM997.628 177H1001.63V176H997.628V177ZM1005.64 177H1009.64V176H1005.64V177ZM1013.65 177H1017.65V176H1013.65V177ZM1021.65 177H1025.66V176H1021.65V177ZM1029.66 177H1033.67V176H1029.66V177ZM1037.67 177H1041.68V176H1037.67V177ZM1045.68 177H1049.69V176H1045.68V177ZM1053.69 177H1057.69V176H1053.69V177ZM1061.7 177H1065.7V176H1061.7V177ZM1069.71 177H1073.71V176H1069.71V177ZM1077.72 177H1081.72V176H1077.72V177ZM1085.72 177H1089.73V176H1085.72V177ZM1093.73 177H1097.74V176H1093.73V177ZM1101.74 177H1105.75V176H1101.74V177ZM1109.75 177H1113.76V176H1109.75V177ZM1117.76 177H1121.76V176H1117.76V177ZM1125.77 177H1129.77V176H1125.77V177ZM1133.78 177H1137.78V176H1133.78V177ZM1141.79 177H1145.79V176H1141.79V177ZM1149.8 177H1153.8V176H1149.8V177ZM1157.8 177H1161.81V176H1157.8V177ZM1165.81 177H1169.82V176H1165.81V177ZM1173.82 177H1177.83V176H1173.82V177ZM1181.83 177H1185.83V176H1181.83V177ZM1189.84 177H1193.84V176H1189.84V177ZM1197.85 177H1201.85V176H1197.85V177ZM1205.86 177H1209.86V176H1205.86V177ZM1213.87 177H1217.87V176H1213.87V177ZM1221.87 177H1225.88V176H1221.87V177ZM1229.88 177H1233.89V176H1229.88V177ZM1237.89 177H1241.9V176H1237.89V177ZM1245.9 177H1249.9V176H1245.9V177ZM1253.91 177H1257.91V176H1253.91V177ZM1261.92 177H1265.92V176H1261.92V177ZM1269.93 177H1273.93V176H1269.93V177ZM1277.94 177H1281.94V176H1277.94V177ZM1285.94 177H1289.95V176H1285.94V177ZM1293.95 177H1297.96V176H1293.95V177ZM1301.96 177H1305.97V176H1301.96V177ZM1309.97 177H1313.98V176H1309.97V177ZM1317.98 177H1319.99V176H1317.98V177ZM86.6246 177.5H88.6268V175.5H86.6246V177.5ZM92.6313 177.5H96.6357V175.5H92.6313V177.5ZM100.64 177.5H104.645V175.5H100.64V177.5ZM108.649 177.5H112.653V175.5H108.649V177.5ZM116.658 177.5H120.662V175.5H116.658V177.5ZM124.667 177.5H128.671V175.5H124.667V177.5ZM132.675 177.5H136.68V175.5H132.675V177.5ZM140.684 177.5H144.689V175.5H140.684V177.5ZM148.693 177.5H152.698V175.5H148.693V177.5ZM156.702 177.5H160.706V175.5H156.702V177.5ZM164.711 177.5H168.715V175.5H164.711V177.5ZM172.72 177.5H176.724V175.5H172.72V177.5ZM180.728 177.5H184.733V175.5H180.728V177.5ZM188.737 177.5H192.742V175.5H188.737V177.5ZM196.746 177.5H200.751V175.5H196.746V177.5ZM204.755 177.5H208.759V175.5H204.755V177.5ZM212.764 177.5H216.768V175.5H212.764V177.5ZM220.773 177.5H224.777V175.5H220.773V177.5ZM228.781 177.5H232.786V175.5H228.781V177.5ZM236.79 177.5H240.795V175.5H236.79V177.5ZM244.799 177.5H248.804V175.5H244.799V177.5ZM252.808 177.5H256.812V175.5H252.808V177.5ZM260.817 177.5H264.821V175.5H260.817V177.5ZM268.826 177.5H272.83V175.5H268.826V177.5ZM276.835 177.5H280.839V175.5H276.835V177.5ZM284.843 177.5H288.848V175.5H284.843V177.5ZM292.852 177.5H296.857V175.5H292.852V177.5ZM300.861 177.5H304.866V175.5H300.861V177.5ZM308.87 177.5H312.874V175.5H308.87V177.5ZM316.879 177.5H320.883V175.5H316.879V177.5ZM324.888 177.5H328.892V175.5H324.888V177.5ZM332.897 177.5H336.901V175.5H332.897V177.5ZM340.905 177.5H344.91V175.5H340.905V177.5ZM348.914 177.5H352.919V175.5H348.914V177.5ZM356.923 177.5H360.928V175.5H356.923V177.5ZM364.932 177.5H368.936V175.5H364.932V177.5ZM372.941 177.5H376.945V175.5H372.941V177.5ZM380.95 177.5H384.954V175.5H380.95V177.5ZM388.958 177.5H392.963V175.5H388.958V177.5ZM396.967 177.5H400.972V175.5H396.967V177.5ZM404.976 177.5H408.981V175.5H404.976V177.5ZM412.985 177.5H416.989V175.5H412.985V177.5ZM420.994 177.5H424.998V175.5H420.994V177.5ZM429.003 177.5H433.007V175.5H429.003V177.5ZM437.012 177.5H441.016V175.5H437.012V177.5ZM445.02 177.5H449.025V175.5H445.02V177.5ZM453.029 177.5H457.034V175.5H453.029V177.5ZM461.038 177.5H465.043V175.5H461.038V177.5ZM469.047 177.5H473.051V175.5H469.047V177.5ZM477.056 177.5H481.06V175.5H477.056V177.5ZM485.065 177.5H489.069V175.5H485.065V177.5ZM493.074 177.5H497.078V175.5H493.074V177.5ZM501.082 177.5H505.087V175.5H501.082V177.5ZM509.091 177.5H513.096V175.5H509.091V177.5ZM517.1 177.5H521.105V175.5H517.1V177.5ZM525.109 177.5H529.113V175.5H525.109V177.5ZM533.118 177.5H537.122V175.5H533.118V177.5ZM541.127 177.5H545.131V175.5H541.127V177.5ZM549.135 177.5H553.14V175.5H549.135V177.5ZM557.144 177.5H561.149V175.5H557.144V177.5ZM565.153 177.5H569.158V175.5H565.153V177.5ZM573.162 177.5H577.166V175.5H573.162V177.5ZM581.171 177.5H585.175V175.5H581.171V177.5ZM589.18 177.5H593.184V175.5H589.18V177.5ZM597.189 177.5H601.193V175.5H597.189V177.5ZM605.197 177.5H609.202V175.5H605.197V177.5ZM613.206 177.5H617.211V175.5H613.206V177.5ZM621.215 177.5H625.219V175.5H621.215V177.5ZM629.224 177.5H633.228V175.5H629.224V177.5ZM637.233 177.5H641.237V175.5H637.233V177.5ZM645.241 177.5H649.246V175.5H645.241V177.5ZM653.25 177.5H657.255V175.5H653.25V177.5ZM661.259 177.5H665.263V175.5H661.259V177.5ZM669.268 177.5H673.272V175.5H669.268V177.5ZM677.276 177.5H681.281V175.5H677.276V177.5ZM685.285 177.5H689.29V175.5H685.285V177.5ZM693.294 177.5H697.298V175.5H693.294V177.5ZM701.303 177.5H705.307V175.5H701.303V177.5ZM709.312 177.5H713.316V175.5H709.312V177.5ZM717.32 177.5H721.325V175.5H717.32V177.5ZM725.329 177.5H729.334V175.5H725.329V177.5ZM733.338 177.5H737.342V175.5H733.338V177.5ZM741.347 177.5H745.351V175.5H741.347V177.5ZM749.356 177.5H753.36V175.5H749.356V177.5ZM757.364 177.5H761.369V175.5H757.364V177.5ZM765.373 177.5H769.378V175.5H765.373V177.5ZM773.382 177.5H777.386V175.5H773.382V177.5ZM781.391 177.5H785.395V175.5H781.391V177.5ZM789.4 177.5H793.404V175.5H789.4V177.5ZM797.408 177.5H801.413V175.5H797.408V177.5ZM805.417 177.5H809.422V175.5H805.417V177.5ZM813.426 177.5H817.43V175.5H813.426V177.5ZM821.435 177.5H825.439V175.5H821.435V177.5ZM829.443 177.5H833.448V175.5H829.443V177.5ZM837.452 177.5H841.457V175.5H837.452V177.5ZM845.461 177.5H849.465V175.5H845.461V177.5ZM853.47 177.5H857.474V175.5H853.47V177.5ZM861.479 177.5H865.483V175.5H861.479V177.5ZM869.487 177.5H873.492V175.5H869.487V177.5ZM877.496 177.5H881.501V175.5H877.496V177.5ZM885.505 177.5H889.509V175.5H885.505V177.5ZM893.514 177.5H897.518V175.5H893.514V177.5ZM901.523 177.5H905.527V175.5H901.523V177.5ZM909.531 177.5H913.536V175.5H909.531V177.5ZM917.54 177.5H921.545V175.5H917.54V177.5ZM925.549 177.5H929.553V175.5H925.549V177.5ZM933.558 177.5H937.562V175.5H933.558V177.5ZM941.567 177.5H945.571V175.5H941.567V177.5ZM949.575 177.5H953.58V175.5H949.575V177.5ZM957.584 177.5H961.589V175.5H957.584V177.5ZM965.593 177.5H969.597V175.5H965.593V177.5ZM973.602 177.5H977.606V175.5H973.602V177.5ZM981.61 177.5H985.615V175.5H981.61V177.5ZM989.619 177.5H993.624V175.5H989.619V177.5ZM997.628 177.5H1001.63V175.5H997.628V177.5ZM1005.64 177.5H1009.64V175.5H1005.64V177.5ZM1013.65 177.5H1017.65V175.5H1013.65V177.5ZM1021.65 177.5H1025.66V175.5H1021.65V177.5ZM1029.66 177.5H1033.67V175.5H1029.66V177.5ZM1037.67 177.5H1041.68V175.5H1037.67V177.5ZM1045.68 177.5H1049.69V175.5H1045.68V177.5ZM1053.69 177.5H1057.69V175.5H1053.69V177.5ZM1061.7 177.5H1065.7V175.5H1061.7V177.5ZM1069.71 177.5H1073.71V175.5H1069.71V177.5ZM1077.72 177.5H1081.72V175.5H1077.72V177.5ZM1085.72 177.5H1089.73V175.5H1085.72V177.5ZM1093.73 177.5H1097.74V175.5H1093.73V177.5ZM1101.74 177.5H1105.75V175.5H1101.74V177.5ZM1109.75 177.5H1113.76V175.5H1109.75V177.5ZM1117.76 177.5H1121.76V175.5H1117.76V177.5ZM1125.77 177.5H1129.77V175.5H1125.77V177.5ZM1133.78 177.5H1137.78V175.5H1133.78V177.5ZM1141.79 177.5H1145.79V175.5H1141.79V177.5ZM1149.8 177.5H1153.8V175.5H1149.8V177.5ZM1157.8 177.5H1161.81V175.5H1157.8V177.5ZM1165.81 177.5H1169.82V175.5H1165.81V177.5ZM1173.82 177.5H1177.83V175.5H1173.82V177.5ZM1181.83 177.5H1185.83V175.5H1181.83V177.5ZM1189.84 177.5H1193.84V175.5H1189.84V177.5ZM1197.85 177.5H1201.85V175.5H1197.85V177.5ZM1205.86 177.5H1209.86V175.5H1205.86V177.5ZM1213.87 177.5H1217.87V175.5H1213.87V177.5ZM1221.87 177.5H1225.88V175.5H1221.87V177.5ZM1229.88 177.5H1233.89V175.5H1229.88V177.5ZM1237.89 177.5H1241.9V175.5H1237.89V177.5ZM1245.9 177.5H1249.9V175.5H1245.9V177.5ZM1253.91 177.5H1257.91V175.5H1253.91V177.5ZM1261.92 177.5H1265.92V175.5H1261.92V177.5ZM1269.93 177.5H1273.93V175.5H1269.93V177.5ZM1277.94 177.5H1281.94V175.5H1277.94V177.5ZM1285.94 177.5H1289.95V175.5H1285.94V177.5ZM1293.95 177.5H1297.96V175.5H1293.95V177.5ZM1301.96 177.5H1305.97V175.5H1301.96V177.5ZM1309.97 177.5H1313.98V175.5H1309.97V177.5ZM1317.98 177.5H1319.99V175.5H1317.98V177.5Z" fill="#19212A" mask="url(#path-5-inside-2_802_12850)"/>
<path d="M86.6246 176.5H1319.99V220.5H86.6246V176.5Z" fill="#11171D"/>
<path d="M86.6246 220.5H1319.99V264.5H86.6246V220.5Z" fill="#11171D"/>
<mask id="path-9-inside-3_802_12850" fill="white">
<path d="M86.6246 264.5H1319.99V308.5H86.6246V264.5Z"/>
</mask>
<path d="M86.6246 264.5H1319.99V308.5H86.6246V264.5Z" fill="#11171D"/>
<path d="M1319.99 307.5H86.6246V309.5H1319.99V307.5Z" fill="#19212A" mask="url(#path-9-inside-3_802_12850)"/>
<path d="M119.593 336.5V335.95L121.881 333.431C122.328 332.94 122.691 332.533 122.97 332.21C123.256 331.887 123.468 331.594 123.608 331.33C123.747 331.066 123.817 330.78 123.817 330.472C123.817 329.981 123.674 329.603 123.388 329.339C123.102 329.075 122.72 328.943 122.244 328.943C121.752 328.943 121.338 329.082 121.001 329.361C120.671 329.64 120.447 330.028 120.33 330.527L119.527 330.351C119.622 329.904 119.794 329.519 120.044 329.196C120.293 328.873 120.605 328.624 120.979 328.448C121.353 328.265 121.771 328.173 122.233 328.173C122.724 328.173 123.153 328.272 123.52 328.47C123.886 328.668 124.172 328.939 124.378 329.284C124.59 329.629 124.697 330.025 124.697 330.472C124.697 330.78 124.631 331.077 124.499 331.363C124.374 331.649 124.183 331.957 123.927 332.287C123.67 332.617 123.34 333.002 122.937 333.442L120.858 335.73H124.917V336.5H119.593ZM129.563 336.632C128.918 336.632 128.35 336.456 127.858 336.104C127.374 335.745 126.997 335.25 126.725 334.619C126.454 333.981 126.318 333.24 126.318 332.397C126.318 331.554 126.454 330.817 126.725 330.186C126.997 329.548 127.374 329.053 127.858 328.701C128.342 328.349 128.907 328.173 129.552 328.173C130.198 328.173 130.762 328.349 131.246 328.701C131.73 329.053 132.108 329.548 132.379 330.186C132.651 330.817 132.786 331.554 132.786 332.397C132.786 333.24 132.651 333.981 132.379 334.619C132.115 335.257 131.741 335.752 131.257 336.104C130.773 336.456 130.209 336.632 129.563 336.632ZM129.563 335.807C130.033 335.807 130.443 335.664 130.795 335.378C131.147 335.092 131.422 334.696 131.62 334.19C131.818 333.677 131.917 333.079 131.917 332.397C131.917 331.715 131.818 331.121 131.62 330.615C131.422 330.102 131.147 329.706 130.795 329.427C130.443 329.141 130.029 328.998 129.552 328.998C129.083 328.998 128.672 329.141 128.32 329.427C127.968 329.706 127.693 330.102 127.495 330.615C127.297 331.121 127.198 331.715 127.198 332.397C127.198 333.072 127.297 333.666 127.495 334.179C127.693 334.692 127.968 335.092 128.32 335.378C128.68 335.664 129.094 335.807 129.563 335.807ZM135.55 336.5V329.075H134.01V328.305H136.43V336.5H135.55ZM142.292 336.5V334.564H138.123V333.849L142.292 328.305H143.062V333.849H144.063V334.564H143.062V336.5H142.292ZM138.794 334.168L138.695 333.849H142.292V329.064L142.567 329.141L138.794 334.168Z" fill="#84919F"/>
<path d="M234.624 336.5V335.95L236.912 333.431C237.36 332.94 237.723 332.533 238.001 332.21C238.287 331.887 238.5 331.594 238.639 331.33C238.779 331.066 238.848 330.78 238.848 330.472C238.848 329.981 238.705 329.603 238.419 329.339C238.133 329.075 237.752 328.943 237.275 328.943C236.784 328.943 236.37 329.082 236.032 329.361C235.702 329.64 235.479 330.028 235.361 330.527L234.558 330.351C234.654 329.904 234.826 329.519 235.075 329.196C235.325 328.873 235.636 328.624 236.01 328.448C236.384 328.265 236.802 328.173 237.264 328.173C237.756 328.173 238.185 328.272 238.551 328.47C238.918 328.668 239.204 328.939 239.409 329.284C239.622 329.629 239.728 330.025 239.728 330.472C239.728 330.78 239.662 331.077 239.53 331.363C239.406 331.649 239.215 331.957 238.958 332.287C238.702 332.617 238.372 333.002 237.968 333.442L235.889 335.73H239.948V336.5H234.624ZM244.595 336.632C243.95 336.632 243.381 336.456 242.89 336.104C242.406 335.745 242.028 335.25 241.757 334.619C241.486 333.981 241.35 333.24 241.35 332.397C241.35 331.554 241.486 330.817 241.757 330.186C242.028 329.548 242.406 329.053 242.89 328.701C243.374 328.349 243.939 328.173 244.584 328.173C245.229 328.173 245.794 328.349 246.278 328.701C246.762 329.053 247.14 329.548 247.411 330.186C247.682 330.817 247.818 331.554 247.818 332.397C247.818 333.24 247.682 333.981 247.411 334.619C247.147 335.257 246.773 335.752 246.289 336.104C245.805 336.456 245.24 336.632 244.595 336.632ZM244.595 335.807C245.064 335.807 245.475 335.664 245.827 335.378C246.179 335.092 246.454 334.696 246.652 334.19C246.85 333.677 246.949 333.079 246.949 332.397C246.949 331.715 246.85 331.121 246.652 330.615C246.454 330.102 246.179 329.706 245.827 329.427C245.475 329.141 245.061 328.998 244.584 328.998C244.115 328.998 243.704 329.141 243.352 329.427C243 329.706 242.725 330.102 242.527 330.615C242.329 331.121 242.23 331.715 242.23 332.397C242.23 333.072 242.329 333.666 242.527 334.179C242.725 334.692 243 335.092 243.352 335.378C243.711 335.664 244.126 335.807 244.595 335.807ZM250.581 336.5V329.075H249.041V328.305H251.461V336.5H250.581ZM255.97 336.632C255.545 336.632 255.149 336.559 254.782 336.412C254.423 336.265 254.108 336.056 253.836 335.785C253.565 335.514 253.36 335.191 253.22 334.817L253.891 334.487C254.06 334.912 254.335 335.25 254.716 335.499C255.105 335.741 255.523 335.862 255.97 335.862C256.33 335.862 256.649 335.778 256.927 335.609C257.213 335.44 257.437 335.213 257.598 334.927C257.76 334.634 257.84 334.307 257.84 333.948C257.84 333.574 257.756 333.244 257.587 332.958C257.426 332.672 257.206 332.448 256.927 332.287C256.649 332.118 256.333 332.034 255.981 332.034C255.622 332.034 255.288 332.118 254.98 332.287C254.68 332.448 254.46 332.646 254.32 332.881L253.627 332.749L254.243 328.305H258.39V329.075H254.562L254.903 328.778L254.408 332.276L254.067 332.122C254.324 331.807 254.625 331.583 254.969 331.451C255.314 331.312 255.666 331.242 256.025 331.242C256.553 331.242 257.019 331.367 257.422 331.616C257.826 331.858 258.141 332.184 258.368 332.595C258.603 332.998 258.72 333.449 258.72 333.948C258.72 334.454 258.599 334.912 258.357 335.323C258.123 335.726 257.796 336.045 257.378 336.28C256.968 336.515 256.498 336.632 255.97 336.632Z" fill="#84919F"/>
<path d="M349.742 336.5V335.95L352.03 333.431C352.477 332.94 352.84 332.533 353.119 332.21C353.405 331.887 353.618 331.594 353.757 331.33C353.896 331.066 353.966 330.78 353.966 330.472C353.966 329.981 353.823 329.603 353.537 329.339C353.251 329.075 352.87 328.943 352.393 328.943C351.902 328.943 351.487 329.082 351.15 329.361C350.82 329.64 350.596 330.028 350.479 330.527L349.676 330.351C349.771 329.904 349.944 329.519 350.193 329.196C350.442 328.873 350.754 328.624 351.128 328.448C351.502 328.265 351.92 328.173 352.382 328.173C352.873 328.173 353.302 328.272 353.669 328.47C354.036 328.668 354.322 328.939 354.527 329.284C354.74 329.629 354.846 330.025 354.846 330.472C354.846 330.78 354.78 331.077 354.648 331.363C354.523 331.649 354.333 331.957 354.076 332.287C353.819 332.617 353.489 333.002 353.086 333.442L351.007 335.73H355.066V336.5H349.742ZM359.713 336.632C359.067 336.632 358.499 336.456 358.008 336.104C357.524 335.745 357.146 335.25 356.875 334.619C356.603 333.981 356.468 333.24 356.468 332.397C356.468 331.554 356.603 330.817 356.875 330.186C357.146 329.548 357.524 329.053 358.008 328.701C358.492 328.349 359.056 328.173 359.702 328.173C360.347 328.173 360.912 328.349 361.396 328.701C361.88 329.053 362.257 329.548 362.529 330.186C362.8 330.817 362.936 331.554 362.936 332.397C362.936 333.24 362.8 333.981 362.529 334.619C362.265 335.257 361.891 335.752 361.407 336.104C360.923 336.456 360.358 336.632 359.713 336.632ZM359.713 335.807C360.182 335.807 360.593 335.664 360.945 335.378C361.297 335.092 361.572 334.696 361.77 334.19C361.968 333.677 362.067 333.079 362.067 332.397C362.067 331.715 361.968 331.121 361.77 330.615C361.572 330.102 361.297 329.706 360.945 329.427C360.593 329.141 360.178 328.998 359.702 328.998C359.232 328.998 358.822 329.141 358.47 329.427C358.118 329.706 357.843 330.102 357.645 330.615C357.447 331.121 357.348 331.715 357.348 332.397C357.348 333.072 357.447 333.666 357.645 334.179C357.843 334.692 358.118 335.092 358.47 335.378C358.829 335.664 359.243 335.807 359.713 335.807ZM365.699 336.5V329.075H364.159V328.305H366.579V336.5H365.699ZM370.958 336.632C370.445 336.632 369.99 336.518 369.594 336.291C369.198 336.056 368.887 335.737 368.659 335.334C368.432 334.923 368.318 334.454 368.318 333.926C368.318 333.633 368.351 333.343 368.417 333.057C368.491 332.771 368.597 332.489 368.736 332.21C368.883 331.931 369.059 331.653 369.264 331.374L371.574 328.305H372.63L369.781 332.034L369.616 332.133C369.726 331.95 369.855 331.81 370.001 331.715C370.148 331.612 370.309 331.539 370.485 331.495C370.669 331.451 370.863 331.429 371.068 331.429C371.545 331.429 371.974 331.543 372.355 331.77C372.737 331.99 373.037 332.294 373.257 332.683C373.485 333.072 373.598 333.523 373.598 334.036C373.598 334.527 373.481 334.971 373.246 335.367C373.019 335.756 372.707 336.064 372.311 336.291C371.915 336.518 371.464 336.632 370.958 336.632ZM370.958 335.862C371.296 335.862 371.596 335.785 371.86 335.631C372.124 335.47 372.333 335.25 372.487 334.971C372.641 334.692 372.718 334.381 372.718 334.036C372.718 333.684 372.641 333.372 372.487 333.101C372.341 332.83 372.135 332.617 371.871 332.463C371.607 332.302 371.303 332.221 370.958 332.221C370.621 332.221 370.317 332.302 370.045 332.463C369.781 332.617 369.572 332.83 369.418 333.101C369.272 333.372 369.198 333.684 369.198 334.036C369.198 334.381 369.275 334.692 369.429 334.971C369.583 335.25 369.792 335.47 370.056 335.631C370.32 335.785 370.621 335.862 370.958 335.862Z" fill="#84919F"/>
<path d="M464.94 336.5V335.95L467.228 333.431C467.676 332.94 468.039 332.533 468.317 332.21C468.603 331.887 468.816 331.594 468.955 331.33C469.095 331.066 469.164 330.78 469.164 330.472C469.164 329.981 469.021 329.603 468.735 329.339C468.449 329.075 468.068 328.943 467.591 328.943C467.1 328.943 466.686 329.082 466.348 329.361C466.018 329.64 465.795 330.028 465.677 330.527L464.874 330.351C464.97 329.904 465.142 329.519 465.391 329.196C465.641 328.873 465.952 328.624 466.326 328.448C466.7 328.265 467.118 328.173 467.58 328.173C468.072 328.173 468.501 328.272 468.867 328.47C469.234 328.668 469.52 328.939 469.725 329.284C469.938 329.629 470.044 330.025 470.044 330.472C470.044 330.78 469.978 331.077 469.846 331.363C469.722 331.649 469.531 331.957 469.274 332.287C469.018 332.617 468.688 333.002 468.284 333.442L466.205 335.73H470.264V336.5H464.94ZM474.911 336.632C474.265 336.632 473.697 336.456 473.206 336.104C472.722 335.745 472.344 335.25 472.073 334.619C471.801 333.981 471.666 333.24 471.666 332.397C471.666 331.554 471.801 330.817 472.073 330.186C472.344 329.548 472.722 329.053 473.206 328.701C473.69 328.349 474.254 328.173 474.9 328.173C475.545 328.173 476.11 328.349 476.594 328.701C477.078 329.053 477.455 329.548 477.727 330.186C477.998 330.817 478.134 331.554 478.134 332.397C478.134 333.24 477.998 333.981 477.727 334.619C477.463 335.257 477.089 335.752 476.605 336.104C476.121 336.456 475.556 336.632 474.911 336.632ZM474.911 335.807C475.38 335.807 475.791 335.664 476.143 335.378C476.495 335.092 476.77 334.696 476.968 334.19C477.166 333.677 477.265 333.079 477.265 332.397C477.265 331.715 477.166 331.121 476.968 330.615C476.77 330.102 476.495 329.706 476.143 329.427C475.791 329.141 475.376 328.998 474.9 328.998C474.43 328.998 474.02 329.141 473.668 329.427C473.316 329.706 473.041 330.102 472.843 330.615C472.645 331.121 472.546 331.715 472.546 332.397C472.546 333.072 472.645 333.666 472.843 334.179C473.041 334.692 473.316 335.092 473.668 335.378C474.027 335.664 474.441 335.807 474.911 335.807ZM480.897 336.5V329.075H479.357V328.305H481.777V336.5H480.897ZM483.833 336.5L487.529 329.075H483.437V328.305H488.442V329.075L484.757 336.5H483.833Z" fill="#84919F"/>
<path d="M579.429 336.5V335.95L581.717 333.431C582.165 332.94 582.528 332.533 582.806 332.21C583.092 331.887 583.305 331.594 583.444 331.33C583.584 331.066 583.653 330.78 583.653 330.472C583.653 329.981 583.51 329.603 583.224 329.339C582.938 329.075 582.557 328.943 582.08 328.943C581.589 328.943 581.175 329.082 580.837 329.361C580.507 329.64 580.284 330.028 580.166 330.527L579.363 330.351C579.459 329.904 579.631 329.519 579.88 329.196C580.13 328.873 580.441 328.624 580.815 328.448C581.189 328.265 581.607 328.173 582.069 328.173C582.561 328.173 582.99 328.272 583.356 328.47C583.723 328.668 584.009 328.939 584.214 329.284C584.427 329.629 584.533 330.025 584.533 330.472C584.533 330.78 584.467 331.077 584.335 331.363C584.211 331.649 584.02 331.957 583.763 332.287C583.507 332.617 583.177 333.002 582.773 333.442L580.694 335.73H584.753V336.5H579.429ZM589.4 336.632C588.755 336.632 588.186 336.456 587.695 336.104C587.211 335.745 586.833 335.25 586.562 334.619C586.291 333.981 586.155 333.24 586.155 332.397C586.155 331.554 586.291 330.817 586.562 330.186C586.833 329.548 587.211 329.053 587.695 328.701C588.179 328.349 588.744 328.173 589.389 328.173C590.034 328.173 590.599 328.349 591.083 328.701C591.567 329.053 591.945 329.548 592.216 330.186C592.487 330.817 592.623 331.554 592.623 332.397C592.623 333.24 592.487 333.981 592.216 334.619C591.952 335.257 591.578 335.752 591.094 336.104C590.61 336.456 590.045 336.632 589.4 336.632ZM589.4 335.807C589.869 335.807 590.28 335.664 590.632 335.378C590.984 335.092 591.259 334.696 591.457 334.19C591.655 333.677 591.754 333.079 591.754 332.397C591.754 331.715 591.655 331.121 591.457 330.615C591.259 330.102 590.984 329.706 590.632 329.427C590.28 329.141 589.866 328.998 589.389 328.998C588.92 328.998 588.509 329.141 588.157 329.427C587.805 329.706 587.53 330.102 587.332 330.615C587.134 331.121 587.035 331.715 587.035 332.397C587.035 333.072 587.134 333.666 587.332 334.179C587.53 334.692 587.805 335.092 588.157 335.378C588.516 335.664 588.931 335.807 589.4 335.807ZM595.386 336.5V329.075H593.846V328.305H596.266V336.5H595.386ZM600.907 336.632C600.379 336.632 599.906 336.526 599.488 336.313C599.078 336.093 598.751 335.796 598.509 335.422C598.275 335.041 598.157 334.612 598.157 334.135C598.157 333.614 598.304 333.149 598.597 332.738C598.898 332.327 599.301 332.041 599.807 331.88V332.111C599.419 331.942 599.118 331.693 598.905 331.363C598.693 331.026 598.586 330.666 598.586 330.285C598.586 329.882 598.689 329.522 598.894 329.207C599.1 328.892 599.375 328.642 599.719 328.459C600.071 328.268 600.467 328.173 600.907 328.173C601.355 328.173 601.751 328.265 602.095 328.448C602.44 328.624 602.711 328.873 602.909 329.196C603.115 329.511 603.217 329.874 603.217 330.285C603.217 330.696 603.107 331.062 602.887 331.385C602.667 331.7 602.378 331.942 602.018 332.111L602.007 331.88C602.513 332.041 602.913 332.327 603.206 332.738C603.507 333.149 603.657 333.614 603.657 334.135C603.657 334.612 603.536 335.041 603.294 335.422C603.06 335.796 602.733 336.093 602.315 336.313C601.905 336.526 601.435 336.632 600.907 336.632ZM600.907 335.862C601.281 335.862 601.608 335.792 601.886 335.653C602.165 335.506 602.381 335.305 602.535 335.048C602.697 334.784 602.777 334.48 602.777 334.135C602.777 333.79 602.697 333.49 602.535 333.233C602.381 332.969 602.165 332.767 601.886 332.628C601.608 332.481 601.281 332.408 600.907 332.408C600.533 332.408 600.203 332.481 599.917 332.628C599.639 332.767 599.422 332.969 599.268 333.233C599.114 333.49 599.037 333.79 599.037 334.135C599.037 334.48 599.114 334.784 599.268 335.048C599.422 335.305 599.639 335.506 599.917 335.653C600.203 335.792 600.533 335.862 600.907 335.862ZM600.907 331.638C601.179 331.638 601.421 331.583 601.633 331.473C601.846 331.356 602.015 331.198 602.139 331C602.271 330.795 602.337 330.556 602.337 330.285C602.337 330.014 602.271 329.779 602.139 329.581C602.015 329.383 601.846 329.229 601.633 329.119C601.421 329.002 601.179 328.943 600.907 328.943C600.636 328.943 600.39 329.002 600.17 329.119C599.958 329.229 599.785 329.383 599.653 329.581C599.529 329.779 599.466 330.014 599.466 330.285C599.466 330.556 599.529 330.795 599.653 331C599.785 331.198 599.958 331.356 600.17 331.473C600.39 331.583 600.636 331.638 600.907 331.638Z" fill="#84919F"/>
<path d="M694.558 336.5V335.95L696.846 333.431C697.293 332.94 697.656 332.533 697.935 332.21C698.221 331.887 698.433 331.594 698.573 331.33C698.712 331.066 698.782 330.78 698.782 330.472C698.782 329.981 698.639 329.603 698.353 329.339C698.067 329.075 697.685 328.943 697.209 328.943C696.717 328.943 696.303 329.082 695.966 329.361C695.636 329.64 695.412 330.028 695.295 330.527L694.492 330.351C694.587 329.904 694.759 329.519 695.009 329.196C695.258 328.873 695.57 328.624 695.944 328.448C696.318 328.265 696.736 328.173 697.198 328.173C697.689 328.173 698.118 328.272 698.485 328.47C698.851 328.668 699.137 328.939 699.343 329.284C699.555 329.629 699.662 330.025 699.662 330.472C699.662 330.78 699.596 331.077 699.464 331.363C699.339 331.649 699.148 331.957 698.892 332.287C698.635 332.617 698.305 333.002 697.902 333.442L695.823 335.73H699.882V336.5H694.558ZM704.528 336.632C703.883 336.632 703.315 336.456 702.823 336.104C702.339 335.745 701.962 335.25 701.69 334.619C701.419 333.981 701.283 333.24 701.283 332.397C701.283 331.554 701.419 330.817 701.69 330.186C701.962 329.548 702.339 329.053 702.823 328.701C703.307 328.349 703.872 328.173 704.517 328.173C705.163 328.173 705.727 328.349 706.211 328.701C706.695 329.053 707.073 329.548 707.344 330.186C707.616 330.817 707.751 331.554 707.751 332.397C707.751 333.24 707.616 333.981 707.344 334.619C707.08 335.257 706.706 335.752 706.222 336.104C705.738 336.456 705.174 336.632 704.528 336.632ZM704.528 335.807C704.998 335.807 705.408 335.664 705.76 335.378C706.112 335.092 706.387 334.696 706.585 334.19C706.783 333.677 706.882 333.079 706.882 332.397C706.882 331.715 706.783 331.121 706.585 330.615C706.387 330.102 706.112 329.706 705.76 329.427C705.408 329.141 704.994 328.998 704.517 328.998C704.048 328.998 703.637 329.141 703.285 329.427C702.933 329.706 702.658 330.102 702.46 330.615C702.262 331.121 702.163 331.715 702.163 332.397C702.163 333.072 702.262 333.666 702.46 334.179C702.658 334.692 702.933 335.092 703.285 335.378C703.645 335.664 704.059 335.807 704.528 335.807ZM710.515 336.5V329.075H708.975V328.305H711.395V336.5H710.515ZM714.177 336.5L717.026 332.771L717.191 332.672C717.081 332.848 716.952 332.987 716.806 333.09C716.659 333.193 716.498 333.266 716.322 333.31C716.146 333.354 715.951 333.376 715.739 333.376C715.262 333.376 714.833 333.266 714.452 333.046C714.07 332.819 713.766 332.511 713.539 332.122C713.319 331.726 713.209 331.275 713.209 330.769C713.209 330.27 713.322 329.827 713.55 329.438C713.784 329.049 714.1 328.741 714.496 328.514C714.899 328.287 715.35 328.173 715.849 328.173C716.362 328.173 716.817 328.29 717.213 328.525C717.609 328.752 717.92 329.071 718.148 329.482C718.375 329.885 718.489 330.351 718.489 330.879C718.489 331.172 718.452 331.462 718.379 331.748C718.313 332.034 718.21 332.316 718.071 332.595C717.931 332.874 717.755 333.152 717.543 333.431L715.233 336.5H714.177ZM715.849 332.584C716.193 332.584 716.498 332.507 716.762 332.353C717.026 332.192 717.231 331.975 717.378 331.704C717.532 331.425 717.609 331.114 717.609 330.769C717.609 330.417 717.532 330.105 717.378 329.834C717.224 329.555 717.015 329.339 716.751 329.185C716.487 329.024 716.186 328.943 715.849 328.943C715.511 328.943 715.211 329.024 714.947 329.185C714.683 329.339 714.474 329.555 714.32 329.834C714.166 330.105 714.089 330.417 714.089 330.769C714.089 331.114 714.162 331.425 714.309 331.704C714.463 331.975 714.672 332.192 714.936 332.353C715.207 332.507 715.511 332.584 715.849 332.584Z" fill="#84919F"/>
<path d="M807.511 336.5V335.95L809.799 333.431C810.246 332.94 810.609 332.533 810.888 332.21C811.174 331.887 811.387 331.594 811.526 331.33C811.665 331.066 811.735 330.78 811.735 330.472C811.735 329.981 811.592 329.603 811.306 329.339C811.02 329.075 810.639 328.943 810.162 328.943C809.671 328.943 809.256 329.082 808.919 329.361C808.589 329.64 808.365 330.028 808.248 330.527L807.445 330.351C807.54 329.904 807.713 329.519 807.962 329.196C808.211 328.873 808.523 328.624 808.897 328.448C809.271 328.265 809.689 328.173 810.151 328.173C810.642 328.173 811.071 328.272 811.438 328.47C811.805 328.668 812.091 328.939 812.296 329.284C812.509 329.629 812.615 330.025 812.615 330.472C812.615 330.78 812.549 331.077 812.417 331.363C812.292 331.649 812.102 331.957 811.845 332.287C811.588 332.617 811.258 333.002 810.855 333.442L808.776 335.73H812.835V336.5H807.511ZM817.481 336.632C816.836 336.632 816.268 336.456 815.776 336.104C815.292 335.745 814.915 335.25 814.643 334.619C814.372 333.981 814.236 333.24 814.236 332.397C814.236 331.554 814.372 330.817 814.643 330.186C814.915 329.548 815.292 329.053 815.776 328.701C816.26 328.349 816.825 328.173 817.47 328.173C818.116 328.173 818.68 328.349 819.164 328.701C819.648 329.053 820.026 329.548 820.297 330.186C820.569 330.817 820.704 331.554 820.704 332.397C820.704 333.24 820.569 333.981 820.297 334.619C820.033 335.257 819.659 335.752 819.175 336.104C818.691 336.456 818.127 336.632 817.481 336.632ZM817.481 335.807C817.951 335.807 818.361 335.664 818.713 335.378C819.065 335.092 819.34 334.696 819.538 334.19C819.736 333.677 819.835 333.079 819.835 332.397C819.835 331.715 819.736 331.121 819.538 330.615C819.34 330.102 819.065 329.706 818.713 329.427C818.361 329.141 817.947 328.998 817.47 328.998C817.001 328.998 816.59 329.141 816.238 329.427C815.886 329.706 815.611 330.102 815.413 330.615C815.215 331.121 815.116 331.715 815.116 332.397C815.116 333.072 815.215 333.666 815.413 334.179C815.611 334.692 815.886 335.092 816.238 335.378C816.598 335.664 817.012 335.807 817.481 335.807ZM822.115 336.5V335.95L824.403 333.431C824.85 332.94 825.213 332.533 825.492 332.21C825.778 331.887 825.99 331.594 826.13 331.33C826.269 331.066 826.339 330.78 826.339 330.472C826.339 329.981 826.196 329.603 825.91 329.339C825.624 329.075 825.242 328.943 824.766 328.943C824.274 328.943 823.86 329.082 823.523 329.361C823.193 329.64 822.969 330.028 822.852 330.527L822.049 330.351C822.144 329.904 822.316 329.519 822.566 329.196C822.815 328.873 823.127 328.624 823.501 328.448C823.875 328.265 824.293 328.173 824.755 328.173C825.246 328.173 825.675 328.272 826.042 328.47C826.408 328.668 826.694 328.939 826.9 329.284C827.112 329.629 827.219 330.025 827.219 330.472C827.219 330.78 827.153 331.077 827.021 331.363C826.896 331.649 826.705 331.957 826.449 332.287C826.192 332.617 825.862 333.002 825.459 333.442L823.38 335.73H827.439V336.5H822.115ZM832.085 336.632C831.44 336.632 830.872 336.456 830.38 336.104C829.896 335.745 829.519 335.25 829.247 334.619C828.976 333.981 828.84 333.24 828.84 332.397C828.84 331.554 828.976 330.817 829.247 330.186C829.519 329.548 829.896 329.053 830.38 328.701C830.864 328.349 831.429 328.173 832.074 328.173C832.72 328.173 833.284 328.349 833.768 328.701C834.252 329.053 834.63 329.548 834.901 330.186C835.173 330.817 835.308 331.554 835.308 332.397C835.308 333.24 835.173 333.981 834.901 334.619C834.637 335.257 834.263 335.752 833.779 336.104C833.295 336.456 832.731 336.632 832.085 336.632ZM832.085 335.807C832.555 335.807 832.965 335.664 833.317 335.378C833.669 335.092 833.944 334.696 834.142 334.19C834.34 333.677 834.439 333.079 834.439 332.397C834.439 331.715 834.34 331.121 834.142 330.615C833.944 330.102 833.669 329.706 833.317 329.427C832.965 329.141 832.551 328.998 832.074 328.998C831.605 328.998 831.194 329.141 830.842 329.427C830.49 329.706 830.215 330.102 830.017 330.615C829.819 331.121 829.72 331.715 829.72 332.397C829.72 333.072 829.819 333.666 830.017 334.179C830.215 334.692 830.49 335.092 830.842 335.378C831.202 335.664 831.616 335.807 832.085 335.807Z" fill="#84919F"/>
<path d="M924.455 336.5V335.95L926.743 333.431C927.19 332.94 927.553 332.533 927.832 332.21C928.118 331.887 928.33 331.594 928.47 331.33C928.609 331.066 928.679 330.78 928.679 330.472C928.679 329.981 928.536 329.603 928.25 329.339C927.964 329.075 927.582 328.943 927.106 328.943C926.614 328.943 926.2 329.082 925.863 329.361C925.533 329.64 925.309 330.028 925.192 330.527L924.389 330.351C924.484 329.904 924.656 329.519 924.906 329.196C925.155 328.873 925.467 328.624 925.841 328.448C926.215 328.265 926.633 328.173 927.095 328.173C927.586 328.173 928.015 328.272 928.382 328.47C928.748 328.668 929.034 328.939 929.24 329.284C929.452 329.629 929.559 330.025 929.559 330.472C929.559 330.78 929.493 331.077 929.361 331.363C929.236 331.649 929.045 331.957 928.789 332.287C928.532 332.617 928.202 333.002 927.799 333.442L925.72 335.73H929.779V336.5H924.455ZM934.425 336.632C933.78 336.632 933.211 336.456 932.72 336.104C932.236 335.745 931.858 335.25 931.587 334.619C931.316 333.981 931.18 333.24 931.18 332.397C931.18 331.554 931.316 330.817 931.587 330.186C931.858 329.548 932.236 329.053 932.72 328.701C933.204 328.349 933.769 328.173 934.414 328.173C935.059 328.173 935.624 328.349 936.108 328.701C936.592 329.053 936.97 329.548 937.241 330.186C937.512 330.817 937.648 331.554 937.648 332.397C937.648 333.24 937.512 333.981 937.241 334.619C936.977 335.257 936.603 335.752 936.119 336.104C935.635 336.456 935.07 336.632 934.425 336.632ZM934.425 335.807C934.894 335.807 935.305 335.664 935.657 335.378C936.009 335.092 936.284 334.696 936.482 334.19C936.68 333.677 936.779 333.079 936.779 332.397C936.779 331.715 936.68 331.121 936.482 330.615C936.284 330.102 936.009 329.706 935.657 329.427C935.305 329.141 934.891 328.998 934.414 328.998C933.945 328.998 933.534 329.141 933.182 329.427C932.83 329.706 932.555 330.102 932.357 330.615C932.159 331.121 932.06 331.715 932.06 332.397C932.06 333.072 932.159 333.666 932.357 334.179C932.555 334.692 932.83 335.092 933.182 335.378C933.541 335.664 933.956 335.807 934.425 335.807ZM939.059 336.5V335.95L941.347 333.431C941.794 332.94 942.157 332.533 942.436 332.21C942.722 331.887 942.934 331.594 943.074 331.33C943.213 331.066 943.283 330.78 943.283 330.472C943.283 329.981 943.14 329.603 942.854 329.339C942.568 329.075 942.186 328.943 941.71 328.943C941.218 328.943 940.804 329.082 940.467 329.361C940.137 329.64 939.913 330.028 939.796 330.527L938.993 330.351C939.088 329.904 939.26 329.519 939.51 329.196C939.759 328.873 940.071 328.624 940.445 328.448C940.819 328.265 941.237 328.173 941.699 328.173C942.19 328.173 942.619 328.272 942.986 328.47C943.352 328.668 943.638 328.939 943.844 329.284C944.056 329.629 944.163 330.025 944.163 330.472C944.163 330.78 944.097 331.077 943.965 331.363C943.84 331.649 943.649 331.957 943.393 332.287C943.136 332.617 942.806 333.002 942.403 333.442L940.324 335.73H944.383V336.5H939.059ZM946.983 336.5V329.075H945.443V328.305H947.863V336.5H946.983Z" fill="#84919F"/>
<path d="M1038.15 336.5V335.95L1040.44 333.431C1040.89 332.94 1041.25 332.533 1041.53 332.21C1041.82 331.887 1042.03 331.594 1042.17 331.33C1042.31 331.066 1042.38 330.78 1042.38 330.472C1042.38 329.981 1042.24 329.603 1041.95 329.339C1041.66 329.075 1041.28 328.943 1040.81 328.943C1040.31 328.943 1039.9 329.082 1039.56 329.361C1039.23 329.64 1039.01 330.028 1038.89 330.527L1038.09 330.351C1038.18 329.904 1038.36 329.519 1038.61 329.196C1038.85 328.873 1039.17 328.624 1039.54 328.448C1039.91 328.265 1040.33 328.173 1040.79 328.173C1041.29 328.173 1041.71 328.272 1042.08 328.47C1042.45 328.668 1042.73 328.939 1042.94 329.284C1043.15 329.629 1043.26 330.025 1043.26 330.472C1043.26 330.78 1043.19 331.077 1043.06 331.363C1042.94 331.649 1042.74 331.957 1042.49 332.287C1042.23 332.617 1041.9 333.002 1041.5 333.442L1039.42 335.73H1043.48V336.5H1038.15ZM1048.12 336.632C1047.48 336.632 1046.91 336.456 1046.42 336.104C1045.94 335.745 1045.56 335.25 1045.29 334.619C1045.02 333.981 1044.88 333.24 1044.88 332.397C1044.88 331.554 1045.02 330.817 1045.29 330.186C1045.56 329.548 1045.94 329.053 1046.42 328.701C1046.9 328.349 1047.47 328.173 1048.11 328.173C1048.76 328.173 1049.32 328.349 1049.81 328.701C1050.29 329.053 1050.67 329.548 1050.94 330.186C1051.21 330.817 1051.35 331.554 1051.35 332.397C1051.35 333.24 1051.21 333.981 1050.94 334.619C1050.68 335.257 1050.3 335.752 1049.82 336.104C1049.33 336.456 1048.77 336.632 1048.12 336.632ZM1048.12 335.807C1048.59 335.807 1049 335.664 1049.36 335.378C1049.71 335.092 1049.98 334.696 1050.18 334.19C1050.38 333.677 1050.48 333.079 1050.48 332.397C1050.48 331.715 1050.38 331.121 1050.18 330.615C1049.98 330.102 1049.71 329.706 1049.36 329.427C1049 329.141 1048.59 328.998 1048.11 328.998C1047.64 328.998 1047.23 329.141 1046.88 329.427C1046.53 329.706 1046.25 330.102 1046.06 330.615C1045.86 331.121 1045.76 331.715 1045.76 332.397C1045.76 333.072 1045.86 333.666 1046.06 334.179C1046.25 334.692 1046.53 335.092 1046.88 335.378C1047.24 335.664 1047.66 335.807 1048.12 335.807ZM1052.76 336.5V335.95L1055.05 333.431C1055.49 332.94 1055.86 332.533 1056.14 332.21C1056.42 331.887 1056.63 331.594 1056.77 331.33C1056.91 331.066 1056.98 330.78 1056.98 330.472C1056.98 329.981 1056.84 329.603 1056.55 329.339C1056.27 329.075 1055.89 328.943 1055.41 328.943C1054.92 328.943 1054.5 329.082 1054.17 329.361C1053.84 329.64 1053.61 330.028 1053.5 330.527L1052.69 330.351C1052.79 329.904 1052.96 329.519 1053.21 329.196C1053.46 328.873 1053.77 328.624 1054.14 328.448C1054.52 328.265 1054.94 328.173 1055.4 328.173C1055.89 328.173 1056.32 328.272 1056.69 328.47C1057.05 328.668 1057.34 328.939 1057.54 329.284C1057.76 329.629 1057.86 330.025 1057.86 330.472C1057.86 330.78 1057.8 331.077 1057.66 331.363C1057.54 331.649 1057.35 331.957 1057.09 332.287C1056.84 332.617 1056.51 333.002 1056.1 333.442L1054.02 335.73H1058.08V336.5H1052.76ZM1059.33 336.5V335.95L1061.62 333.431C1062.07 332.94 1062.43 332.533 1062.71 332.21C1062.99 331.887 1063.21 331.594 1063.34 331.33C1063.48 331.066 1063.55 330.78 1063.55 330.472C1063.55 329.981 1063.41 329.603 1063.12 329.339C1062.84 329.075 1062.46 328.943 1061.98 328.943C1061.49 328.943 1061.08 329.082 1060.74 329.361C1060.41 329.64 1060.18 330.028 1060.07 330.527L1059.26 330.351C1059.36 329.904 1059.53 329.519 1059.78 329.196C1060.03 328.873 1060.34 328.624 1060.72 328.448C1061.09 328.265 1061.51 328.173 1061.97 328.173C1062.46 328.173 1062.89 328.272 1063.26 328.47C1063.62 328.668 1063.91 328.939 1064.11 329.284C1064.33 329.629 1064.43 330.025 1064.43 330.472C1064.43 330.78 1064.37 331.077 1064.24 331.363C1064.11 331.649 1063.92 331.957 1063.66 332.287C1063.41 332.617 1063.08 333.002 1062.67 333.442L1060.59 335.73H1064.65V336.5H1059.33Z" fill="#84919F"/>
<path d="M1153.06 336.5V335.95L1155.35 333.431C1155.79 332.94 1156.16 332.533 1156.43 332.21C1156.72 331.887 1156.93 331.594 1157.07 331.33C1157.21 331.066 1157.28 330.78 1157.28 330.472C1157.28 329.981 1157.14 329.603 1156.85 329.339C1156.57 329.075 1156.18 328.943 1155.71 328.943C1155.22 328.943 1154.8 329.082 1154.47 329.361C1154.14 329.64 1153.91 330.028 1153.79 330.527L1152.99 330.351C1153.09 329.904 1153.26 329.519 1153.51 329.196C1153.76 328.873 1154.07 328.624 1154.44 328.448C1154.82 328.265 1155.24 328.173 1155.7 328.173C1156.19 328.173 1156.62 328.272 1156.98 328.47C1157.35 328.668 1157.64 328.939 1157.84 329.284C1158.05 329.629 1158.16 330.025 1158.16 330.472C1158.16 330.78 1158.1 331.077 1157.96 331.363C1157.84 331.649 1157.65 331.957 1157.39 332.287C1157.13 332.617 1156.8 333.002 1156.4 333.442L1154.32 335.73H1158.38V336.5H1153.06ZM1163.03 336.632C1162.38 336.632 1161.81 336.456 1161.32 336.104C1160.84 335.745 1160.46 335.25 1160.19 334.619C1159.92 333.981 1159.78 333.24 1159.78 332.397C1159.78 331.554 1159.92 330.817 1160.19 330.186C1160.46 329.548 1160.84 329.053 1161.32 328.701C1161.81 328.349 1162.37 328.173 1163.02 328.173C1163.66 328.173 1164.23 328.349 1164.71 328.701C1165.19 329.053 1165.57 329.548 1165.84 330.186C1166.11 330.817 1166.25 331.554 1166.25 332.397C1166.25 333.24 1166.11 333.981 1165.84 334.619C1165.58 335.257 1165.21 335.752 1164.72 336.104C1164.24 336.456 1163.67 336.632 1163.03 336.632ZM1163.03 335.807C1163.5 335.807 1163.91 335.664 1164.26 335.378C1164.61 335.092 1164.89 334.696 1165.08 334.19C1165.28 333.677 1165.38 333.079 1165.38 332.397C1165.38 331.715 1165.28 331.121 1165.08 330.615C1164.89 330.102 1164.61 329.706 1164.26 329.427C1163.91 329.141 1163.49 328.998 1163.02 328.998C1162.55 328.998 1162.14 329.141 1161.78 329.427C1161.43 329.706 1161.16 330.102 1160.96 330.615C1160.76 331.121 1160.66 331.715 1160.66 332.397C1160.66 333.072 1160.76 333.666 1160.96 334.179C1161.16 334.692 1161.43 335.092 1161.78 335.378C1162.14 335.664 1162.56 335.807 1163.03 335.807ZM1167.66 336.5V335.95L1169.95 333.431C1170.4 332.94 1170.76 332.533 1171.04 332.21C1171.32 331.887 1171.54 331.594 1171.68 331.33C1171.82 331.066 1171.88 330.78 1171.88 330.472C1171.88 329.981 1171.74 329.603 1171.46 329.339C1171.17 329.075 1170.79 328.943 1170.31 328.943C1169.82 328.943 1169.41 329.082 1169.07 329.361C1168.74 329.64 1168.52 330.028 1168.4 330.527L1167.59 330.351C1167.69 329.904 1167.86 329.519 1168.11 329.196C1168.36 328.873 1168.67 328.624 1169.05 328.448C1169.42 328.265 1169.84 328.173 1170.3 328.173C1170.79 328.173 1171.22 328.272 1171.59 328.47C1171.95 328.668 1172.24 328.939 1172.45 329.284C1172.66 329.629 1172.76 330.025 1172.76 330.472C1172.76 330.78 1172.7 331.077 1172.57 331.363C1172.44 331.649 1172.25 331.957 1171.99 332.287C1171.74 332.617 1171.41 333.002 1171 333.442L1168.93 335.73H1172.98V336.5H1167.66ZM1176.83 336.632C1176.4 336.632 1176.01 336.559 1175.65 336.412C1175.29 336.265 1174.98 336.056 1174.71 335.785C1174.44 335.514 1174.24 335.191 1174.1 334.817L1174.8 334.487C1174.97 334.912 1175.24 335.25 1175.6 335.499C1175.96 335.741 1176.37 335.862 1176.83 335.862C1177.2 335.862 1177.52 335.792 1177.81 335.653C1178.09 335.506 1178.32 335.297 1178.48 335.026C1178.64 334.755 1178.72 334.425 1178.72 334.036C1178.72 333.647 1178.64 333.317 1178.47 333.046C1178.31 332.775 1178.08 332.569 1177.8 332.43C1177.51 332.291 1177.18 332.221 1176.82 332.221C1176.72 332.221 1176.62 332.225 1176.5 332.232C1176.39 332.239 1176.3 332.25 1176.22 332.265L1176.05 331.88L1178.26 329.075H1174.49V328.305H1179.25V329.075L1177.18 331.682L1177.07 331.539C1177.56 331.554 1178 331.671 1178.38 331.891C1178.76 332.104 1179.06 332.393 1179.27 332.76C1179.49 333.127 1179.6 333.552 1179.6 334.036C1179.6 334.52 1179.48 334.96 1179.25 335.356C1179.01 335.745 1178.69 336.056 1178.27 336.291C1177.85 336.518 1177.37 336.632 1176.83 336.632Z" fill="#84919F"/>
<path d="M1271.98 336.5V335.95L1274.27 333.431C1274.72 332.94 1275.08 332.533 1275.36 332.21C1275.64 331.887 1275.86 331.594 1276 331.33C1276.14 331.066 1276.21 330.78 1276.21 330.472C1276.21 329.981 1276.06 329.603 1275.78 329.339C1275.49 329.075 1275.11 328.943 1274.63 328.943C1274.14 328.943 1273.73 329.082 1273.39 329.361C1273.06 329.64 1272.84 330.028 1272.72 330.527L1271.92 330.351C1272.01 329.904 1272.18 329.519 1272.43 329.196C1272.68 328.873 1272.99 328.624 1273.37 328.448C1273.74 328.265 1274.16 328.173 1274.62 328.173C1275.11 328.173 1275.54 328.272 1275.91 328.47C1276.28 328.668 1276.56 328.939 1276.77 329.284C1276.98 329.629 1277.09 330.025 1277.09 330.472C1277.09 330.78 1277.02 331.077 1276.89 331.363C1276.76 331.649 1276.57 331.957 1276.32 332.287C1276.06 332.617 1275.73 333.002 1275.33 333.442L1273.25 335.73H1277.31V336.5H1271.98ZM1281.95 336.632C1281.31 336.632 1280.74 336.456 1280.25 336.104C1279.76 335.745 1279.39 335.25 1279.11 334.619C1278.84 333.981 1278.71 333.24 1278.71 332.397C1278.71 331.554 1278.84 330.817 1279.11 330.186C1279.39 329.548 1279.76 329.053 1280.25 328.701C1280.73 328.349 1281.3 328.173 1281.94 328.173C1282.59 328.173 1283.15 328.349 1283.64 328.701C1284.12 329.053 1284.5 329.548 1284.77 330.186C1285.04 330.817 1285.18 331.554 1285.18 332.397C1285.18 333.24 1285.04 333.981 1284.77 334.619C1284.5 335.257 1284.13 335.752 1283.65 336.104C1283.16 336.456 1282.6 336.632 1281.95 336.632ZM1281.95 335.807C1282.42 335.807 1282.83 335.664 1283.18 335.378C1283.54 335.092 1283.81 334.696 1284.01 334.19C1284.21 333.677 1284.31 333.079 1284.31 332.397C1284.31 331.715 1284.21 331.121 1284.01 330.615C1283.81 330.102 1283.54 329.706 1283.18 329.427C1282.83 329.141 1282.42 328.998 1281.94 328.998C1281.47 328.998 1281.06 329.141 1280.71 329.427C1280.36 329.706 1280.08 330.102 1279.88 330.615C1279.69 331.121 1279.59 331.715 1279.59 332.397C1279.59 333.072 1279.69 333.666 1279.88 334.179C1280.08 334.692 1280.36 335.092 1280.71 335.378C1281.07 335.664 1281.48 335.807 1281.95 335.807ZM1286.59 336.5V335.95L1288.87 333.431C1289.32 332.94 1289.68 332.533 1289.96 332.21C1290.25 331.887 1290.46 331.594 1290.6 331.33C1290.74 331.066 1290.81 330.78 1290.81 330.472C1290.81 329.981 1290.67 329.603 1290.38 329.339C1290.09 329.075 1289.71 328.943 1289.24 328.943C1288.75 328.943 1288.33 329.082 1287.99 329.361C1287.66 329.64 1287.44 330.028 1287.32 330.527L1286.52 330.351C1286.62 329.904 1286.79 329.519 1287.04 329.196C1287.29 328.873 1287.6 328.624 1287.97 328.448C1288.35 328.265 1288.76 328.173 1289.23 328.173C1289.72 328.173 1290.15 328.272 1290.51 328.47C1290.88 328.668 1291.17 328.939 1291.37 329.284C1291.58 329.629 1291.69 330.025 1291.69 330.472C1291.69 330.78 1291.62 331.077 1291.49 331.363C1291.37 331.649 1291.18 331.957 1290.92 332.287C1290.66 332.617 1290.33 333.002 1289.93 333.442L1287.85 335.73H1291.91V336.5H1286.59ZM1297.09 336.5V334.564H1292.92V333.849L1297.09 328.305H1297.86V333.849H1298.86V334.564H1297.86V336.5H1297.09ZM1293.59 334.168L1293.49 333.849H1297.09V329.064L1297.36 329.141L1293.59 334.168Z" fill="#84919F"/>
<path d="M36.1779 239.632C35.6572 239.632 35.1842 239.533 34.7589 239.335C34.3335 239.137 33.9742 238.873 33.6809 238.543C33.3875 238.206 33.1785 237.835 33.0539 237.432L33.8459 237.135C34.0365 237.692 34.3335 238.118 34.7369 238.411C35.1402 238.697 35.6205 238.84 36.1779 238.84C36.5299 238.84 36.8379 238.785 37.1019 238.675C37.3732 238.558 37.5822 238.396 37.7289 238.191C37.8755 237.986 37.9489 237.747 37.9489 237.476C37.9489 237.073 37.8389 236.761 37.6189 236.541C37.3989 236.321 37.0835 236.152 36.6729 236.035L35.1989 235.595C34.6195 235.426 34.1722 235.144 33.8569 234.748C33.5489 234.352 33.3949 233.901 33.3949 233.395C33.3949 232.962 33.5012 232.581 33.7139 232.251C33.9265 231.914 34.2162 231.65 34.5829 231.459C34.9569 231.268 35.3785 231.173 35.8479 231.173C36.3392 231.173 36.7792 231.265 37.1679 231.448C37.5639 231.624 37.8975 231.859 38.1689 232.152C38.4402 232.445 38.6345 232.772 38.7519 233.131L37.9819 233.439C37.8059 232.955 37.5309 232.588 37.1569 232.339C36.7902 232.09 36.3575 231.965 35.8589 231.965C35.5435 231.965 35.2649 232.02 35.0229 232.13C34.7882 232.24 34.6049 232.398 34.4729 232.603C34.3409 232.808 34.2749 233.05 34.2749 233.329C34.2749 233.666 34.3812 233.971 34.5939 234.242C34.8065 234.506 35.1329 234.704 35.5729 234.836L36.8709 235.221C37.5162 235.412 38.0039 235.687 38.3339 236.046C38.6639 236.405 38.8289 236.856 38.8289 237.399C38.8289 237.839 38.7152 238.228 38.4879 238.565C38.2679 238.895 37.9562 239.155 37.5529 239.346C37.1569 239.537 36.6985 239.632 36.1779 239.632ZM35.7049 240.6V230.205H36.4749V240.6H35.7049ZM42.77 239.632C42.3447 239.632 41.9523 239.559 41.593 239.412C41.2337 239.265 40.9183 239.056 40.647 238.785C40.383 238.514 40.1813 238.191 40.042 237.817L40.746 237.487C40.9147 237.912 41.1787 238.25 41.538 238.499C41.8973 238.741 42.308 238.862 42.77 238.862C43.1367 238.862 43.463 238.792 43.749 238.653C44.035 238.506 44.2587 238.297 44.42 238.026C44.5813 237.755 44.662 237.425 44.662 237.036C44.662 236.647 44.5777 236.317 44.409 236.046C44.2477 235.775 44.024 235.569 43.738 235.43C43.452 235.291 43.1257 235.221 42.759 235.221C42.6637 235.221 42.5573 235.225 42.44 235.232C42.33 235.239 42.2383 235.25 42.165 235.265L41.989 234.88L44.2 232.075H40.427V231.305H45.19V232.075L43.122 234.682L43.012 234.539C43.5033 234.554 43.9397 234.671 44.321 234.891C44.7023 235.104 44.9993 235.393 45.212 235.76C45.432 236.127 45.542 236.552 45.542 237.036C45.542 237.52 45.4247 237.96 45.19 238.356C44.9553 238.745 44.629 239.056 44.211 239.291C43.793 239.518 43.3127 239.632 42.77 239.632ZM50.2519 239.632C49.6066 239.632 49.0382 239.456 48.5469 239.104C48.0629 238.745 47.6852 238.25 47.4139 237.619C47.1426 236.981 47.0069 236.24 47.0069 235.397C47.0069 234.554 47.1426 233.817 47.4139 233.186C47.6852 232.548 48.0629 232.053 48.5469 231.701C49.0309 231.349 49.5956 231.173 50.2409 231.173C50.8862 231.173 51.4509 231.349 51.9349 231.701C52.4189 232.053 52.7966 232.548 53.0679 233.186C53.3392 233.817 53.4749 234.554 53.4749 235.397C53.4749 236.24 53.3392 236.981 53.0679 237.619C52.8039 238.257 52.4299 238.752 51.9459 239.104C51.4619 239.456 50.8972 239.632 50.2519 239.632ZM50.2519 238.807C50.7212 238.807 51.1319 238.664 51.4839 238.378C51.8359 238.092 52.1109 237.696 52.3089 237.19C52.5069 236.677 52.6059 236.079 52.6059 235.397C52.6059 234.715 52.5069 234.121 52.3089 233.615C52.1109 233.102 51.8359 232.706 51.4839 232.427C51.1319 232.141 50.7176 231.998 50.2409 231.998C49.7716 231.998 49.3609 232.141 49.0089 232.427C48.6569 232.706 48.3819 233.102 48.1839 233.615C47.9859 234.121 47.8869 234.715 47.8869 235.397C47.8869 236.072 47.9859 236.666 48.1839 237.179C48.3819 237.692 48.6569 238.092 49.0089 238.378C49.3682 238.664 49.7826 238.807 50.2519 238.807ZM55.2154 239.5V231.305H58.6584C59.1204 231.305 59.52 231.393 59.8574 231.569C60.202 231.738 60.466 231.976 60.6494 232.284C60.84 232.592 60.9354 232.951 60.9354 233.362C60.9354 233.787 60.829 234.165 60.6164 234.495C60.411 234.818 60.114 235.063 59.7254 235.232L59.7144 234.968C60.037 235.085 60.312 235.25 60.5394 235.463C60.774 235.676 60.9537 235.925 61.0784 236.211C61.203 236.49 61.2654 236.79 61.2654 237.113C61.2654 237.846 61.0307 238.429 60.5614 238.862C60.0994 239.287 59.4687 239.5 58.6694 239.5H55.2154ZM56.0954 238.675H58.6694C59.19 238.675 59.6044 238.539 59.9124 238.268C60.2277 237.989 60.3854 237.608 60.3854 237.124C60.3854 236.647 60.2277 236.27 59.9124 235.991C59.6044 235.705 59.19 235.562 58.6694 235.562H56.0954V238.675ZM56.0954 234.77H58.5924C59.0324 234.77 59.3844 234.642 59.6484 234.385C59.9197 234.128 60.0554 233.798 60.0554 233.395C60.0554 232.984 59.9197 232.673 59.6484 232.46C59.3844 232.24 59.0324 232.13 58.5924 232.13H56.0954V234.77Z" fill="#84919F"/>
<path d="M36.3174 63.632C35.7967 63.632 35.3237 63.533 34.8984 63.335C34.473 63.137 34.1137 62.873 33.8204 62.543C33.527 62.2057 33.318 61.8353 33.1934 61.432L33.9854 61.135C34.176 61.6923 34.473 62.1177 34.8764 62.411C35.2797 62.697 35.76 62.84 36.3174 62.84C36.6694 62.84 36.9774 62.785 37.2414 62.675C37.5127 62.5577 37.7217 62.3963 37.8684 62.191C38.015 61.9857 38.0884 61.7473 38.0884 61.476C38.0884 61.0727 37.9784 60.761 37.7584 60.541C37.5384 60.321 37.223 60.1523 36.8124 60.035L35.3384 59.595C34.759 59.4263 34.3117 59.144 33.9964 58.748C33.6884 58.352 33.5344 57.901 33.5344 57.395C33.5344 56.9623 33.6407 56.581 33.8534 56.251C34.066 55.9137 34.3557 55.6497 34.7224 55.459C35.0964 55.2683 35.518 55.173 35.9874 55.173C36.4787 55.173 36.9187 55.2647 37.3074 55.448C37.7034 55.624 38.037 55.8587 38.3084 56.152C38.5797 56.4453 38.774 56.7717 38.8914 57.131L38.1214 57.439C37.9454 56.955 37.6704 56.5883 37.2964 56.339C36.9297 56.0897 36.497 55.965 35.9984 55.965C35.683 55.965 35.4044 56.02 35.1624 56.13C34.9277 56.24 34.7444 56.3977 34.6124 56.603C34.4804 56.8083 34.4144 57.0503 34.4144 57.329C34.4144 57.6663 34.5207 57.9707 34.7334 58.242C34.946 58.506 35.2724 58.704 35.7124 58.836L37.0104 59.221C37.6557 59.4117 38.1434 59.6867 38.4734 60.046C38.8034 60.4053 38.9684 60.8563 38.9684 61.399C38.9684 61.839 38.8547 62.2277 38.6274 62.565C38.4074 62.895 38.0957 63.1553 37.6924 63.346C37.2964 63.5367 36.838 63.632 36.3174 63.632ZM35.8444 64.6V54.205H36.6144V64.6H35.8444ZM42.9755 63.632C42.4621 63.632 42.0075 63.5183 41.6115 63.291C41.2155 63.0563 40.9038 62.7373 40.6765 62.334C40.4491 61.9233 40.3355 61.454 40.3355 60.926C40.3355 60.6327 40.3685 60.343 40.4345 60.057C40.5078 59.771 40.6141 59.4887 40.7535 59.21C40.9001 58.9313 41.0761 58.6527 41.2815 58.374L43.5915 55.305H44.6475L41.7985 59.034L41.6335 59.133C41.7435 58.9497 41.8718 58.8103 42.0185 58.715C42.1651 58.6123 42.3265 58.539 42.5025 58.495C42.6858 58.451 42.8801 58.429 43.0855 58.429C43.5621 58.429 43.9911 58.5427 44.3725 58.77C44.7538 58.99 45.0545 59.2943 45.2745 59.683C45.5018 60.0717 45.6155 60.5227 45.6155 61.036C45.6155 61.5273 45.4981 61.971 45.2635 62.367C45.0361 62.7557 44.7245 63.0637 44.3285 63.291C43.9325 63.5183 43.4815 63.632 42.9755 63.632ZM42.9755 62.862C43.3128 62.862 43.6135 62.785 43.8775 62.631C44.1415 62.4697 44.3505 62.2497 44.5045 61.971C44.6585 61.6923 44.7355 61.3807 44.7355 61.036C44.7355 60.684 44.6585 60.3723 44.5045 60.101C44.3578 59.8297 44.1525 59.617 43.8885 59.463C43.6245 59.3017 43.3201 59.221 42.9755 59.221C42.6381 59.221 42.3338 59.3017 42.0625 59.463C41.7985 59.617 41.5895 59.8297 41.4355 60.101C41.2888 60.3723 41.2155 60.684 41.2155 61.036C41.2155 61.3807 41.2925 61.6923 41.4465 61.971C41.6005 62.2497 41.8095 62.4697 42.0735 62.631C42.3375 62.785 42.6381 62.862 42.9755 62.862ZM50.2518 63.632C49.6064 63.632 49.0381 63.456 48.5468 63.104C48.0628 62.7447 47.6851 62.2497 47.4138 61.619C47.1424 60.981 47.0068 60.2403 47.0068 59.397C47.0068 58.5537 47.1424 57.8167 47.4138 57.186C47.6851 56.548 48.0628 56.053 48.5468 55.701C49.0308 55.349 49.5954 55.173 50.2408 55.173C50.8861 55.173 51.4508 55.349 51.9348 55.701C52.4188 56.053 52.7964 56.548 53.0678 57.186C53.3391 57.8167 53.4748 58.5537 53.4748 59.397C53.4748 60.2403 53.3391 60.981 53.0678 61.619C52.8038 62.257 52.4298 62.752 51.9458 63.104C51.4618 63.456 50.8971 63.632 50.2518 63.632ZM50.2518 62.807C50.7211 62.807 51.1318 62.664 51.4838 62.378C51.8358 62.092 52.1108 61.696 52.3088 61.19C52.5068 60.6767 52.6058 60.079 52.6058 59.397C52.6058 58.715 52.5068 58.121 52.3088 57.615C52.1108 57.1017 51.8358 56.7057 51.4838 56.427C51.1318 56.141 50.7174 55.998 50.2408 55.998C49.7714 55.998 49.3608 56.141 49.0088 56.427C48.6568 56.7057 48.3818 57.1017 48.1838 57.615C47.9858 58.121 47.8868 58.715 47.8868 59.397C47.8868 60.0717 47.9858 60.6657 48.1838 61.179C48.3818 61.6923 48.6568 62.092 49.0088 62.378C49.3681 62.664 49.7824 62.807 50.2518 62.807ZM55.2152 63.5V55.305H58.6582C59.1202 55.305 59.5199 55.393 59.8572 55.569C60.2019 55.7377 60.4659 55.976 60.6492 56.284C60.8399 56.592 60.9352 56.9513 60.9352 57.362C60.9352 57.7873 60.8289 58.165 60.6162 58.495C60.4109 58.8177 60.1139 59.0633 59.7252 59.232L59.7142 58.968C60.0369 59.0853 60.3119 59.2503 60.5392 59.463C60.7739 59.6757 60.9535 59.925 61.0782 60.211C61.2029 60.4897 61.2652 60.7903 61.2652 61.113C61.2652 61.8463 61.0305 62.4293 60.5612 62.862C60.0992 63.2873 59.4685 63.5 58.6692 63.5H55.2152ZM56.0952 62.675H58.6692C59.1899 62.675 59.6042 62.5393 59.9122 62.268C60.2275 61.9893 60.3852 61.608 60.3852 61.124C60.3852 60.6473 60.2275 60.2697 59.9122 59.991C59.6042 59.705 59.1899 59.562 58.6692 59.562H56.0952V62.675ZM56.0952 58.77H58.5922C59.0322 58.77 59.3842 58.6417 59.6482 58.385C59.9195 58.1283 60.0552 57.7983 60.0552 57.395C60.0552 56.9843 59.9195 56.6727 59.6482 56.46C59.3842 56.24 59.0322 56.13 58.5922 56.13H56.0952V58.77Z" fill="#84919F"/>
</svg>
