<svg width="40" height="40" viewBox="0 0 40 40" fill="none" xmlns="http://www.w3.org/2000/svg">
<path fill-rule="evenodd" clip-rule="evenodd" d="M29.7803 3.59263C30.4181 3.32839 30.8339 2.70574 30.8339 2.01507H30.8347C30.8348 1.56221 30.655 1.12788 30.3349 0.807662C30.0149 0.48744 29.5808 0.307565 29.1281 0.307617C28.4378 0.307299 27.8153 0.723105 27.5509 1.36111C27.2865 1.99912 27.4323 2.73365 27.9203 3.22215C28.4083 3.71064 29.1424 3.85686 29.7803 3.59263ZM12.0916 2.15049C12.0917 2.8412 11.6759 3.46395 11.0381 3.72831C10.4003 3.99267 9.66611 3.84659 9.17795 3.35818C8.68978 2.86977 8.54377 2.13523 8.808 1.4971C9.07223 0.858979 9.69466 0.442953 10.385 0.443032C11.3276 0.443032 12.0916 1.20749 12.0916 2.15049ZM21.557 1.77812C20.8346 1.02888 19.9943 0.157316 18.8659 0.648518V0.647927C17.6661 1.11007 17.466 2.84882 18.4451 3.64911C19.4785 4.5599 20.4583 5.52986 21.4379 6.4997L21.4379 6.49972L21.4379 6.49974L21.4379 6.49977C21.9552 7.01188 22.4725 7.52396 22.9976 8.02728C23.5765 8.60122 24.499 8.91181 25.2542 8.49966C26.2365 8.06074 26.529 6.61821 25.8066 5.82993C24.5474 4.49858 23.217 3.23646 21.8213 2.04912C21.7349 1.96265 21.6469 1.87143 21.5572 1.77832L21.557 1.77822L21.557 1.77812ZM35.1798 5.62365C34.9408 4.59938 33.5649 4.22305 32.705 4.68598H32.7052C31.4963 5.70595 30.4369 6.88044 29.3778 8.05462L29.3777 8.05463L29.3777 8.05465L29.3777 8.05466L29.3777 8.05467L29.3777 8.05469L29.3777 8.0547L29.3777 8.05472L29.3777 8.05473L29.3777 8.05475L29.3776 8.05476L29.3776 8.05477L29.3776 8.05479L29.3776 8.0548L29.3776 8.05482L29.3776 8.05483L29.3776 8.05485L29.3776 8.05486L29.3776 8.05487C28.7839 8.71298 28.1904 9.37099 27.5707 10.0016C26.8034 10.7751 27.078 12.3041 28.0959 12.7253C28.8004 13.0508 29.678 12.8896 30.1765 12.2862C31.5431 10.8586 32.911 9.43123 34.317 8.04263C34.9589 7.43621 35.544 6.53456 35.1798 5.62365ZM5.22588 4.9698C6.12158 4.42932 7.22895 4.78754 7.89172 5.52229C8.83014 6.46985 9.78711 7.39744 10.7434 8.32431L10.7435 8.32443L10.7435 8.32444L10.7435 8.32449C11.306 8.86962 11.8681 9.4145 12.4261 9.96305C13.4231 10.8858 12.7276 12.8389 11.3366 12.845C10.4827 12.9765 9.92262 12.3912 9.37727 11.8213C9.17911 11.6142 8.98289 11.4091 8.77522 11.2412C7.40954 10.1095 6.15817 8.84981 4.91919 7.5799C4.21766 6.85716 4.42737 5.53134 5.22667 4.9698H5.22588ZM8.41285 16.485C9.34927 15.1803 7.88346 13.2868 6.38204 13.8663L6.38381 13.8661C5.06096 14.7633 3.99513 15.976 2.92943 17.1885C2.30679 17.8969 1.6842 18.6053 1.01043 19.2506C-0.00153092 20.1893 0.697044 22.1235 2.0881 22.1772C3.04644 22.2928 3.66477 21.5809 4.24249 20.9157C4.38108 20.7561 4.51733 20.5993 4.65538 20.4572C5.15582 19.8917 5.69636 19.3612 6.23664 18.8309C7.00063 18.0811 7.76408 17.3317 8.41285 16.485ZM36.8276 18.0529C37.8604 17.378 39.4187 18.1454 39.4517 19.3913C39.5629 20.2466 38.9729 20.8071 38.3977 21.3533C38.1858 21.5547 37.9758 21.7541 37.8038 21.9656C36.6785 23.3213 35.443 24.5848 34.1679 25.8002C33.2366 26.6809 31.4961 26.0627 31.3289 24.7879C31.1537 23.7292 31.9177 22.9928 32.629 22.3074C32.8026 22.1401 32.9731 21.9757 33.126 21.8105C33.7121 21.2662 34.2569 20.6775 34.801 20.0895L34.801 20.0895C35.454 19.3838 36.1061 18.6791 36.8274 18.0535L36.8276 18.0529ZM12.8478 28.6454C12.824 27.4271 11.3018 26.7134 10.2985 27.3137V27.3147C9.47418 28.0347 8.72114 28.8309 7.96742 29.6279L7.96739 29.6279L7.96738 29.6279C7.36406 30.2658 6.7603 30.9042 6.11922 31.5043L6.09148 31.5313C5.352 32.2493 4.40455 33.1693 4.79682 34.3047C5.02975 35.4961 6.77904 35.8965 7.59998 35.0663C8.86257 33.8357 10.1134 32.5898 11.2359 31.2317C11.4044 31.0236 11.6099 30.8267 11.8174 30.6279C12.3927 30.0766 12.9839 29.5102 12.8478 28.6454ZM28.126 27.2689C28.6814 27.0779 29.3851 27.063 29.8542 27.4631C30.4434 28.0231 31.0452 28.5697 31.6471 29.1163L31.6472 29.1164L31.6472 29.1165L31.6473 29.1166L31.6474 29.1166L31.6475 29.1167L31.6476 29.1168L31.6477 29.1169L31.6478 29.117L31.6479 29.1171L31.648 29.1172L31.6481 29.1173L31.6482 29.1174L31.6483 29.1175L31.6484 29.1175C32.821 30.1825 33.9935 31.2474 35.0724 32.4115C35.5768 32.9223 35.6217 33.7792 35.2874 34.3943C34.8153 35.4993 33.1976 35.526 32.4125 34.7437C31.6583 34.0319 30.9182 33.3032 30.1778 32.5742L30.1778 32.5742L30.1777 32.5742L30.1777 32.5741L30.1777 32.5741L30.1776 32.5741L30.1776 32.574L30.1776 32.574L30.1775 32.574L30.1775 32.5739L30.1775 32.5739L30.1774 32.5739L30.1774 32.5738L30.1774 32.5738C29.3618 31.7708 28.5459 30.9675 27.7107 30.1864C26.7468 29.4369 26.9734 27.7017 28.1258 27.2687L28.126 27.2689ZM17.1406 32.0978C16.5465 31.4677 15.5757 31.0436 14.7494 31.4915L14.7492 31.4907C13.7581 31.924 13.4597 33.384 14.194 34.1695C15.4122 35.4453 16.6728 36.6847 18.0302 37.8108C18.2439 37.9838 18.4445 38.1959 18.647 38.41L18.647 38.41C19.1852 38.9792 19.7367 39.5623 20.5825 39.4621C22.0243 39.4474 22.716 37.4732 21.6931 36.4997C20.1376 35.0722 18.6392 33.5851 17.1408 32.098L17.1406 32.0978ZM15.3599 8.39928C16.3024 8.39924 17.0664 7.6348 17.0664 6.69182C17.0664 6.23894 16.8866 5.80462 16.5665 5.4844C16.2464 5.16419 15.8123 4.98432 15.3596 4.98437C14.4171 4.98448 13.6532 5.74898 13.6532 6.69195C13.6533 7.63493 14.4174 8.39931 15.3599 8.39928ZM3.74079 10.8637C3.74095 11.5544 3.32521 12.1772 2.68743 12.4417C2.04966 12.7061 1.31547 12.5601 0.827247 12.0717C0.339025 11.5834 0.192926 10.8489 0.457083 10.2107C0.72124 9.57256 1.34363 9.15646 2.034 9.15646C2.48661 9.15641 2.92072 9.33625 3.2408 9.65642C3.56089 9.9766 3.74074 10.4109 3.74079 10.8637ZM39.6727 10.4354C39.6727 11.3784 38.9086 12.1429 37.9661 12.1429C37.0235 12.1429 36.2595 11.3784 36.2595 10.4354C36.2595 9.49243 37.0235 8.72797 37.9661 8.72797C38.9086 8.72797 39.6727 9.49243 39.6727 10.4354ZM33.3019 17.0491C34.2444 17.049 35.0084 16.2845 35.0083 15.3415C35.0082 14.8886 34.8284 14.4544 34.5083 14.1342C34.1882 13.814 33.7541 13.6342 33.3015 13.6342C32.359 13.6343 31.595 14.3989 31.5951 15.3419C31.5952 16.2849 32.3593 17.0492 33.3019 17.0491ZM39.6648 29.1312C39.6648 30.0742 38.9008 30.8386 37.9583 30.8387C37.0158 30.8387 36.2517 30.0743 36.2516 29.1313C36.2515 28.1884 37.0155 27.4239 37.958 27.4238C38.4107 27.4237 38.8448 27.6036 39.1649 27.9238C39.485 28.244 39.6648 28.6783 39.6648 29.1312ZM25.3008 34.8732C25.9386 34.6089 26.3544 33.9861 26.3543 33.2954C26.3543 32.8425 26.1745 32.4082 25.8544 32.088C25.5343 31.7678 25.1001 31.5879 24.6475 31.588C23.9571 31.588 23.3348 32.0041 23.0706 32.6422C22.8064 33.2803 22.9525 34.0148 23.4407 34.5032C23.9289 34.9916 24.663 35.1376 25.3008 34.8732ZM31.2646 37.9651C31.2647 38.6558 30.849 39.2786 30.2112 39.543C29.5734 39.8075 28.8393 39.6615 28.351 39.1731C27.8628 38.6848 27.7167 37.9502 27.9809 37.3121C28.245 36.6739 28.8674 36.2578 29.5578 36.2578C30.0104 36.2578 30.4445 36.4376 30.7646 36.7578C31.0847 37.078 31.2645 37.5122 31.2646 37.9651ZM11.5205 39.5429C12.1583 39.2786 12.5741 38.6558 12.574 37.9651C12.574 37.0221 11.8099 36.2576 10.8674 36.2576C10.177 36.2576 9.5546 36.6736 9.29037 37.3117C9.02614 37.9498 9.17215 38.6844 9.66032 39.1728C10.1485 39.6612 10.8827 39.8073 11.5205 39.5429ZM8.41147 24.592C8.41155 25.2828 7.99573 25.9055 7.35793 26.1699C6.72012 26.4342 5.98595 26.2881 5.49779 25.7997C5.00962 25.3113 4.86361 24.5768 5.12784 23.9387C5.39207 23.3005 6.0145 22.8845 6.70487 22.8846C7.6474 22.8846 8.41147 23.649 8.41147 24.592ZM2.6873 31.1322C3.32508 30.8678 3.74087 30.2451 3.74079 29.5544C3.74079 29.1015 3.56097 28.6672 3.24087 28.347C2.92078 28.0267 2.48665 27.8469 2.034 27.8469C1.34364 27.8469 0.72127 28.263 0.457102 28.9011C0.192933 29.5393 0.338996 30.2738 0.827177 30.7621C1.31536 31.2505 2.04952 31.3966 2.6873 31.1322Z" fill="#03E8B0"/>
</svg>
