<svg width="12" height="8" viewBox="0 0 12 8" fill="none" xmlns="http://www.w3.org/2000/svg">
<path d="M11.4942 7.17095C11.8647 6.89802 11.9439 6.37636 11.671 6.00578C11.459 5.71794 11.2469 5.44432 11.061 5.20602C10.6897 4.7303 10.1786 4.09319 9.62331 3.45364C9.07161 2.81823 8.45991 2.16134 7.88884 1.65676C7.60426 1.40531 7.31013 1.17406 7.02332 1.00116C6.75939 0.842051 6.39673 0.666667 5.99995 0.666664C5.60318 0.666667 5.24049 0.842051 4.97656 1.00116C4.68975 1.17406 4.39562 1.40531 4.11104 1.65676C3.53996 2.16134 2.92827 2.81822 2.37657 3.45364C1.82127 4.09319 1.31017 4.73029 0.938908 5.20602C0.752933 5.44432 0.540894 5.71794 0.328901 6.00578C0.0559718 6.37635 0.135132 6.89802 0.50571 7.17095C0.654675 7.28066 0.828062 7.33347 0.999892 7.33333L5.99994 7.33333L11 7.33333C11.1718 7.33347 11.3452 7.28066 11.4942 7.17095Z" fill="#14C784"/>
</svg>
