<svg width="19" height="20" viewBox="0 0 19 20" fill="none" xmlns="http://www.w3.org/2000/svg">
<path d="M7.83207 8.39014C7.26207 8.39014 6.81207 8.89014 6.81207 9.50014C6.81207 10.1101 7.27207 10.6101 7.83207 10.6101C8.40207 10.6101 8.85207 10.1101 8.85207 9.50014C8.86207 8.89014 8.40207 8.39014 7.83207 8.39014ZM11.4821 8.39014C10.9121 8.39014 10.4621 8.89014 10.4621 9.50014C10.4621 10.1101 10.9221 10.6101 11.4821 10.6101C12.0521 10.6101 12.5021 10.1101 12.5021 9.50014C12.5021 8.89014 12.0521 8.39014 11.4821 8.39014Z" fill="white"/>
<path d="M16.3421 0H2.94209C1.81209 0 0.89209 0.92 0.89209 2.06V15.58C0.89209 16.72 1.81209 17.64 2.94209 17.64H14.2821L13.7521 15.79L15.0321 16.98L16.2421 18.1L18.3921 20V2.06C18.3921 0.92 17.4721 0 16.3421 0ZM12.4821 13.06C12.4821 13.06 12.1221 12.63 11.8221 12.25C13.1321 11.88 13.6321 11.06 13.6321 11.06C13.2221 11.33 12.8321 11.52 12.4821 11.65C11.9821 11.86 11.5021 12 11.0321 12.08C10.0721 12.26 9.19209 12.21 8.44209 12.07C7.87209 11.96 7.38209 11.8 6.97209 11.64C6.74209 11.55 6.49209 11.44 6.24209 11.3C6.21209 11.28 6.18209 11.27 6.15209 11.25C6.13209 11.24 6.12209 11.23 6.11209 11.22C5.93209 11.12 5.83209 11.05 5.83209 11.05C5.83209 11.05 6.31209 11.85 7.58209 12.23C7.28209 12.61 6.91209 13.06 6.91209 13.06C4.70209 12.99 3.86209 11.54 3.86209 11.54C3.86209 8.32 5.30209 5.71 5.30209 5.71C6.74209 4.63 8.11209 4.66 8.11209 4.66L8.21209 4.78C6.41209 5.3 5.58209 6.09 5.58209 6.09C5.58209 6.09 5.80209 5.97 6.17209 5.8C7.24209 5.33 8.09209 5.2 8.44209 5.17C8.50209 5.16 8.55209 5.15 8.61209 5.15C9.22209 5.07 9.91209 5.05 10.6321 5.13C11.5821 5.24 12.6021 5.52 13.6421 6.09C13.6421 6.09 12.8521 5.34 11.1521 4.82L11.2921 4.66C11.2921 4.66 12.6621 4.63 14.1021 5.71C14.1021 5.71 15.5421 8.32 15.5421 11.54C15.5421 11.54 14.6921 12.99 12.4821 13.06Z" fill="white"/>
</svg>
