<svg width="163" height="163" viewBox="0 0 163 163" fill="none" xmlns="http://www.w3.org/2000/svg">
<path d="M82.1484 10.7559C82.1487 5.02586 86.7153 0.448339 92.1709 1.05566L92.4307 1.08789C104.043 2.72435 115.203 6.87432 125.112 13.2949L126.067 13.9229C138.948 22.5292 149.075 34.6488 155.259 48.8291L155.846 50.208C161.965 64.9816 163.566 81.2383 160.446 96.9219C157.327 112.605 149.627 127.012 138.319 138.319C127.012 149.627 112.605 157.327 96.9219 160.446C81.7285 163.468 65.9973 162.061 51.5977 156.406L50.208 155.846C35.8959 149.917 23.5982 140.006 14.7666 127.305L13.9229 126.067C7.35619 116.24 3.05227 105.136 1.25391 93.5537L1.08789 92.4307C0.303194 86.861 4.93516 82.1487 10.7559 82.1484C16.3163 82.1484 20.8968 86.5796 22.2266 92.1836L22.3447 92.7295C23.8181 100.211 26.7129 107.375 30.9062 113.823L31.3164 114.445C37.6962 123.993 46.6797 131.501 57.1914 136.085L58.2129 136.52C68.8221 140.914 80.4631 142.165 91.75 140.137L92.8408 139.93C104.103 137.689 114.478 132.263 122.735 124.306L123.527 123.527C131.647 115.407 137.258 105.132 139.703 93.9277L139.93 92.8408C142.17 81.5783 141.126 69.9173 136.935 59.2432L136.52 58.2129C132.125 47.6039 124.779 38.488 115.363 31.9414L114.445 31.3164C108.044 27.0393 100.913 24.0571 93.4521 22.4922L92.7295 22.3447C86.8703 21.1908 82.1484 16.4955 82.1484 10.7559Z" fill="#1E80FF" stroke="#11171D" stroke-width="2"/>
<path d="M69.8662 1.08789C75.436 0.303335 80.1484 4.93601 80.1484 10.7568C80.1483 16.3168 75.7178 20.8965 70.1143 22.2266L69.5684 22.3447C58.3469 24.5548 47.9122 29.9478 39.5703 37.9834L38.7695 38.7695C30.564 46.9751 24.9832 57.315 22.5684 68.4844L22.3447 69.5684C21.1906 75.4273 16.4961 80.1483 10.7568 80.1484C5.0267 80.1484 0.448484 75.5817 1.05566 70.126L1.08789 69.8662C3.48398 52.8625 11.2523 36.9602 23.3965 24.5654L23.9785 23.9785C36.2612 11.6958 52.0886 3.77246 69.0566 1.20605L69.8662 1.08789Z" fill="#F54842" stroke="#11171D" stroke-width="2"/>
</svg>
