<svg width="91" height="91" viewBox="0 0 91 91" fill="none" xmlns="http://www.w3.org/2000/svg">
<circle cx="45.5" cy="45.5" r="39.5" stroke="#19212A" stroke-width="12"/>
<mask id="path-2-inside-1_735_12050" fill="white">
<path d="M91 45.5C91 39.5249 89.8231 33.6082 87.5365 28.0879C85.2499 22.5676 81.8984 17.5517 77.6734 13.3266C73.4483 9.10157 68.4324 5.75007 62.9121 3.46348C57.3918 1.17689 51.4751 -2.61182e-07 45.5 0L45.5 11.9223C49.9095 11.9223 54.2758 12.7908 58.3496 14.4782C62.4235 16.1656 66.1251 18.639 69.243 21.7569C72.361 24.8749 74.8344 28.5765 76.5218 32.6504C78.2092 36.7242 79.0777 41.0905 79.0777 45.5H91Z"/>
</mask>
<path d="M91 45.5C91 39.5249 89.8231 33.6082 87.5365 28.0879C85.2499 22.5676 81.8984 17.5517 77.6734 13.3266C73.4483 9.10157 68.4324 5.75007 62.9121 3.46348C57.3918 1.17689 51.4751 -2.61182e-07 45.5 0L45.5 11.9223C49.9095 11.9223 54.2758 12.7908 58.3496 14.4782C62.4235 16.1656 66.1251 18.639 69.243 21.7569C72.361 24.8749 74.8344 28.5765 76.5218 32.6504C78.2092 36.7242 79.0777 41.0905 79.0777 45.5H91Z" stroke="#FEB752" stroke-width="24" mask="url(#path-2-inside-1_735_12050)"/>
<mask id="path-3-inside-2_735_12050" fill="white">
<path d="M88.4143 60.62C90.1586 55.6691 91.0331 50.4536 90.999 45.2045L79.077 45.2819C79.1022 49.1556 78.4568 53.0045 77.1695 56.6582L88.4143 60.62Z"/>
</mask>
<path d="M88.4143 60.62C90.1586 55.6691 91.0331 50.4536 90.999 45.2045L79.077 45.2819C79.1022 49.1556 78.4568 53.0045 77.1695 56.6582L88.4143 60.62Z" stroke="#14C784" stroke-width="24" mask="url(#path-3-inside-2_735_12050)"/>
</svg>
