<svg width="32" height="32" viewBox="0 0 32 32" fill="none" xmlns="http://www.w3.org/2000/svg">
<rect width="32" height="32" rx="16" fill="#00A478"/>
<g clip-path="url(#clip0_1008_40074)">
<path fill-rule="evenodd" clip-rule="evenodd" d="M10 17.5C10.4142 17.5 10.75 17.8358 10.75 18.25L10.75 21.25C10.75 21.6642 10.4142 22 10 22C9.58579 22 9.25 21.6642 9.25 21.25L9.25 18.25C9.25 17.8358 9.58579 17.5 10 17.5Z" fill="white"/>
<path fill-rule="evenodd" clip-rule="evenodd" d="M16 13C16.4142 13 16.75 13.3358 16.75 13.75L16.75 21.25C16.75 21.6642 16.4142 22 16 22C15.5858 22 15.25 21.6642 15.25 21.25L15.25 13.75C15.25 13.3358 15.5858 13 16 13Z" fill="white"/>
<path fill-rule="evenodd" clip-rule="evenodd" d="M24.25 23.5C24.25 23.9142 23.9142 24.25 23.5 24.25L8.5 24.25C8.08578 24.25 7.75 23.9142 7.75 23.5C7.75 23.0858 8.08578 22.75 8.5 22.75L23.5 22.75C23.9142 22.75 24.25 23.0858 24.25 23.5Z" fill="white"/>
<path fill-rule="evenodd" clip-rule="evenodd" d="M22 16C22.4142 16 22.75 16.3358 22.75 16.75L22.75 21.25C22.75 21.6642 22.4142 22 22 22C21.5858 22 21.25 21.6642 21.25 21.25L21.25 16.75C21.25 16.3358 21.5858 16 22 16Z" fill="white"/>
<path d="M13.75 10C13.75 8.75736 14.7574 7.75 16 7.75C17.2426 7.75 18.25 8.75736 18.25 10C18.25 10.094 18.2442 10.1867 18.2329 10.2779L20.4382 11.3806C20.8424 10.9906 21.3928 10.75 22 10.75C23.2426 10.75 24.25 11.7574 24.25 13C24.25 14.2426 23.2426 15.25 22 15.25C20.7574 15.25 19.75 14.2426 19.75 13C19.75 12.906 19.7558 12.8133 19.7671 12.7221L17.5618 11.6194C17.1576 12.0094 16.6072 12.25 16 12.25C15.5386 12.25 15.1096 12.1108 14.7529 11.8729L12.1474 13.827C12.2141 14.0397 12.25 14.2659 12.25 14.5C12.25 15.7426 11.2426 16.75 10 16.75C8.75736 16.75 7.75 15.7426 7.75 14.5C7.75 13.2574 8.75736 12.25 10 12.25C10.4614 12.25 10.8904 12.3892 11.2471 12.6271L13.8526 10.673C13.786 10.4603 13.75 10.2341 13.75 10Z" fill="white"/>
</g>
<defs>
<clipPath id="clip0_1008_40074">
<rect width="18" height="18" fill="white" transform="translate(7 7)"/>
</clipPath>
</defs>
</svg>
