<svg width="28" height="28" viewBox="0 0 28 28" fill="none" xmlns="http://www.w3.org/2000/svg">
<rect width="28" height="28" rx="14" fill="#00A478"/>
<g clip-path="url(#clip0_1133_19943)">
<path fill-rule="evenodd" clip-rule="evenodd" d="M8.75 15.3125C9.11244 15.3125 9.40625 15.6063 9.40625 15.9687L9.40625 18.5937C9.40625 18.9562 9.11244 19.25 8.75 19.25C8.38756 19.25 8.09375 18.9562 8.09375 18.5938L8.09375 15.9688C8.09375 15.6063 8.38756 15.3125 8.75 15.3125Z" fill="white"/>
<path fill-rule="evenodd" clip-rule="evenodd" d="M14 11.375C14.3624 11.375 14.6562 11.6688 14.6562 12.0312L14.6563 18.5937C14.6563 18.9562 14.3624 19.25 14 19.25C13.6376 19.25 13.3438 18.9562 13.3438 18.5938L13.3438 12.0312C13.3438 11.6688 13.6376 11.375 14 11.375Z" fill="white"/>
<path fill-rule="evenodd" clip-rule="evenodd" d="M21.2187 20.5625C21.2187 20.9249 20.9249 21.2187 20.5625 21.2187L7.4375 21.2187C7.07506 21.2187 6.78125 20.9249 6.78125 20.5625C6.78125 20.2001 7.07506 19.9062 7.4375 19.9062L20.5625 19.9062C20.9249 19.9062 21.2187 20.2001 21.2187 20.5625Z" fill="white"/>
<path fill-rule="evenodd" clip-rule="evenodd" d="M19.25 14C19.6124 14 19.9062 14.2938 19.9062 14.6562L19.9062 18.5937C19.9062 18.9562 19.6124 19.25 19.25 19.25C18.8876 19.25 18.5938 18.9562 18.5938 18.5937L18.5938 14.6562C18.5938 14.2938 18.8876 14 19.25 14Z" fill="white"/>
<path d="M12.0313 8.75C12.0313 7.66269 12.9127 6.78125 14 6.78125C15.0873 6.78125 15.9688 7.66269 15.9688 8.75C15.9688 8.83223 15.9637 8.91341 15.9538 8.9932L17.8834 9.95798C18.2371 9.61678 18.7187 9.40625 19.25 9.40625C20.3373 9.40625 21.2188 10.2877 21.2188 11.375C21.2188 12.4623 20.3373 13.3438 19.25 13.3438C18.1627 13.3438 17.2813 12.4623 17.2813 11.375C17.2813 11.2928 17.2863 11.2116 17.2962 11.1318L15.3666 10.167C15.0129 10.5082 14.5313 10.7188 14 10.7188C13.5963 10.7188 13.2209 10.5969 12.9088 10.3888L10.629 12.0986C10.6873 12.2847 10.7188 12.4826 10.7188 12.6875C10.7188 13.7748 9.83731 14.6562 8.75 14.6562C7.66269 14.6562 6.78125 13.7748 6.78125 12.6875C6.78125 11.6002 7.66269 10.7188 8.75 10.7188C9.15375 10.7188 9.52912 10.8406 9.84125 11.0487L12.121 9.33892C12.0627 9.15277 12.0313 8.95485 12.0313 8.75Z" fill="white"/>
</g>
<defs>
<clipPath id="clip0_1133_19943">
<rect width="15.75" height="15.75" fill="white" transform="translate(6.125 6.125)"/>
</clipPath>
</defs>
</svg>
