<svg width="151" height="151" viewBox="0 0 151 151" fill="none" xmlns="http://www.w3.org/2000/svg">
<circle cx="75.5" cy="75.5" r="75.5" fill="#1E80FF"/>
<path d="M151 75.5C151 61.8083 147.277 48.3742 140.229 36.6358C133.181 24.8974 123.074 15.2965 110.989 8.86069C98.9039 2.42489 85.2964 -0.60351 71.6227 0.0996237C57.9491 0.802758 44.724 5.21096 33.363 12.8524C22.002 20.4938 12.9328 31.0809 7.12611 43.4803C1.31942 55.8797 -1.00618 69.6248 0.398232 83.2443C1.80264 96.8638 6.8842 109.845 15.099 120.799C23.3138 131.752 34.3526 140.266 47.0339 145.428L75.5 75.5H151Z" fill="#FEB752"/>
<path d="M151 75.5C151 65.5852 149.047 55.7675 145.253 46.6074C141.459 37.4473 135.897 29.1243 128.887 22.1134C121.876 15.1026 113.553 9.54132 104.393 5.74709C95.2325 1.95286 85.4148 -4.3339e-07 75.5 0C65.5852 4.3339e-07 55.7675 1.95287 46.6074 5.7471C37.4473 9.54133 29.1243 15.1026 22.1134 22.1134C15.1026 29.1243 9.54132 37.4473 5.74709 46.6074C1.95286 55.7675 -8.66779e-07 65.5852 0 75.5L75.5 75.5H151Z" fill="#AF7AFA"/>
<path d="M151 75.5C151 60.9284 146.783 46.6681 138.859 34.4398C130.934 22.2115 119.64 12.5377 106.339 6.58565L75.5 75.5H151Z" fill="#FA7AC5"/>
<path d="M105.531 6.22952C87.1592 -1.73515 66.376 -2.07549 47.7534 5.28337L75.5 75.5L105.531 6.22952Z" fill="#61D4E5"/>
<path d="M48.2257 5.09856C33.6568 10.7427 21.1978 20.7676 12.5666 33.7911L75.5 75.5L48.2257 5.09856Z" fill="#14C784"/>
</svg>
