<svg width="174" height="24" viewBox="0 0 174 24" fill="none" xmlns="http://www.w3.org/2000/svg">
<g clip-path="url(#clip0_358_9390)">
<path d="M15.3073 11.5169C15.3073 9.47866 13.6684 7.81836 11.6563 7.81836H0V15.2092H11.6563C13.6684 15.2092 15.3073 13.5489 15.3073 11.5107V11.5169Z" fill="#1E80FF"/>
<path d="M11.3689 0H0V5.55085H11.6563C14.9037 5.55085 17.5456 8.22715 17.5456 11.5106C17.5456 14.794 14.9037 17.4765 11.6563 17.4765H0V23.0274H11.3689C17.6496 23.0274 22.7378 17.873 22.7378 11.5106C22.7378 5.15436 17.6435 0 11.3689 0Z" fill="#1E80FF"/>
<path d="M40.1733 3.9709C38.9685 3.30182 37.5558 2.96729 35.9413 2.96729H30.6758V19.18H35.9413C37.5619 19.18 38.9685 18.8454 40.1733 18.1702C41.3781 17.4949 42.3076 16.547 42.9681 15.3328C43.6286 14.1124 43.9588 12.6937 43.9588 11.0643C43.9588 9.43502 43.6286 8.01633 42.9681 6.79589C42.3076 5.57544 41.3781 4.63378 40.1733 3.9647V3.9709ZM41.0539 14.323C40.583 15.2461 39.9103 15.9585 39.0419 16.4665C38.1735 16.9745 37.1461 17.2285 35.9597 17.2285H32.804V4.93115H35.9597C37.1338 4.93115 38.1552 5.17895 39.0236 5.68076C39.892 6.18257 40.5647 6.89501 41.0417 7.81189C41.5187 8.73497 41.7634 9.81912 41.7634 11.0643C41.7634 12.3096 41.5248 13.3999 41.0539 14.3168V14.323Z" fill="white"/>
<path d="M55.0953 8.92702C54.6305 8.40044 54.0618 7.97917 53.3952 7.66321C52.7286 7.35346 51.9641 7.19238 51.108 7.19238C50.0316 7.19238 49.0715 7.45877 48.2275 7.98536C47.3836 8.51195 46.7108 9.23678 46.2094 10.1537C45.7079 11.0643 45.4572 12.1113 45.4572 13.2884C45.4572 14.4655 45.7079 15.5001 46.2094 16.4355C46.7108 17.371 47.4019 18.1082 48.2826 18.6472C49.1632 19.1862 50.16 19.4526 51.2792 19.4526C52.0681 19.4526 52.7897 19.3225 53.4502 19.0623C54.1107 18.8021 54.6795 18.449 55.1565 18.0091C55.6396 17.5693 55.9943 17.0798 56.2206 16.5409L54.5449 15.6735C54.2147 16.2373 53.7866 16.7019 53.2545 17.0674C52.7225 17.433 52.0742 17.6126 51.2975 17.6126C50.5942 17.6126 49.946 17.433 49.3528 17.0798C48.7596 16.7267 48.3009 16.2249 47.9768 15.5744C47.7383 15.0912 47.6037 14.5522 47.5731 13.9513H56.4346C56.4652 13.7592 56.4897 13.5734 56.508 13.3875C56.5264 13.2017 56.5386 13.0158 56.5386 12.8424C56.5386 12.1175 56.4102 11.4175 56.1656 10.7422C55.9209 10.0669 55.554 9.466 55.0892 8.93322L55.0953 8.92702ZM49.2611 9.53415C49.8176 9.18103 50.4352 9.00137 51.108 9.00137C51.7807 9.00137 52.38 9.17483 52.9121 9.52176C53.4441 9.86869 53.8416 10.3395 54.1168 10.9343C54.2881 11.3122 54.3676 11.7334 54.3737 12.1733H47.6282C47.6893 11.752 47.7933 11.3679 47.9645 11.021C48.2703 10.3829 48.7045 9.88727 49.2672 9.52795L49.2611 9.53415Z" fill="white"/>
<path d="M62.1834 9.70761C62.7521 9.35449 63.382 9.17483 64.0853 9.17483C64.7886 9.17483 65.4613 9.36068 66.0178 9.73859C66.5744 10.1165 66.9902 10.6183 67.2654 11.244L69.0512 10.3519C68.8249 9.74478 68.458 9.19961 67.9565 8.72878C67.455 8.25795 66.874 7.88624 66.2135 7.60746C65.5531 7.33487 64.8437 7.19238 64.0853 7.19238C62.9417 7.19238 61.9265 7.45877 61.0459 7.99775C60.1652 8.53673 59.4742 9.26156 58.9727 10.1722C58.4712 11.0891 58.2205 12.1299 58.2205 13.307C58.2205 14.4841 58.4773 15.5125 58.9849 16.4417C59.4925 17.371 60.1836 18.102 61.0581 18.641C61.9326 19.18 62.9417 19.4464 64.0853 19.4464C64.8437 19.4464 65.5531 19.3101 66.2135 19.0313C66.874 18.7587 67.455 18.3808 67.9565 17.91C68.458 17.4392 68.8249 16.9002 69.0512 16.2869L67.2654 15.37C66.978 16.0081 66.5621 16.5223 66.0056 16.9064C65.4491 17.2905 64.8131 17.4825 64.0853 17.4825C63.3576 17.4825 62.7521 17.3029 62.1834 16.9373C61.6207 16.578 61.1682 16.0762 60.8379 15.4443C60.5077 14.8124 60.3426 14.1062 60.3426 13.3256C60.3426 12.545 60.5077 11.814 60.8379 11.1821C61.1682 10.5502 61.6146 10.0545 62.1834 9.70142V9.70761Z" fill="white"/>
<path d="M80.3833 8.92702C79.9185 8.40044 79.3498 7.97917 78.6832 7.66321C78.0166 7.35346 77.2521 7.19238 76.3959 7.19238C75.3196 7.19238 74.3594 7.45877 73.5155 7.98536C72.6715 8.51195 71.9988 9.23678 71.4973 10.1537C70.9959 11.0643 70.7451 12.1113 70.7451 13.2884C70.7451 14.4655 70.9959 15.5001 71.4973 16.4355C71.9988 17.371 72.6899 18.1082 73.5705 18.6472C74.4512 19.1862 75.448 19.4526 76.5672 19.4526C77.3561 19.4526 78.0777 19.3225 78.7382 19.0623C79.3987 18.8021 79.9674 18.449 80.4444 18.0091C80.9215 17.5693 81.2762 17.0798 81.5086 16.5409L79.8329 15.6735C79.5026 16.2373 79.0746 16.7019 78.5425 17.0674C78.0104 17.433 77.3622 17.6126 76.5855 17.6126C75.8822 17.6126 75.234 17.433 74.6408 17.0798C74.0475 16.7267 73.5889 16.2249 73.2647 15.5744C73.0262 15.0912 72.8917 14.5522 72.8611 13.9513H81.7226C81.7532 13.7592 81.7776 13.5734 81.796 13.3875C81.8205 13.2017 81.8266 13.0158 81.8266 12.8424C81.8266 12.1175 81.6981 11.4175 81.4474 10.7422C81.1967 10.0669 80.8358 9.466 80.3711 8.93322L80.3833 8.92702ZM74.549 9.53415C75.1055 9.18103 75.7232 9.00137 76.3959 9.00137C77.0686 9.00137 77.668 9.17483 78.2 9.52176C78.7321 9.86869 79.1296 10.3395 79.4048 10.9343C79.576 11.3122 79.6555 11.7334 79.6616 12.1733H72.9162C72.9773 11.752 73.0813 11.3679 73.2525 11.021C73.5583 10.3829 73.9925 9.88727 74.5551 9.52795L74.549 9.53415Z" fill="white"/>
<path d="M91.4892 7.76249C90.8348 7.38458 90.0948 7.19873 89.2631 7.19873C88.4314 7.19873 87.6547 7.40317 87.0187 7.81825C86.5784 8.10322 86.2298 8.47493 85.9546 8.91479V7.45893H83.9792V19.1925H85.9974V12.2478C85.9974 11.6097 86.1197 11.0645 86.3643 10.6061C86.6089 10.1476 86.9392 9.80069 87.3612 9.55289C87.7831 9.30508 88.2663 9.18118 88.8106 9.18118C89.3549 9.18118 89.838 9.30508 90.26 9.55289C90.6819 9.80069 91.0061 10.1476 91.2385 10.5999C91.4647 11.0521 91.5809 11.6035 91.5809 12.254V19.1987H93.5991V11.6035C93.5991 10.7609 93.4095 10.0051 93.0303 9.34225C92.6512 8.67318 92.1374 8.15278 91.4831 7.77488L91.4892 7.76249Z" fill="white"/>
<path d="M101.146 17.4703C100.675 17.4703 100.296 17.3897 100.008 17.2224C99.7208 17.0552 99.519 16.826 99.3966 16.5348C99.2743 16.2436 99.2132 15.9029 99.2132 15.5126V9.39798H101.812V7.4589H99.2132V4.75781H97.195V5.71806C97.195 6.23845 97.0483 6.65972 96.7547 6.98187C96.4612 7.30402 96.0575 7.4589 95.5377 7.4589H95.1096V9.39798H97.195V15.5807C97.195 16.7702 97.5008 17.6933 98.1185 18.3438C98.7362 18.9943 99.6107 19.3226 100.742 19.3226C100.901 19.3226 101.091 19.3102 101.323 19.2916C101.549 19.2668 101.757 19.2359 101.947 19.1925V17.4083C101.818 17.4207 101.678 17.4393 101.531 17.4517C101.384 17.4641 101.256 17.4764 101.158 17.4764L101.146 17.4703Z" fill="white"/>
<path d="M107.102 7.81193C106.674 8.06593 106.332 8.41286 106.069 8.8651V7.45261H104.094V19.1862H106.112V12.1981C106.112 11.2564 106.362 10.5316 106.864 10.0236C107.365 9.51559 108.026 9.26159 108.839 9.26159H109.848V7.32251H109.139C108.338 7.32251 107.659 7.48358 107.096 7.81193H107.102Z" fill="white"/>
<path d="M118.318 7.70658C117.646 7.36585 116.863 7.19238 115.976 7.19238C115.291 7.19238 114.631 7.31629 114.001 7.56409C113.371 7.8119 112.82 8.14644 112.343 8.5739C111.873 9.00137 111.53 9.48459 111.31 10.0236L113.053 10.9404C113.297 10.3891 113.671 9.93683 114.178 9.58991C114.686 9.24298 115.273 9.06951 115.927 9.06951C116.686 9.06951 117.297 9.26776 117.756 9.67044C118.214 10.0669 118.441 10.5873 118.441 11.2254V11.7644L114.508 12.4273C113.646 12.5698 112.937 12.8176 112.368 13.1645C111.799 13.5114 111.383 13.9389 111.108 14.4407C110.839 14.9425 110.698 15.5063 110.698 16.1258C110.698 16.7453 110.863 17.3586 111.194 17.8542C111.524 18.356 111.983 18.7463 112.57 19.0313C113.157 19.3163 113.83 19.4588 114.588 19.4588C115.248 19.4588 115.854 19.3597 116.404 19.1676C116.955 18.9694 117.444 18.6968 117.866 18.3436C118.11 18.1392 118.312 17.91 118.502 17.6746V19.2048H120.459V11.2378C120.459 10.451 120.269 9.75717 119.89 9.15005C119.511 8.54293 118.985 8.0659 118.312 7.72517L118.318 7.70658ZM117.994 15.9895C117.695 16.5285 117.273 16.9497 116.734 17.2657C116.196 17.5755 115.566 17.7365 114.833 17.7365C114.258 17.7365 113.781 17.5755 113.401 17.2595C113.022 16.9435 112.833 16.5409 112.833 16.0638C112.833 15.5558 112.998 15.1346 113.34 14.7938C113.677 14.4531 114.215 14.2177 114.961 14.0876L118.441 13.4743V14.2425C118.441 14.8806 118.288 15.4691 117.988 16.0081L117.994 15.9895Z" fill="white"/>
<path d="M125.125 2.71338H123.107V19.1925H125.125V2.71338Z" fill="white"/>
<path d="M132.17 16.6276L128.648 7.45874H126.477L131.082 19.2047L130.727 20.0597C130.409 20.7845 130.079 21.2987 129.73 21.6023C129.381 21.9058 128.868 22.0607 128.195 22.0607C127.963 22.0607 127.73 22.0421 127.498 21.9926C127.259 21.9492 127.064 21.9182 126.905 21.9058V23.7148C127.131 23.8139 127.376 23.8883 127.632 23.9316C127.889 23.975 128.146 23.9998 128.403 23.9998C129.149 23.9998 129.791 23.8511 130.336 23.5413C130.88 23.2378 131.345 22.8227 131.724 22.3023C132.103 21.7819 132.415 21.2058 132.659 20.5801L137.882 7.45874H135.668L132.164 16.6276H132.17Z" fill="white"/>
<path d="M145.358 17.4703C144.887 17.4703 144.508 17.3897 144.221 17.2224C143.933 17.0552 143.732 16.826 143.609 16.5348C143.487 16.2436 143.426 15.9029 143.426 15.5126V9.39798H146.025V7.4589H143.426V4.75781H141.408V5.71806C141.408 6.23845 141.261 6.65972 140.967 6.98187C140.674 7.30402 140.27 7.4589 139.75 7.4589H139.322V9.39798H141.408V15.5807C141.408 16.7702 141.713 17.6933 142.331 18.3438C142.949 18.9943 143.823 19.3226 144.955 19.3226C145.114 19.3226 145.303 19.3102 145.536 19.2916C145.762 19.2668 145.97 19.2359 146.16 19.1925V17.4083C146.031 17.4207 145.89 17.4393 145.744 17.4517C145.597 17.4641 145.468 17.4764 145.371 17.4764L145.358 17.4703Z" fill="white"/>
<path d="M150.318 7.45898H148.3V19.1926H150.318V7.45898Z" fill="white"/>
<path d="M150.318 2.97363H148.3V5.58798H150.318V2.97363Z" fill="white"/>
<path d="M156.452 9.70761C157.015 9.35449 157.651 9.17483 158.354 9.17483C159.057 9.17483 159.73 9.36068 160.287 9.73859C160.843 10.1165 161.259 10.6183 161.534 11.244L163.32 10.3519C163.094 9.74478 162.727 9.19961 162.225 8.72878C161.724 8.25795 161.143 7.88624 160.482 7.60746C159.822 7.33487 159.112 7.19238 158.354 7.19238C157.21 7.19238 156.195 7.45877 155.315 7.99775C154.434 8.53673 153.743 9.26156 153.241 10.1722C152.74 11.0891 152.489 12.1299 152.489 13.307C152.489 14.4841 152.746 15.5125 153.254 16.4417C153.761 17.371 154.452 18.102 155.327 18.641C156.201 19.18 157.21 19.4464 158.354 19.4464C159.112 19.4464 159.822 19.3101 160.482 19.0313C161.143 18.7587 161.724 18.3808 162.225 17.91C162.727 17.4392 163.094 16.9002 163.32 16.2869L161.534 15.37C161.247 16.0081 160.831 16.5223 160.274 16.9064C159.724 17.2905 159.082 17.4825 158.354 17.4825C157.626 17.4825 157.021 17.3029 156.452 16.9373C155.883 16.578 155.437 16.0762 155.107 15.4443C154.776 14.8124 154.611 14.1062 154.611 13.3256C154.611 12.545 154.776 11.814 155.107 11.1821C155.437 10.5502 155.883 10.0545 156.452 9.70142V9.70761Z" fill="white"/>
<path d="M173.08 13.9452C172.554 13.3629 171.821 12.9354 170.879 12.6628L168.989 12.0991C168.757 12.0248 168.524 11.938 168.28 11.8265C168.035 11.715 167.827 11.5601 167.656 11.3495C167.485 11.1388 167.399 10.8725 167.399 10.5565C167.399 10.0919 167.57 9.71396 167.913 9.42279C168.255 9.13162 168.72 8.98913 169.307 8.98913C169.949 8.98913 170.53 9.16259 171.05 9.50952C171.564 9.85645 171.955 10.3335 172.212 10.9468L173.845 10.1848C173.502 9.24313 172.921 8.50591 172.114 7.98551C171.307 7.46512 170.39 7.19873 169.374 7.19873C168.616 7.19873 167.931 7.34741 167.319 7.63239C166.708 7.92356 166.231 8.32625 165.882 8.84044C165.534 9.35464 165.356 9.96177 165.356 10.6556C165.356 11.4114 165.595 12.0743 166.078 12.6505C166.555 13.2204 167.313 13.6541 168.347 13.9452L170.09 14.4471C170.334 14.5028 170.585 14.5957 170.854 14.7196C171.117 14.8435 171.35 15.0108 171.539 15.2214C171.735 15.4321 171.827 15.7109 171.827 16.0578C171.827 16.5534 171.619 16.9499 171.203 17.2535C170.787 17.557 170.273 17.7119 169.656 17.7119C168.952 17.7119 168.316 17.5075 167.741 17.1048C167.167 16.6959 166.72 16.1445 166.39 15.4507L164.775 16.2374C165.148 17.2225 165.766 18.0093 166.622 18.5854C167.485 19.1678 168.494 19.4527 169.65 19.4527C170.481 19.4527 171.209 19.3102 171.839 19.0191C172.469 18.7279 172.964 18.3252 173.319 17.7986C173.68 17.2782 173.857 16.6897 173.857 16.033C173.857 15.2214 173.594 14.5214 173.074 13.9452H173.08Z" fill="white"/>
</g>
<defs>
<clipPath id="clip0_358_9390">
<rect width="174" height="24" fill="white"/>
</clipPath>
</defs>
</svg>
