<svg width="21" height="20" viewBox="0 0 21 20" fill="none" xmlns="http://www.w3.org/2000/svg">
<g clip-path="url(#clip0_705_8124)">
<path fill-rule="evenodd" clip-rule="evenodd" d="M10.3921 0C4.86909 0 0.39209 4.484 0.39209 10.017C0.39209 14.442 3.25709 18.197 7.23109 19.521C7.73109 19.613 7.91309 19.304 7.91309 19.038C7.91309 18.801 7.90509 18.17 7.90009 17.335C5.11809 17.94 4.53109 15.992 4.53109 15.992C4.07709 14.834 3.42109 14.526 3.42109 14.526C2.51309 13.906 3.49009 13.918 3.49009 13.918C4.49309 13.988 5.02109 14.95 5.02109 14.95C5.91309 16.48 7.36209 16.038 7.93109 15.782C8.02309 15.135 8.28109 14.694 8.56709 14.444C6.34709 14.191 4.01209 13.331 4.01209 9.493C4.01209 8.4 4.40209 7.505 5.04109 6.805C4.93809 6.552 4.59509 5.533 5.13909 4.155C5.13909 4.155 5.97909 3.885 7.88909 5.181C8.70486 4.95851 9.54653 4.84519 10.3921 4.844C11.2421 4.848 12.0971 4.959 12.8961 5.181C14.8051 3.885 15.6431 4.154 15.6431 4.154C16.1891 5.533 15.8451 6.552 15.7431 6.805C16.3831 7.505 16.7711 8.4 16.7711 9.493C16.7711 13.341 14.4321 14.188 12.2051 14.436C12.5641 14.745 12.8831 15.356 12.8831 16.291C12.8831 17.629 12.8711 18.71 12.8711 19.038C12.8711 19.306 13.0511 19.618 13.5591 19.52C15.5504 18.8521 17.2814 17.5753 18.5076 15.87C19.7337 14.1648 20.3929 12.1173 20.3921 10.017C20.3921 4.484 15.9141 0 10.3921 0Z" fill="white"/>
</g>
<defs>
<clipPath id="clip0_705_8124">
<rect width="20" height="20" fill="white" transform="translate(0.39209)"/>
</clipPath>
</defs>
</svg>
