<svg width="28" height="28" viewBox="0 0 28 28" fill="none" xmlns="http://www.w3.org/2000/svg">
<rect width="28" height="28" rx="14" fill="#AF7AFA"/>
<path d="M11.0863 16.1329H16.9138C17.2507 16.1325 17.5321 16.1322 17.7773 16.2143C18.4324 16.4337 18.8816 17.044 19.0303 17.7379C19.0862 17.9985 19.0861 18.3018 19.086 18.7499C19.0862 18.9585 19.0863 19.2446 19.0527 19.4015C18.9646 19.8124 18.6924 20.2015 18.2637 20.3451C18.1006 20.3997 17.9182 20.3991 17.7623 20.3986H10.2378H10.2378C10.0819 20.3991 9.89951 20.3997 9.73638 20.3451C9.30772 20.2015 9.03548 19.8124 8.94741 19.4015C8.91377 19.2446 8.91393 18.9585 8.9141 18.7499C8.91399 18.3018 8.91391 17.9985 8.96977 17.7379C9.11853 17.044 9.56766 16.4337 10.2228 16.2143C10.468 16.1322 10.7494 16.1325 11.0863 16.1329Z" fill="white"/>
<path d="M14.774 15.214H13.226L13.06 16.5616C13.0172 16.9093 12.7055 17.1558 12.3639 17.1122C12.0222 17.0686 11.78 16.7515 11.8228 16.4038L12.1123 14.054C12.1433 13.7012 11.9461 13.304 11.5748 12.8309C11.1417 12.2789 10.8828 11.5758 10.8828 10.8131C10.8828 9.04871 12.2693 7.60156 14 7.60156C15.7307 7.60156 17.1172 9.04871 17.1172 10.8131C17.1172 11.5758 16.8583 12.2789 16.4252 12.8309C16.0539 13.304 15.8567 13.7012 15.8877 14.054L16.1772 16.4038C16.22 16.7515 15.9778 17.0686 15.6361 17.1122C15.2945 17.1558 14.9828 16.9093 14.94 16.5616L14.774 15.214Z" fill="white"/>
</svg>
