<svg width="28" height="28" viewBox="0 0 28 28" fill="none" xmlns="http://www.w3.org/2000/svg">
<rect width="28" height="28" rx="14" fill="#1E80FF"/>
<g clip-path="url(#clip0_1133_19948)">
<path fill-rule="evenodd" clip-rule="evenodd" d="M15.4031 7.1058L15.3693 7.09817C15.0406 7.02391 14.7377 6.95546 14.4766 6.94638C14.1749 6.93587 13.8957 7.0017 13.6355 7.21032C13.3628 7.429 13.2445 7.71341 13.1923 8.02638C13.1454 8.30737 13.1455 8.65646 13.1455 9.05136L13.1455 9.0854V13.3001C13.1455 13.7126 13.1455 13.9188 13.2737 14.047C13.4018 14.1751 13.608 14.1751 14.0205 14.1751H18.9312L18.9671 14.1751H18.9671C19.36 14.1752 19.7114 14.1752 19.9948 14.1238C20.3155 14.0657 20.5998 13.9339 20.8137 13.6432C21.0143 13.3704 21.0751 13.0885 21.0472 12.7818C21.0237 12.5228 20.9339 12.232 20.8393 11.9256L20.8285 11.8906C20.0974 9.52005 18.0069 7.69369 15.4031 7.1058ZM11.742 10.8649C9.88945 10.8649 8.3125 12.1394 8.3125 13.794C8.3125 14.005 8.49513 14.176 8.72042 14.176H11.742C11.9673 14.176 12.15 14.005 12.15 13.794V11.2469C12.15 11.0359 11.9673 10.8649 11.742 10.8649ZM8.99273 15.1613L8.95317 15.1613C8.57479 15.1612 8.22596 15.1611 7.94324 15.2189C7.61128 15.2867 7.33601 15.4394 7.13932 15.744C6.96169 16.019 6.90782 16.2875 6.97038 16.5789C7.02102 16.8147 7.14964 17.0574 7.27495 17.2938L7.29256 17.327C8.06893 18.7936 9.77265 19.7877 11.7211 19.7877C11.9576 19.7877 12.1494 19.6049 12.1494 19.3795L12.1494 15.5695C12.1494 15.4612 12.1043 15.3574 12.0239 15.2808C11.9436 15.2043 11.8347 15.1613 11.7211 15.1613H8.99273ZM13.1455 15.5856C13.1455 15.3512 13.3351 15.1613 13.569 15.1613H19.2152C19.4491 15.1613 19.6387 15.3512 19.6387 15.5856C19.6387 18.0934 17.8093 20.1733 15.3563 20.8589L15.3226 20.8682C15.0171 20.9537 14.7302 21.034 14.4778 21.052C14.1814 21.0731 13.9084 21.0123 13.6477 20.814C13.3713 20.6037 13.2481 20.3263 13.1937 20.0163C13.1454 19.7407 13.1455 19.3987 13.1455 19.0145L13.1455 18.9802V15.5856Z" fill="white"/>
</g>
<defs>
<clipPath id="clip0_1133_19948">
<rect width="15.75" height="15.75" fill="white" transform="translate(6.125 6.125)"/>
</clipPath>
</defs>
</svg>
