<svg width="39" height="40" viewBox="0 0 39 40" fill="none" xmlns="http://www.w3.org/2000/svg">
<path opacity="0.2" d="M19.5 39.5C30.2696 39.5 39 30.7696 39 20C39 9.23045 30.2696 0.5 19.5 0.5C8.73045 0.5 0 9.23045 0 20C0 30.7696 8.73045 39.5 19.5 39.5Z" fill="#2573C2"/>
<path d="M28.9156 15.7293C28.8967 15.4137 28.8041 15.1069 28.6452 14.8336C28.5044 14.5519 28.2537 14.3322 27.9608 14.2195C27.662 14.0706 27.3311 13.9981 26.9975 14.0083H14.4971L13.6014 16.6926H24.9272L23.1386 22.1794H11.8156L10.9199 24.8637H23.4794C23.8537 24.8529 24.2237 24.7815 24.5751 24.6525C24.9272 24.4525 25.33 24.2497 25.6708 23.968C26.0035 23.7057 26.3042 23.405 26.5665 23.0723C26.7833 22.7463 26.9682 22.4001 27.1186 22.0386L28.7776 16.8221C28.9285 16.4789 28.9765 16.0992 28.9156 15.7293Z" fill="#2573C2"/>
<path d="M18.0658 18.1909H11.4016L10.5059 20.6724H17.2377L18.0658 18.1909Z" fill="#2573C2"/>
</svg>
