<svg width="39" height="40" viewBox="0 0 39 40" fill="none" xmlns="http://www.w3.org/2000/svg">
<path opacity="0.2" d="M19.5 39.5C30.2696 39.5 39 30.7696 39 20C39 9.23045 30.2696 0.5 19.5 0.5C8.73045 0.5 0 9.23045 0 20C0 30.7696 8.73045 39.5 19.5 39.5Z" fill="#F2C869"/>
<path fill-rule="evenodd" clip-rule="evenodd" d="M23.7207 9.5C20.2571 9.5 17.4482 10.4648 17.4482 11.6561V13.5691C17.7836 14.2556 20.1523 15.1239 23.7207 15.1239C27.2891 15.1239 29.6568 14.2536 29.9922 13.5691V11.6561C29.9932 10.4648 27.1855 9.5 23.7207 9.5Z" fill="#F2C869"/>
<path fill-rule="evenodd" clip-rule="evenodd" d="M10.8388 26.5054L10.7499 26.3258V26.1118C10.3722 26.3891 10.1543 26.6976 10.1543 27.0278V28.9409C10.4897 29.6274 12.8584 30.4956 16.4268 30.4956C19.9952 30.4956 22.3629 29.6253 22.6993 28.9409V27.948C21.434 28.3344 19.7656 28.5608 17.9174 28.5608C14.3416 28.5566 11.4302 27.7143 10.8388 26.5054Z" fill="#EFD98B"/>
<path fill-rule="evenodd" clip-rule="evenodd" d="M11.6387 25.5677V26.1254C11.974 26.8119 14.3428 27.6802 17.9112 27.6802C21.4796 27.6802 23.8472 26.8098 24.1837 26.1254V24.2124C24.1794 24.0721 24.1392 23.934 24.0673 23.8125V24.1116L23.9784 24.2923C23.386 25.5002 20.4798 26.3435 16.9019 26.3435C14.8135 26.3435 12.9505 26.0517 11.6387 25.5677Z" fill="#E1AB4C"/>
<path fill-rule="evenodd" clip-rule="evenodd" d="M21.5439 20.9348V19.0228C21.5439 17.8326 18.7351 16.8667 15.2714 16.8667C11.8078 16.8667 9 17.8315 9 19.0228V20.9358C9.33431 21.6223 11.7041 22.4906 15.2725 22.4906C18.8409 22.4906 21.2096 21.6192 21.5439 20.9348Z" fill="#FFD97A"/>
<path fill-rule="evenodd" clip-rule="evenodd" d="M22.4378 20.9824V21.1372L22.3489 21.3168C21.7565 22.5247 18.8504 23.368 15.2724 23.368C13.4962 23.368 11.8828 23.1593 10.6387 22.801V23.9122C10.974 24.5987 13.3428 25.467 16.9112 25.467C20.4796 25.467 22.8472 24.5967 23.1837 23.9122V21.9981C23.1837 21.6305 22.9118 21.2836 22.4378 20.9824V20.9824Z" fill="#FAC04A"/>
<path fill-rule="evenodd" clip-rule="evenodd" d="M17.4502 14.7554V16.1201C19.345 16.3485 21.0546 16.8876 21.8914 17.7672C22.4585 17.8192 23.071 17.8483 23.7227 17.8483C27.29 17.8483 29.6588 16.9779 29.9941 16.2935V14.7554C28.6855 15.5769 26.193 16.0017 23.7216 16.0017C21.2503 16.0017 18.7589 15.5769 17.4502 14.7554Z" fill="#F4CE83"/>
<path fill-rule="evenodd" clip-rule="evenodd" d="M22.3994 18.6832C22.4237 18.7964 22.4364 18.9117 22.4364 19.027V19.9877C22.7623 20.1434 23.067 20.3397 23.341 20.5713H23.7197C27.2871 20.5713 29.6558 19.701 29.9912 19.0166V17.4795C28.6825 18.302 26.1911 18.7268 23.7197 18.7268C23.2796 18.7247 22.8342 18.7112 22.3994 18.6832Z" fill="#FFDA7F"/>
<path fill-rule="evenodd" clip-rule="evenodd" d="M24.077 21.9994V22.5613C24.3563 22.7503 24.5975 22.9902 24.7869 23.2665C27.7554 23.1149 29.6936 22.3505 29.994 21.7408V20.2017C28.7298 20.9951 26.3632 21.4178 23.9775 21.4448C24.0421 21.6224 24.0759 21.8104 24.077 21.9994Z" fill="#E8C278"/>
<path fill-rule="evenodd" clip-rule="evenodd" d="M25.0806 24.2124V25.9728C27.8799 25.7869 29.7028 25.0568 29.9926 24.4627V22.9287C28.9231 23.5996 27.0653 24.0057 25.0732 24.1324C25.0764 24.1573 25.0806 24.1885 25.0806 24.2124Z" fill="#FFD166"/>
<path fill-rule="evenodd" clip-rule="evenodd" d="M23.5908 27.6161V28.9112H23.7209C27.1846 28.9112 29.9924 27.9464 29.9924 26.7551V25.647C28.8625 26.3563 26.844 26.7697 24.7281 26.8694C24.4023 27.1882 24.0151 27.4416 23.5908 27.6161H23.5908Z" fill="#E0C390"/>
</svg>
