<svg width="39" height="40" viewBox="0 0 39 40" fill="none" xmlns="http://www.w3.org/2000/svg">
<path opacity="0.2" d="M19.5 39.5C30.2696 39.5 39 30.7696 39 20C39 9.23045 30.2696 0.5 19.5 0.5C8.73045 0.5 0 9.23045 0 20C0 30.7696 8.73045 39.5 19.5 39.5Z" fill="#298181"/>
<path fill-rule="evenodd" clip-rule="evenodd" d="M10.1465 13.999H10.4823V18.4506H10.1465V13.999Z" fill="white"/>
<path fill-rule="evenodd" clip-rule="evenodd" d="M13.6747 23.6571L13.8408 23.3567L25.3197 30.0824L25.1536 30.3828L13.6747 23.6571Z" fill="white"/>
<path fill-rule="evenodd" clip-rule="evenodd" d="M14.3475 22.4912L14.5127 22.1904L25.4036 28.5276L25.2383 28.8284L14.3475 22.4912Z" fill="white"/>
<path fill-rule="evenodd" clip-rule="evenodd" d="M15.6487 21.6692L15.8147 21.3687L25.3454 26.9439L25.1794 27.2444L15.6487 21.6692Z" fill="white"/>
<path fill-rule="evenodd" clip-rule="evenodd" d="M13.6505 30.1323L18.1331 27.5176L18.2987 27.8183L13.8161 30.433L13.6505 30.1323Z" fill="white"/>
<path fill-rule="evenodd" clip-rule="evenodd" d="M23.6007 15.4585C23.5243 15.4584 23.4575 15.4054 23.4381 15.3294C23.4188 15.2533 23.4516 15.1734 23.5182 15.1348L28.4963 12.2494C28.5488 12.2157 28.615 12.2144 28.6686 12.2459C28.7223 12.2775 28.7548 12.3368 28.7533 12.4004C28.7518 12.4641 28.7164 12.5217 28.6613 12.5504L23.6828 15.4362C23.6578 15.4508 23.6295 15.4585 23.6007 15.4585Z" fill="white"/>
<path fill-rule="evenodd" clip-rule="evenodd" d="M22.257 14.7239C22.1807 14.7239 22.114 14.6711 22.0945 14.5952C22.075 14.5193 22.1075 14.4394 22.1738 14.4006L27.1942 11.4717C27.2465 11.4412 27.3105 11.4418 27.3623 11.4731C27.4141 11.5045 27.4456 11.5618 27.4451 11.6236C27.4446 11.6855 27.4121 11.7423 27.3599 11.7727L22.3395 14.7013C22.3144 14.7162 22.286 14.724 22.257 14.7239Z" fill="white"/>
<path fill-rule="evenodd" clip-rule="evenodd" d="M28.4946 18.2762L28.5208 14.0911L28.8566 14.0933L28.8304 18.2784L28.4946 18.2762Z" fill="white"/>
<path fill-rule="evenodd" clip-rule="evenodd" d="M27.3188 17.5839L27.3451 14.6523L27.6809 14.6555L27.6546 17.5871L27.3188 17.5839Z" fill="white"/>
<path fill-rule="evenodd" clip-rule="evenodd" d="M26.1855 15.2959H26.5213V17.068H26.1855V15.2959Z" fill="white"/>
<path fill-rule="evenodd" clip-rule="evenodd" d="M12.4561 15.2524H12.7918V17.0245H12.4561V15.2524Z" fill="white"/>
<path fill-rule="evenodd" clip-rule="evenodd" d="M11.3223 14.7339H11.6581V17.5864H11.3223V14.7339Z" fill="white"/>
<path fill-rule="evenodd" clip-rule="evenodd" d="M20.8563 13.9107C20.7801 13.9105 20.7135 13.8576 20.694 13.7818C20.6746 13.7059 20.7072 13.6261 20.7734 13.5873L25.7938 10.6588C25.874 10.6164 25.9723 10.6467 26.0168 10.7273C26.0612 10.808 26.036 10.9104 25.9595 10.9595L20.9391 13.8884C20.9138 13.903 20.8853 13.9107 20.8563 13.9107Z" fill="white"/>
<path fill-rule="evenodd" clip-rule="evenodd" d="M13.6342 28.5418L16.7832 26.7266L16.9473 27.0281L13.7983 28.8433L13.6342 28.5418Z" fill="white"/>
<path fill-rule="evenodd" clip-rule="evenodd" d="M19.3031 21.9706L21.7382 20.5875L21.9004 20.8902L19.4653 22.2732L19.3031 21.9706Z" fill="white"/>
<path fill-rule="evenodd" clip-rule="evenodd" d="M20.7288 22.7961L23.2547 21.3395L23.4188 21.641L20.8929 23.0977L20.7288 22.7961Z" fill="white"/>
<path fill-rule="evenodd" clip-rule="evenodd" d="M22.0744 23.5722L24.6355 22.1462L24.7953 22.4502L22.2341 23.8762L22.0744 23.5722Z" fill="white"/>
<path fill-rule="evenodd" clip-rule="evenodd" d="M23.4094 24.3803L25.2281 23.3246L25.3931 23.6257L23.5744 24.6814L23.4094 24.3803Z" fill="white"/>
<path fill-rule="evenodd" clip-rule="evenodd" d="M13.6346 26.9424L15.4401 25.9051L15.6037 26.2069L13.7983 27.2442L13.6346 26.9424Z" fill="white"/>
<path fill-rule="evenodd" clip-rule="evenodd" d="M16.9908 20.8908L17.1569 20.5904L25.319 25.3708L25.1529 25.6712L16.9908 20.8908Z" fill="white"/>
<path fill-rule="evenodd" clip-rule="evenodd" d="M13.7588 25.2573L13.926 24.9575L16.2727 26.3443L16.1055 26.644L13.7588 25.2573Z" fill="white"/>
<path fill-rule="evenodd" clip-rule="evenodd" d="M19.4442 13.1248C19.3679 13.1247 19.3014 13.0718 19.2819 12.9959C19.2625 12.9201 19.2951 12.8403 19.3613 12.8015L24.38 9.87434C24.4324 9.84073 24.4984 9.83937 24.5521 9.87079C24.6057 9.90222 24.6383 9.96137 24.637 10.0249C24.6356 10.0884 24.6006 10.146 24.5457 10.175L19.5266 13.1025C19.5015 13.1172 19.4731 13.1249 19.4442 13.1248Z" fill="white"/>
<path fill-rule="evenodd" clip-rule="evenodd" d="M13.8326 31.9658C13.7893 31.9653 13.747 31.9531 13.7099 31.9305C13.6347 31.8862 13.5885 31.8038 13.5889 31.7147V22.8229C13.589 22.7017 13.6524 22.59 13.7549 22.5303L19.4338 19.2095L19.6022 19.5109L13.9253 22.8296V31.5519L19.4348 28.3375L19.6005 28.6386L13.9525 31.9329C13.9159 31.9544 13.8746 31.9657 13.8326 31.9658Z" fill="white"/>
<path fill-rule="evenodd" clip-rule="evenodd" d="M12.5626 31.1406C12.4698 31.1406 12.3945 31.0632 12.3945 30.9676V21.9372C12.3945 21.8159 12.4579 21.704 12.5605 21.6443L18.0216 18.4501C18.1019 18.406 18.2018 18.4358 18.2468 18.5172C18.2917 18.5987 18.2655 18.7023 18.1876 18.7508L12.731 21.9425V30.9676C12.731 31.0136 12.7133 31.0576 12.6817 31.0901C12.6501 31.1225 12.6072 31.1407 12.5626 31.1406Z" fill="white"/>
<path fill-rule="evenodd" clip-rule="evenodd" d="M11.5323 30.249C11.4395 30.249 11.3643 30.1715 11.3643 30.076V20.9663C11.3644 20.845 11.4279 20.7331 11.5306 20.6734L16.6967 17.6094C16.7489 17.5762 16.8144 17.5748 16.8678 17.6059C16.9212 17.6369 16.9539 17.6954 16.9532 17.7584C16.9525 17.8215 16.9185 17.8792 16.8645 17.909L11.7004 20.9716V30.0749C11.7007 30.121 11.6831 30.1653 11.6515 30.1979C11.62 30.2306 11.5771 30.249 11.5323 30.249Z" fill="white"/>
<path fill-rule="evenodd" clip-rule="evenodd" d="M10.3985 29.2545C10.3057 29.2545 10.2305 29.1771 10.2305 29.0815V19.9719C10.2305 19.8505 10.294 19.7385 10.3968 19.6789L15.355 16.83C15.4074 16.7999 15.4714 16.8009 15.5229 16.8325C15.5744 16.8642 15.6055 16.9217 15.6047 16.9834C15.6038 17.0451 15.571 17.1017 15.5186 17.1318L10.5663 19.9775V29.0815C10.5664 29.1274 10.5487 29.1714 10.5173 29.2038C10.4858 29.2363 10.4431 29.2545 10.3985 29.2545Z" fill="white"/>
<path fill-rule="evenodd" clip-rule="evenodd" d="M9.22241 28.3475C9.17787 28.3475 9.13516 28.3292 9.10369 28.2968C9.07223 28.2643 9.0546 28.2203 9.05469 28.1745V19.0644C9.05515 18.9429 9.11926 18.831 9.22241 18.7719L13.9699 16.0096C14.0503 15.9662 14.1497 15.9963 14.1944 16.0776C14.239 16.159 14.2129 16.2622 14.1352 16.3107L9.3922 19.0701V28.1745C9.3922 28.2206 9.37426 28.2649 9.34237 28.2974C9.31048 28.3299 9.26728 28.3479 9.22241 28.3475Z" fill="white"/>
<path fill-rule="evenodd" clip-rule="evenodd" d="M25.1659 31.9446C25.1239 31.9444 25.0828 31.9332 25.0463 31.912L16.0255 26.5955C15.9735 26.5648 15.9412 26.5079 15.941 26.4462C15.9408 26.3845 15.9725 26.3273 16.0243 26.2962C16.0762 26.2651 16.1402 26.2648 16.1922 26.2955L25.0737 31.5313V22.8101L9.37015 13.6244V28.1528C9.37294 28.2164 9.34157 28.2765 9.28847 28.3091C9.23537 28.3418 9.16913 28.3418 9.11603 28.3091C9.06293 28.2765 9.03156 28.2164 9.03435 28.1528V13.4641C9.03429 13.3747 9.08035 13.292 9.15534 13.2468C9.23034 13.2017 9.32298 13.2009 9.39867 13.2448L25.2432 22.5101C25.3455 22.5699 25.4087 22.6816 25.4089 22.8027V31.6937C25.4094 31.7832 25.363 31.8659 25.2875 31.9102C25.2506 31.9324 25.2086 31.9442 25.1659 31.9446Z" fill="white"/>
<path fill-rule="evenodd" clip-rule="evenodd" d="M29.9645 28.1742H29.6287V13.6455L25.05 16.2676L24.8867 15.9655L29.6009 13.2659C29.6766 13.2223 29.7691 13.2233 29.8439 13.2685C29.9187 13.3137 29.9646 13.3963 29.9645 13.4856V28.1742Z" fill="white"/>
<path fill-rule="evenodd" clip-rule="evenodd" d="M26.3533 31.1607C26.2584 31.1607 26.1815 31.0815 26.1815 30.9838V21.7457L10.2304 12.5122C10.1767 12.4811 10.1433 12.4229 10.1426 12.3595C10.1419 12.2961 10.1741 12.2372 10.2271 12.2049C10.2801 12.1726 10.3458 12.1719 10.3995 12.203L26.3543 21.439C26.4602 21.4997 26.5259 21.6146 26.5262 21.7393V30.9831C26.5264 31.0303 26.5082 31.0756 26.4757 31.109C26.4433 31.1423 26.3992 31.1609 26.3533 31.1607Z" fill="white"/>
<path fill-rule="evenodd" clip-rule="evenodd" d="M27.5289 30.3828C27.434 30.3828 27.3571 30.3036 27.3571 30.2059V20.9682L11.4063 11.7347C11.3233 11.6867 11.2938 11.5784 11.3405 11.4929C11.3872 11.4074 11.4924 11.3771 11.5754 11.4252L27.5303 20.6615C27.6361 20.7221 27.7019 20.8368 27.7021 20.9615V30.2052C27.7023 30.2525 27.6841 30.2979 27.6516 30.3313C27.619 30.3646 27.5749 30.3832 27.5289 30.3828Z" fill="white"/>
<path fill-rule="evenodd" clip-rule="evenodd" d="M28.6631 29.3887C28.5681 29.3887 28.4912 29.3095 28.4912 29.2118V19.9741L12.5401 10.7406C12.4571 10.6925 12.4276 10.5843 12.4743 10.4988C12.521 10.4133 12.6262 10.383 12.7092 10.431L28.6644 19.6673C28.7703 19.7279 28.836 19.8427 28.8363 19.9673V29.2114C28.8364 29.2587 28.8181 29.304 28.7856 29.3373C28.753 29.3706 28.7089 29.3891 28.6631 29.3887Z" fill="white"/>
<path fill-rule="evenodd" clip-rule="evenodd" d="M29.7965 28.4827C29.7016 28.4827 29.6246 28.4035 29.6246 28.3058V19.0663L13.6739 9.83283C13.6202 9.80174 13.5866 9.74351 13.5859 9.68007C13.5852 9.61664 13.6175 9.55764 13.6705 9.5253C13.7235 9.49296 13.7893 9.49219 13.843 9.52328L29.7975 18.76C29.9034 18.8204 29.9692 18.9353 29.9693 19.06V28.3037C29.9699 28.3512 29.9519 28.3969 29.9194 28.4305C29.8869 28.4642 29.8426 28.483 29.7965 28.4827Z" fill="white"/>
</svg>
