<svg width="39" height="40" viewBox="0 0 39 40" fill="none" xmlns="http://www.w3.org/2000/svg">
<path opacity="0.2" d="M19.5 39.5C30.2696 39.5 39 30.7696 39 20C39 9.23045 30.2696 0.5 19.5 0.5C8.73045 0.5 0 9.23045 0 20C0 30.7696 8.73045 39.5 19.5 39.5Z" fill="#C87035"/>
<path fill-rule="evenodd" clip-rule="evenodd" d="M19.4873 31.9873C12.862 31.9831 7.5 26.6116 7.5 19.9788C7.5 13.3587 12.8789 7.99577 19.5127 8C26.1254 8.00424 31.5 13.3799 31.4916 19.9958C31.4789 26.5397 26.2183 31.9788 19.4873 31.9873ZM14.5986 25.4773L14.6259 25.4255C14.647 25.3852 14.665 25.3508 14.6831 25.3206C15.2196 24.3749 15.7571 23.4302 16.2946 22.4855L16.2951 22.4847C16.8327 21.5397 17.3704 20.5947 17.907 19.6487C18.5989 18.4335 19.2885 17.216 19.9775 15.9995L20.7254 14.6794C20.7634 14.6074 20.8056 14.582 20.8901 14.582C21.9845 14.5862 23.0831 14.5862 24.1775 14.5862H24.3338L23.5088 16.0418C22.2661 18.2344 21.0289 20.4173 19.7831 22.6116C19.838 22.6159 19.8676 22.6159 19.8972 22.6159H19.8972C22.6437 22.6159 25.3859 22.6159 28.1324 22.6201C28.2254 22.6201 28.2549 22.5862 28.2761 22.5058C28.6901 21.0159 28.7324 19.5132 28.3901 18.0064C27.9803 16.2074 27.0803 14.6878 25.7535 13.418C25.1577 12.8466 24.4859 12.381 23.7465 12.0042C21.9211 11.073 19.9986 10.7767 17.9831 11.1323C15.9761 11.4878 14.2859 12.436 12.9 13.9344C12.7789 14.0642 12.6653 14.2015 12.5516 14.3389L12.5516 14.3389C12.4948 14.4075 12.438 14.4762 12.3803 14.5439C12.3824 14.5503 12.3856 14.5556 12.3887 14.5608C12.3919 14.5661 12.3951 14.5714 12.3972 14.5778H20.2268L20.2024 14.6244C20.1723 14.6822 20.148 14.7287 20.1211 14.7725C19.9401 15.0934 19.7585 15.4138 19.577 15.7339L19.5767 15.7344C19.2795 16.2586 18.9825 16.7825 18.6887 17.3079C18.6338 17.4053 18.5746 17.4349 18.469 17.4349C16.0014 17.4307 13.538 17.4307 11.0704 17.4307H10.9225C9.67183 21.3587 11.438 26.2857 15.8662 28.2582C20.1549 30.1714 24.6507 28.4106 26.7592 25.4688C22.707 25.4773 18.6592 25.4773 14.5986 25.4773ZM31.1746 19.7376C31.2592 23.0773 29.907 25.8582 28.3859 27.5471L26.8141 25.9471C29.6958 22.3831 29.5775 17.418 26.7845 14.0614C27.0528 13.7905 27.3222 13.5196 27.5937 13.2465C27.861 12.9777 28.1303 12.7068 28.4028 12.4317C30.1648 14.5693 31.107 16.9862 31.1746 19.7376Z" fill="#C87035"/>
</svg>
