<svg width="39" height="40" viewBox="0 0 39 40" fill="none" xmlns="http://www.w3.org/2000/svg">
<path d="M19.5 39.5C30.2696 39.5 39 30.7696 39 20C39 9.23045 30.2696 0.5 19.5 0.5C8.73045 0.5 0 9.23045 0 20C0 30.7696 8.73045 39.5 19.5 39.5Z" fill="#0086B6"/>
<mask id="mask0_718_29119" style="mask-type:luminance" maskUnits="userSpaceOnUse" x="0" y="0" width="39" height="40">
<path d="M19.5 39.5C30.2696 39.5 39 30.7696 39 20C39 9.23045 30.2696 0.5 19.5 0.5C8.73045 0.5 0 9.23045 0 20C0 30.7696 8.73045 39.5 19.5 39.5Z" fill="white"/>
</mask>
<g mask="url(#mask0_718_29119)">
<path fill-rule="evenodd" clip-rule="evenodd" d="M11.1508 12.9175C13.5514 11.6374 16.5826 10.9982 20.2442 11C23.9046 11 26.9357 11.6392 29.3376 12.9175C29.7597 13.1424 30.008 13.5706 29.9782 14.0222L29.495 21.2983C29.2891 24.3867 27.5196 27.2008 24.7267 28.8816L20.941 31.1616C20.5169 31.4169 19.9713 31.4169 19.5472 31.1616L15.7616 28.8817C12.9687 27.2009 11.1993 24.3867 10.9934 21.2983L10.5102 14.0222C10.4804 13.5706 10.7287 13.1424 11.1508 12.9175Z" stroke="white" stroke-width="0.5"/>
<path d="M11.2549 12.9212L19.8617 27.38C19.9456 27.5208 20.1051 27.6079 20.2781 27.6075C20.4511 27.6071 20.6102 27.5192 20.6933 27.378L29.2336 12.8501" stroke="white" stroke-width="0.5"/>
<path d="M11.9189 24.8178L20.0814 11.2672C20.1321 11.1831 20.228 11.1312 20.3317 11.1318C20.4354 11.1325 20.5305 11.1855 20.58 11.2702L28.5219 24.8775" stroke="white" stroke-width="0.5"/>
<path d="M25.1245 20.54C25.6873 20.54 26.1436 20.0833 26.1436 19.52C26.1436 18.9567 25.6873 18.5 25.1245 18.5C24.5617 18.5 24.1055 18.9567 24.1055 19.52C24.1055 20.0833 24.5617 20.54 25.1245 20.54Z" fill="white"/>
<path d="M20.2495 28.79C20.8123 28.79 21.2686 28.3333 21.2686 27.77C21.2686 27.2067 20.8123 26.75 20.2495 26.75C19.6867 26.75 19.2305 27.2067 19.2305 27.77C19.2305 28.3333 19.6867 28.79 20.2495 28.79Z" fill="white"/>
<path d="M14.9995 20.54C15.5623 20.54 16.0186 20.0833 16.0186 19.52C16.0186 18.9567 15.5623 18.5 14.9995 18.5C14.4367 18.5 13.9805 18.9567 13.9805 19.52C13.9805 20.0833 14.4367 20.54 14.9995 20.54Z" fill="white"/>
<path d="M20.2493 28.0625V30.6875" stroke="white" stroke-width="0.5" stroke-linecap="square"/>
<path d="M11.8926 24.7812C12.594 24.9365 16.363 27.2175 20.6024 28.1847L28.6069 24.7812" stroke="white" stroke-width="0.5"/>
</g>
</svg>
