<svg width="24" height="24" viewBox="0 0 24 24" fill="none" xmlns="http://www.w3.org/2000/svg">
<path opacity="0.2" d="M12 24C18.6274 24 24 18.6274 24 12C24 5.37258 18.6274 0 12 0C5.37258 0 0 5.37258 0 12C0 18.6274 5.37258 24 12 24Z" fill="#00AEEF"/>
<path fill-rule="evenodd" clip-rule="evenodd" d="M11.3054 16.8276C8.94742 16.4822 7.13782 14.4495 7.13782 11.9933C7.13782 9.53703 8.94742 7.50429 11.3054 7.15913V4.61523C7.55129 4.97431 4.61536 8.14045 4.61536 11.9933C4.61536 15.8461 7.55129 19.012 11.3054 19.3713V16.8276ZM12.7677 7.16407C14.8697 7.48855 16.528 9.15398 16.8438 11.2612H19.3846C19.0424 7.75813 16.2639 4.97065 12.7677 4.61871V7.16407ZM12.7677 16.8223C14.8697 16.4982 16.528 14.8318 16.8438 12.7253L19.3846 12.7244C19.0424 16.2282 16.2639 19.0159 12.7677 19.3678V16.8223Z" fill="#00AEEF"/>
</svg>
