<svg width="20" height="20" viewBox="0 0 20 20" fill="none" xmlns="http://www.w3.org/2000/svg">
<path d="M14.9177 4.16526C15.0893 4.58028 15.4187 4.91017 15.8334 5.0824L17.2877 5.68482C17.7028 5.85674 18.0325 6.1865 18.2044 6.60155C18.3763 7.01661 18.3763 7.48296 18.2044 7.89801L17.6025 9.35134C17.4305 9.76658 17.4302 10.2334 17.603 10.6484L18.2039 12.1013C18.2891 12.3069 18.333 12.5273 18.3331 12.7498C18.3331 12.9723 18.2893 13.1927 18.2041 13.3983C18.119 13.6039 17.9941 13.7907 17.8368 13.948C17.6794 14.1054 17.4925 14.2301 17.2869 14.3152L15.8336 14.9172C15.4186 15.0888 15.0888 15.4182 14.9165 15.833L14.3141 17.2874C14.1422 17.7024 13.8125 18.0322 13.3974 18.2041C12.9824 18.376 12.5161 18.376 12.101 18.2041L10.6478 17.6021C10.2327 17.4306 9.76654 17.431 9.35175 17.6031L7.89743 18.2046C7.48262 18.3762 7.0167 18.376 6.60199 18.2042C6.18729 18.0324 5.85773 17.7031 5.6857 17.2885L5.08312 15.8337C4.91152 15.4186 4.58214 15.0888 4.16739 14.9165L2.71307 14.3141C2.29822 14.1423 1.96857 13.8127 1.79659 13.3979C1.62461 12.9831 1.62438 12.5169 1.79594 12.102L2.39791 10.6486C2.5694 10.2336 2.56905 9.76738 2.39693 9.35257L1.79583 7.89716C1.71061 7.69159 1.66672 7.47124 1.66669 7.2487C1.66665 7.02616 1.71046 6.8058 1.79562 6.6002C1.88078 6.3946 2.00562 6.2078 2.16299 6.05046C2.32037 5.89313 2.50721 5.76835 2.71282 5.68326L4.1661 5.08127C4.58075 4.90981 4.91042 4.58084 5.08277 4.16655L5.68517 2.71218C5.85709 2.29712 6.18683 1.96737 6.60187 1.79544C7.01691 1.62352 7.48324 1.62352 7.89828 1.79544L9.35156 2.39743C9.76661 2.56893 10.2328 2.56858 10.6476 2.39646L12.1025 1.79638C12.5175 1.62455 12.9837 1.62459 13.3987 1.79648C13.8136 1.96836 14.1433 2.29803 14.3153 2.71297L14.9179 4.16778L14.9177 4.16526Z" fill="#1E80FF"/>
<path d="M7.50002 9.99984L9.16669 11.6665L12.9167 7.9165M14.9177 4.16526C15.0893 4.58028 15.4187 4.91017 15.8334 5.0824L17.2877 5.68482C17.7028 5.85674 18.0325 6.1865 18.2044 6.60155C18.3763 7.01661 18.3763 7.48296 18.2044 7.89801L17.6025 9.35134C17.4305 9.76658 17.4302 10.2334 17.603 10.6484L18.2039 12.1013C18.2891 12.3069 18.333 12.5273 18.3331 12.7498C18.3331 12.9723 18.2893 13.1927 18.2041 13.3983C18.119 13.6039 17.9941 13.7907 17.8368 13.948C17.6794 14.1054 17.4925 14.2301 17.2869 14.3152L15.8336 14.9172C15.4186 15.0888 15.0888 15.4182 14.9165 15.833L14.3141 17.2874C14.1422 17.7024 13.8125 18.0322 13.3974 18.2041C12.9824 18.376 12.5161 18.376 12.101 18.2041L10.6478 17.6021C10.2327 17.4306 9.76654 17.431 9.35175 17.6031L7.89743 18.2046C7.48262 18.3762 7.0167 18.376 6.60199 18.2042C6.18729 18.0324 5.85773 17.7031 5.6857 17.2885L5.08312 15.8337C4.91152 15.4186 4.58214 15.0888 4.16739 14.9165L2.71307 14.3141C2.29822 14.1423 1.96857 13.8127 1.79659 13.3979C1.62461 12.9831 1.62438 12.5169 1.79594 12.102L2.39791 10.6486C2.5694 10.2336 2.56905 9.76738 2.39693 9.35257L1.79583 7.89716C1.71061 7.69159 1.66672 7.47124 1.66669 7.2487C1.66665 7.02616 1.71046 6.8058 1.79562 6.6002C1.88078 6.3946 2.00562 6.2078 2.16299 6.05046C2.32037 5.89313 2.50721 5.76835 2.71282 5.68326L4.1661 5.08127C4.58075 4.90981 4.91042 4.58084 5.08277 4.16655L5.68517 2.71218C5.85709 2.29712 6.18683 1.96737 6.60187 1.79544C7.01691 1.62352 7.48324 1.62352 7.89828 1.79544L9.35156 2.39743C9.76661 2.56893 10.2328 2.56858 10.6476 2.39646L12.1025 1.79638C12.5175 1.62455 12.9837 1.62459 13.3987 1.79648C13.8136 1.96836 14.1433 2.29803 14.3153 2.71297L14.9179 4.16778L14.9177 4.16526Z" stroke="white" stroke-width="1.5" stroke-linecap="round" stroke-linejoin="round"/>
</svg>
