<svg width="146" height="21" viewBox="0 0 146 21" fill="none" xmlns="http://www.w3.org/2000/svg">
<path d="M0 18.26H18V0.26H0V18.26ZM25.8972 17L21.2172 3.59H23.8812L27.5532 14.696H27.0312L30.7032 3.59H33.3672L28.7052 17H25.8972ZM38.4695 17.216C37.5095 17.216 36.6335 16.994 35.8415 16.55C35.0615 16.106 34.4375 15.5 33.9695 14.732C33.5135 13.964 33.2855 13.088 33.2855 12.104C33.2855 11.12 33.5135 10.244 33.9695 9.476C34.4375 8.708 35.0615 8.102 35.8415 7.658C36.6215 7.214 37.4975 6.992 38.4695 6.992C39.4295 6.992 40.2995 7.214 41.0795 7.658C41.8595 8.102 42.4775 8.708 42.9335 9.476C43.4015 10.232 43.6355 11.108 43.6355 12.104C43.6355 13.088 43.4015 13.964 42.9335 14.732C42.4655 15.5 41.8415 16.106 41.0615 16.55C40.2815 16.994 39.4175 17.216 38.4695 17.216ZM38.4695 15.056C38.9975 15.056 39.4595 14.93 39.8555 14.678C40.2635 14.426 40.5815 14.078 40.8095 13.634C41.0495 13.178 41.1695 12.668 41.1695 12.104C41.1695 11.528 41.0495 11.024 40.8095 10.592C40.5815 10.148 40.2635 9.8 39.8555 9.548C39.4595 9.284 38.9975 9.152 38.4695 9.152C37.9295 9.152 37.4555 9.284 37.0475 9.548C36.6395 9.8 36.3155 10.148 36.0755 10.592C35.8475 11.024 35.7335 11.528 35.7335 12.104C35.7335 12.668 35.8475 13.178 36.0755 13.634C36.3155 14.078 36.6395 14.426 37.0475 14.678C37.4555 14.93 37.9295 15.056 38.4695 15.056ZM49.6219 17.108C48.5179 17.108 47.6599 16.808 47.0479 16.208C46.4479 15.596 46.1479 14.738 46.1479 13.634V9.314H44.4559V7.208H44.6359C45.1159 7.208 45.4879 7.082 45.7519 6.83C46.0159 6.578 46.1479 6.212 46.1479 5.732V4.976H48.5059V7.208H50.7559V9.314H48.5059V13.508C48.5059 13.832 48.5599 14.108 48.6679 14.336C48.7879 14.564 48.9679 14.738 49.2079 14.858C49.4599 14.978 49.7779 15.038 50.1619 15.038C50.2459 15.038 50.3419 15.032 50.4499 15.02C50.5699 15.008 50.6839 14.996 50.7919 14.984V17C50.6239 17.024 50.4319 17.048 50.2159 17.072C49.9999 17.096 49.8019 17.108 49.6219 17.108ZM52.5035 17V7.208H54.8615V17H52.5035ZM52.5035 6.11V3.59H54.8615V6.11H52.5035ZM56.9486 17V7.208H59.1626V9.134L58.9826 8.792C59.2106 8.204 59.5826 7.76 60.0986 7.46C60.6266 7.148 61.2386 6.992 61.9346 6.992C62.6546 6.992 63.2906 7.148 63.8426 7.46C64.4066 7.772 64.8446 8.21 65.1566 8.774C65.4686 9.326 65.6246 9.968 65.6246 10.7V17H63.2666V11.258C63.2666 10.826 63.1826 10.454 63.0146 10.142C62.8466 9.83 62.6126 9.59 62.3126 9.422C62.0246 9.242 61.6826 9.152 61.2866 9.152C60.9026 9.152 60.5606 9.242 60.2606 9.422C59.9606 9.59 59.7266 9.83 59.5586 10.142C59.3906 10.454 59.3066 10.826 59.3066 11.258V17H56.9486ZM72.2805 20.96C71.5485 20.96 70.8705 20.84 70.2465 20.6C69.6225 20.36 69.0825 20.024 68.6265 19.592C68.1825 19.172 67.8585 18.674 67.6545 18.098L69.8505 17.27C69.9945 17.726 70.2765 18.092 70.6965 18.368C71.1285 18.656 71.6565 18.8 72.2805 18.8C72.7605 18.8 73.1805 18.71 73.5405 18.53C73.9126 18.35 74.2006 18.086 74.4045 17.738C74.6085 17.402 74.7105 16.994 74.7105 16.514V14.282L75.1605 14.822C74.8245 15.41 74.3745 15.854 73.8106 16.154C73.2465 16.454 72.6045 16.604 71.8845 16.604C70.9725 16.604 70.1565 16.394 69.4365 15.974C68.7165 15.554 68.1525 14.978 67.7445 14.246C67.3365 13.514 67.1325 12.692 67.1325 11.78C67.1325 10.856 67.3365 10.034 67.7445 9.314C68.1525 8.594 68.7105 8.03 69.4185 7.622C70.1265 7.202 70.9305 6.992 71.8305 6.992C72.5626 6.992 73.2046 7.148 73.7565 7.46C74.3205 7.76 74.7886 8.198 75.1605 8.774L74.8365 9.368V7.208H77.0685V16.514C77.0685 17.366 76.8586 18.128 76.4386 18.8C76.0306 19.472 75.4665 20 74.7465 20.384C74.0386 20.768 73.2166 20.96 72.2805 20.96ZM72.1725 14.426C72.6766 14.426 73.1146 14.318 73.4865 14.102C73.8706 13.874 74.1706 13.562 74.3866 13.166C74.6025 12.77 74.7105 12.314 74.7105 11.798C74.7105 11.294 74.5965 10.844 74.3685 10.448C74.1525 10.04 73.8525 9.722 73.4686 9.494C73.0965 9.266 72.6645 9.152 72.1725 9.152C71.6805 9.152 71.2365 9.266 70.8405 9.494C70.4445 9.722 70.1325 10.04 69.9045 10.448C69.6885 10.844 69.5805 11.294 69.5805 11.798C69.5805 12.302 69.6885 12.752 69.9045 13.148C70.1325 13.544 70.4385 13.856 70.8225 14.084C71.2185 14.312 71.6685 14.426 72.1725 14.426ZM86.754 17.108C85.65 17.108 84.792 16.808 84.18 16.208C83.58 15.596 83.28 14.738 83.28 13.634V9.314H81.588V7.208H81.768C82.248 7.208 82.62 7.082 82.884 6.83C83.148 6.578 83.28 6.212 83.28 5.732V4.976H85.638V7.208H87.888V9.314H85.638V13.508C85.638 13.832 85.692 14.108 85.8 14.336C85.92 14.564 86.1 14.738 86.34 14.858C86.592 14.978 86.91 15.038 87.294 15.038C87.378 15.038 87.474 15.032 87.582 15.02C87.702 15.008 87.816 14.996 87.924 14.984V17C87.756 17.024 87.564 17.048 87.348 17.072C87.132 17.096 86.934 17.108 86.754 17.108ZM93.1275 17.216C92.3715 17.216 91.7115 17.048 91.1475 16.712C90.5955 16.376 90.1695 15.908 89.8695 15.308C89.5815 14.708 89.4375 14.006 89.4375 13.202V7.208H91.7955V13.004C91.7955 13.412 91.8735 13.772 92.0295 14.084C92.1975 14.384 92.4315 14.624 92.7315 14.804C93.0435 14.972 93.3915 15.056 93.7755 15.056C94.1595 15.056 94.5015 14.972 94.8015 14.804C95.1015 14.624 95.3355 14.378 95.5035 14.066C95.6715 13.754 95.7555 13.382 95.7555 12.95V7.208H98.1135V17H95.8815V15.074L96.0795 15.416C95.8515 16.016 95.4735 16.466 94.9455 16.766C94.4295 17.066 93.8235 17.216 93.1275 17.216ZM100.215 17V7.208H102.429V9.386L102.249 9.062C102.477 8.33 102.831 7.82 103.311 7.532C103.803 7.244 104.391 7.1 105.075 7.1H105.651V9.188H104.805C104.133 9.188 103.593 9.398 103.185 9.818C102.777 10.226 102.573 10.802 102.573 11.546V17H100.215ZM106.858 17V7.208H109.072V9.134L108.892 8.792C109.12 8.204 109.492 7.76 110.008 7.46C110.536 7.148 111.148 6.992 111.844 6.992C112.564 6.992 113.2 7.148 113.752 7.46C114.316 7.772 114.754 8.21 115.066 8.774C115.378 9.326 115.534 9.968 115.534 10.7V17H113.176V11.258C113.176 10.826 113.092 10.454 112.924 10.142C112.756 9.83 112.522 9.59 112.222 9.422C111.934 9.242 111.592 9.152 111.196 9.152C110.812 9.152 110.47 9.242 110.17 9.422C109.87 9.59 109.636 9.83 109.468 10.142C109.3 10.454 109.216 10.826 109.216 11.258V17H106.858ZM122.226 17.216C121.266 17.216 120.39 16.994 119.598 16.55C118.818 16.106 118.194 15.5 117.726 14.732C117.27 13.964 117.042 13.088 117.042 12.104C117.042 11.12 117.27 10.244 117.726 9.476C118.194 8.708 118.818 8.102 119.598 7.658C120.378 7.214 121.254 6.992 122.226 6.992C123.186 6.992 124.056 7.214 124.836 7.658C125.616 8.102 126.234 8.708 126.69 9.476C127.158 10.232 127.392 11.108 127.392 12.104C127.392 13.088 127.158 13.964 126.69 14.732C126.222 15.5 125.598 16.106 124.818 16.55C124.038 16.994 123.174 17.216 122.226 17.216ZM122.226 15.056C122.754 15.056 123.216 14.93 123.612 14.678C124.02 14.426 124.338 14.078 124.566 13.634C124.806 13.178 124.926 12.668 124.926 12.104C124.926 11.528 124.806 11.024 124.566 10.592C124.338 10.148 124.02 9.8 123.612 9.548C123.216 9.284 122.754 9.152 122.226 9.152C121.686 9.152 121.212 9.284 120.804 9.548C120.396 9.8 120.072 10.148 119.832 10.592C119.604 11.024 119.49 11.528 119.49 12.104C119.49 12.668 119.604 13.178 119.832 13.634C120.072 14.078 120.396 14.426 120.804 14.678C121.212 14.93 121.686 15.056 122.226 15.056ZM132.582 17.216C131.826 17.216 131.166 17.048 130.602 16.712C130.05 16.376 129.624 15.908 129.324 15.308C129.036 14.708 128.892 14.006 128.892 13.202V7.208H131.25V13.004C131.25 13.412 131.328 13.772 131.484 14.084C131.652 14.384 131.886 14.624 132.186 14.804C132.498 14.972 132.846 15.056 133.23 15.056C133.614 15.056 133.956 14.972 134.256 14.804C134.556 14.624 134.79 14.378 134.958 14.066C135.126 13.754 135.21 13.382 135.21 12.95V7.208H137.568V17H135.336V15.074L135.534 15.416C135.306 16.016 134.928 16.466 134.4 16.766C133.884 17.066 133.278 17.216 132.582 17.216ZM144.134 17.108C143.03 17.108 142.172 16.808 141.56 16.208C140.96 15.596 140.66 14.738 140.66 13.634V9.314H138.968V7.208H139.148C139.628 7.208 140 7.082 140.264 6.83C140.528 6.578 140.66 6.212 140.66 5.732V4.976H143.018V7.208H145.268V9.314H143.018V13.508C143.018 13.832 143.072 14.108 143.18 14.336C143.3 14.564 143.48 14.738 143.72 14.858C143.972 14.978 144.29 15.038 144.674 15.038C144.758 15.038 144.854 15.032 144.962 15.02C145.082 15.008 145.196 14.996 145.304 14.984V17C145.136 17.024 144.944 17.048 144.728 17.072C144.512 17.096 144.314 17.108 144.134 17.108Z" fill="white"/>
</svg>
