<svg width="24" height="24" viewBox="0 0 24 24" fill="none" xmlns="http://www.w3.org/2000/svg">
<path opacity="0.2" d="M12 24C18.6274 24 24 18.6274 24 12C24 5.37258 18.6274 0 12 0C5.37258 0 0 5.37258 0 12C0 18.6274 5.37258 24 12 24Z" fill="#56F4F1"/>
<path fill-rule="evenodd" clip-rule="evenodd" d="M4.61536 7.39679C4.61536 7.40448 5.69823 9.30448 7.02166 11.6206C8.72844 14.6068 9.43178 15.8306 9.44018 15.8291C9.45087 15.8268 14.2604 7.40756 14.2604 7.39141C14.2604 7.38756 13.2516 7.38449 11.9923 7.38449C10.0481 7.38449 9.72426 7.38602 9.72426 7.39525C9.72426 7.40141 10.1916 8.21602 10.7621 9.20525C11.3333 10.1953 11.8014 11.0091 11.8029 11.0137C11.8045 11.0183 11.7174 11.176 11.6105 11.3637L11.4158 11.706L11.3952 11.6706C11.3837 11.6506 10.8232 10.6791 10.1496 9.51141L8.92394 7.38833L6.76965 7.38602C4.77038 7.38448 4.61536 7.38525 4.61536 7.39679Z" fill="#56F4F1"/>
<path fill-rule="evenodd" clip-rule="evenodd" d="M15.0523 7.39048C14.9729 7.5251 9.84339 16.5243 9.84034 16.5328C9.83576 16.5513 11.9839 20.3097 11.9977 20.3066C12.0068 20.3043 14.1673 16.5343 14.1741 16.5074C14.1764 16.4997 13.7579 15.7674 13.1921 14.7859C12.6499 13.8466 12.2054 13.0751 12.2046 13.0713C12.2016 13.062 12.5888 12.3851 12.5949 12.3889C12.5979 12.3905 13.0416 13.1574 13.5815 14.0928C14.3391 15.4059 14.5651 15.7928 14.575 15.7913C14.5842 15.7897 15.3876 14.3913 16.9806 11.6043C18.2956 9.30279 19.3731 7.41202 19.3754 7.40202L19.3785 7.3851H17.2173C16.0283 7.3851 15.0539 7.38741 15.0523 7.39048Z" fill="#0ED8D2"/>
</svg>
