<svg width="24" height="24" viewBox="0 0 24 24" fill="none" xmlns="http://www.w3.org/2000/svg">
<path opacity="0.2" d="M12 24C18.6274 24 24 18.6274 24 12C24 5.37258 18.6274 0 12 0C5.37258 0 0 5.37258 0 12C0 18.6274 5.37258 24 12 24Z" fill="#5FBCD3"/>
<path fill-rule="evenodd" clip-rule="evenodd" d="M15.4291 13.1963C16.8225 9.26939 16.4135 5.55244 14.5155 4.89427C12.6175 4.23611 9.94926 6.88596 8.55582 10.8129C7.16238 14.7398 7.5714 18.4568 9.46939 19.1149C11.3674 19.7731 14.0356 17.1232 15.4291 13.1963Z" fill="#5FBCD3"/>
<path fill-rule="evenodd" clip-rule="evenodd" d="M14.1794 14.8846C17.5454 12.3854 19.2948 9.07054 18.0868 7.48068C16.8789 5.89082 13.171 6.62803 9.80501 9.12727C6.43903 11.6265 4.6896 14.9414 5.89756 16.5312C7.10551 18.1211 10.8134 17.3839 14.1794 14.8846Z" fill="#2C89A0"/>
<path fill-rule="evenodd" clip-rule="evenodd" d="M12.6862 15.3944C16.875 14.9804 20.1085 13.0409 19.9084 11.0624C19.7083 9.08391 16.1504 7.8156 11.9616 8.22957C7.77282 8.64355 4.53932 10.583 4.7394 12.5615C4.93949 14.54 8.49738 15.8083 12.6862 15.3944Z" fill="#164450"/>
<path fill-rule="evenodd" clip-rule="evenodd" d="M12.8623 12.1496C12.9244 12.7508 13.3613 13.0513 14.1731 13.0511C14.653 13.0549 15.1267 12.944 15.5539 12.7279V13.6404C15.0703 13.8508 14.4845 13.956 13.7966 13.956C12.963 13.956 12.3463 13.7152 11.9466 13.2336H11.9277C11.4918 13.7152 10.9309 13.956 10.245 13.956C9.73042 13.9572 9.32824 13.8463 9.0385 13.6233C8.74875 13.4002 8.60388 13.091 8.60388 12.6956C8.60388 12.3017 8.7535 11.9862 9.05273 11.7492C9.35196 11.5122 9.78042 11.3747 10.3381 11.3367L11.5281 11.2557C11.5281 10.7409 11.243 10.4835 10.6727 10.4835C10.1343 10.4835 9.60119 10.6277 9.0735 10.9162V9.96181C9.61862 9.7368 10.2028 9.61864 10.7935 9.61392C11.5189 9.61392 12.0209 9.79452 12.2997 10.1557H12.3185C12.7273 9.79452 13.1977 9.5854 13.7889 9.48997C14.4189 9.38921 15.217 9.39415 15.5966 9.75269C15.8117 9.95784 15.9516 10.2279 15.9943 10.5203C16.0827 11.199 15.6185 11.8279 14.8435 11.9184L12.8623 12.1496ZM11.5281 12.1819V11.9998L10.8027 12.0522C10.2327 12.0928 9.9476 12.2695 9.94734 12.5823C9.94735 12.7171 10.0155 12.8431 10.1289 12.918C10.2497 13.0064 10.4077 13.0508 10.6031 13.0511C10.8698 13.0511 11.0905 12.971 11.2654 12.8108C11.4403 12.6506 11.5279 12.4409 11.5281 12.1819ZM12.9827 11.4781L12.9931 11.2964C13.008 11.0396 13.1075 10.8349 13.2916 10.6823C13.4757 10.5297 13.7008 10.4591 13.967 10.4705C14.1618 10.4776 14.3171 10.5283 14.4327 10.6226C14.5416 10.7024 14.6025 10.8311 14.5947 10.9648C14.577 11.2774 14.2821 11.4414 13.71 11.4568L12.9827 11.4781Z" fill="white"/>
</svg>
