<svg width="24" height="24" viewBox="0 0 24 24" fill="none" xmlns="http://www.w3.org/2000/svg">
<path opacity="0.2" d="M12 24C18.6274 24 24 18.6274 24 12C24 5.37258 18.6274 0 12 0C5.37258 0 0 5.37258 0 12C0 18.6274 5.37258 24 12 24Z" fill="#2B5EBA"/>
<path fill-rule="evenodd" clip-rule="evenodd" d="M16.4845 14.4477C18.0862 14.4477 19.3846 13.1296 19.3846 11.5036C19.3846 9.87767 18.0862 8.55957 16.4845 8.55957C14.8828 8.55957 13.5844 9.87767 13.5844 11.5036C13.5844 13.1296 14.8828 14.4477 16.4845 14.4477Z" fill="#2B5EBA"/>
<path fill-rule="evenodd" clip-rule="evenodd" d="M12.8197 7.4544C13.592 7.4544 14.2181 6.81883 14.2181 6.03481C14.2181 5.2508 13.592 4.61523 12.8197 4.61523C12.0474 4.61523 11.4213 5.2508 11.4213 6.03481C11.4213 6.81883 12.0474 7.4544 12.8197 7.4544Z" fill="#2B5EBA"/>
<path fill-rule="evenodd" clip-rule="evenodd" d="M12.8197 18.3987C13.592 18.3987 14.2181 17.7632 14.2181 16.9792C14.2181 16.1951 13.592 15.5596 12.8197 15.5596C12.0474 15.5596 11.4213 16.1951 11.4213 16.9792C11.4213 17.7632 12.0474 18.3987 12.8197 18.3987Z" fill="#2B5EBA"/>
<path fill-rule="evenodd" clip-rule="evenodd" d="M11.8415 10.706C11.7795 10.6431 11.7244 10.5661 11.6831 10.4892C11.6831 10.4892 11.0011 9.03467 8.66587 9.97174C8.54188 10.0347 8.41788 10.0906 8.29389 10.1326H8.287C7.5568 10.3703 6.73706 10.1955 6.15841 9.6081C5.33178 8.77593 5.33866 7.41929 6.15841 6.58712C6.97816 5.75495 8.30767 5.75495 9.1343 6.59411C9.40985 6.87384 9.59584 7.21649 9.68539 7.58013C9.68539 7.58013 10.2503 9.78992 12.1377 9.25845C12.1791 9.23747 12.2273 9.22349 12.2686 9.21649H12.2755C12.5511 9.15356 12.8542 9.23048 13.0746 9.45425C13.419 9.79691 13.419 10.3564 13.0746 10.706C12.7371 11.0557 12.186 11.0557 11.8415 10.706ZM12.4408 13.671C12.3513 13.671 12.2617 13.6571 12.1791 13.6291C12.1791 13.6291 10.6842 13.0976 9.6785 15.4403C9.63717 15.5731 9.58895 15.699 9.52695 15.8179V15.8249C9.18252 16.5102 8.47299 16.9787 7.66013 16.9787C6.49595 16.9787 5.55221 16.0207 5.55221 14.8389C5.55221 13.6571 6.49595 12.699 7.66013 12.699C8.05967 12.699 8.42477 12.8109 8.74165 12.9997C8.74165 12.9997 10.6774 14.1536 11.6418 12.4263C11.6555 12.3843 11.6762 12.3424 11.7038 12.3074V12.3004C11.8622 12.0557 12.1309 11.8948 12.4408 11.8948C12.923 11.8948 13.3157 12.2934 13.3157 12.7829C13.3157 13.2724 12.923 13.671 12.4408 13.671Z" fill="#2B5EBA"/>
</svg>
