<svg width="8" height="11" viewBox="0 0 8 11" fill="none" xmlns="http://www.w3.org/2000/svg">
<path fill-rule="evenodd" clip-rule="evenodd" d="M7.8999 4.60589C8.06169 3.52268 7.23694 2.94037 6.10921 2.55191L6.47503 1.08456L5.5816 0.861965L5.22545 2.29065C4.99089 2.23213 4.74973 2.17693 4.51009 2.12224L4.86878 0.684143L3.97611 0.461548L3.61004 1.92839C3.41568 1.88412 3.22489 1.84037 3.03969 1.79432L3.04071 1.78974L1.80893 1.48218L1.57132 2.43616C1.57132 2.43616 2.23402 2.58803 2.22003 2.59745C2.58178 2.68775 2.64741 2.92714 2.63622 3.11692L2.21952 4.78855C2.24445 4.79491 2.27676 4.80406 2.31237 4.81831L2.21825 4.79491L1.6339 7.13661C1.58964 7.24651 1.47745 7.41135 1.22458 7.34877C1.23349 7.36175 0.575368 7.18672 0.575368 7.18672L0.131958 8.20939L1.29454 8.49915C1.42579 8.53203 1.55545 8.56586 1.68368 8.59932L1.68378 8.59934C1.76678 8.621 1.84918 8.6425 1.93104 8.66348L1.5614 10.1479L2.45356 10.3705L2.81989 8.90211C3.06335 8.96825 3.29993 9.0293 3.53143 9.0868L3.16663 10.5483L4.05981 10.7709L4.42945 9.28955C5.95251 9.57778 7.09804 9.46152 7.57961 8.08423C7.96807 6.97507 7.56053 6.33526 6.75919 5.9178C7.34277 5.78272 7.78237 5.39884 7.89964 4.60589H7.8999ZM5.85889 7.46757C5.60532 8.48557 4.01155 8.06436 3.28298 7.87181L3.28292 7.8718C3.2177 7.85456 3.15942 7.83915 3.10965 7.82678L3.60012 5.86056C3.66097 5.87575 3.73531 5.89243 3.81952 5.91133C4.57326 6.08047 6.11795 6.42709 5.85914 7.46757H5.85889ZM3.97103 4.99893C4.57895 5.16112 5.90406 5.51464 6.13491 4.58986C6.37091 3.64379 5.08237 3.35864 4.45306 3.21938C4.38232 3.20372 4.3199 3.18991 4.26892 3.17721L3.82424 4.96052C3.86632 4.971 3.9157 4.98417 3.97103 4.99893Z" fill="#F7931A"/>
</svg>
