<svg width="24" height="24" viewBox="0 0 24 24" fill="none" xmlns="http://www.w3.org/2000/svg">
<path opacity="0.2" d="M12 24C18.6274 24 24 18.6274 24 12C24 5.37258 18.6274 0 12 0C5.37258 0 0 5.37258 0 12C0 18.6274 5.37258 24 12 24Z" fill="#4365E3"/>
<path fill-rule="evenodd" clip-rule="evenodd" d="M17.7922 9.90422C17.9267 9.90204 18.0619 9.90349 18.1964 9.90786C18.3083 10.6143 18.1993 11.3266 18.2113 12.0375C18.0768 12.0637 17.8949 12.151 17.7979 12.0018C17.4871 11.6359 17.1437 11.2997 16.8457 10.9214C16.8153 10.9148 16.7544 10.9003 16.7239 10.893C16.7225 11.2364 16.7211 11.5798 16.719 11.9233C16.6921 11.9633 16.639 12.0426 16.6121 12.0826C16.5151 12.0826 16.4188 12.0826 16.3226 12.0819C16.2978 12.0404 16.2475 11.9567 16.222 11.9153C16.2185 11.4263 16.2249 10.9381 16.2164 10.4499C16.2086 10.2607 16.2334 10.0723 16.29 9.89258C16.3976 9.89549 16.5052 9.89985 16.6128 9.90349C16.9745 10.3175 17.3384 10.73 17.7058 11.1382C17.7349 10.7271 17.6931 10.3088 17.7922 9.90422Z" fill="#FFFFFE"/>
<path fill-rule="evenodd" clip-rule="evenodd" d="M9.10745 8.50175C8.4951 8.48283 7.89407 8.85754 7.61727 9.41705C7.39569 9.79612 7.42047 10.2494 7.45162 10.6721C7.51745 10.838 7.58117 11.0046 7.64488 11.1712L7.64488 11.1713C7.53515 11.837 7.12385 12.4511 6.51858 12.7341C6.39357 12.8061 6.25332 12.8083 6.11326 12.8105C5.97174 12.8127 5.83041 12.8149 5.70517 12.8891C5.51474 12.9968 5.35687 13.1692 5.26555 13.3722C5.18697 13.7178 5.18626 14.15 5.48076 14.393C5.9041 14.8572 6.75644 14.66 6.9582 14.062C7.05011 13.8789 7.01516 13.6876 6.98028 13.4967C6.96331 13.4039 6.94636 13.3111 6.94404 13.2194C7.09695 12.6141 7.54153 12.0778 8.11778 11.861C8.34174 11.8165 8.56148 11.8861 8.77665 11.9543C8.83964 11.9743 8.90225 11.9941 8.96445 12.0109C9.0656 12.0077 9.17041 11.9893 9.27588 11.9707C9.52916 11.9262 9.78619 11.881 10.0051 12.0444C10.8638 12.5333 11.4634 13.4486 11.6022 14.4454C11.6135 15.0384 11.8323 15.6641 12.3384 15.9951C12.795 16.3007 13.4187 16.3451 13.9022 16.081C14.3673 15.8474 14.7071 15.3483 14.7354 14.8143C14.7475 14.5065 14.8098 14.1966 14.9591 13.9273C15.2083 13.4435 15.7272 13.1226 16.2582 13.1139C16.4025 13.1092 16.5405 13.1455 16.6787 13.1819C16.7731 13.2067 16.8675 13.2316 16.964 13.2434C17.6188 13.3242 18.2991 13.0717 18.7628 12.5922C19.1543 12.179 19.3872 11.6122 19.4028 11.0352C19.4169 10.0129 18.6757 9.02561 17.6939 8.81971C16.5881 8.51412 15.3584 9.31228 15.0965 10.4473C15.0212 10.7056 15.0244 10.9716 15.0277 11.2377C15.0302 11.4395 15.0327 11.6413 15.0009 11.8399C14.8388 12.574 14.1103 13.2034 13.36 13.0666C13.2629 13.0546 13.1648 13.0491 13.0666 13.0436C12.8741 13.0328 12.6815 13.0221 12.4963 12.9618C11.7862 12.7785 11.1668 12.2503 10.8645 11.5649C10.752 11.2964 10.6408 11.0025 10.7173 10.7071C10.7937 10.3578 10.8065 9.98384 10.6776 9.64551C10.4518 8.98268 9.79909 8.47847 9.10745 8.50175ZM17.7192 10.7244C17.7227 10.4491 17.7263 10.1738 17.7923 9.90453C17.9268 9.90235 18.062 9.90381 18.1965 9.90817C18.2687 10.3644 18.2488 10.8231 18.2289 11.2823C18.218 11.5341 18.2071 11.786 18.2114 12.0378C18.1864 12.0427 18.1599 12.0496 18.1326 12.0568C18.0124 12.0882 17.8769 12.1237 17.7979 12.0022C17.6685 11.8498 17.5335 11.7026 17.3985 11.5554C17.2091 11.349 17.0197 11.1425 16.8458 10.9217C16.8153 10.9152 16.7545 10.9006 16.7241 10.8933L16.724 10.8933C16.7226 11.2367 16.7212 11.5802 16.719 11.9236L16.6122 12.0829C16.5152 12.0829 16.4189 12.0829 16.3226 12.0822C16.2978 12.0407 16.2476 11.9571 16.2221 11.9156C16.2207 11.72 16.2208 11.5245 16.221 11.3291C16.2213 11.0361 16.2215 10.7431 16.2164 10.4502C16.2086 10.2611 16.2334 10.0726 16.29 9.89289C16.3618 9.89483 16.4335 9.89742 16.5053 9.90001C16.5411 9.9013 16.577 9.90259 16.6129 9.90381C16.9746 10.3178 17.3385 10.7303 17.7059 11.1385C17.7156 11.001 17.7174 10.8627 17.7192 10.7244Z" fill="#4365E3"/>
</svg>
