<svg width="24" height="24" viewBox="0 0 24 24" fill="none" xmlns="http://www.w3.org/2000/svg">
<path opacity="0.2" fill-rule="evenodd" clip-rule="evenodd" d="M12 24C18.6274 24 24 18.6274 24 12C24 5.37258 18.6274 0 12 0C5.37258 0 0 5.37258 0 12C0 18.6274 5.37258 24 12 24Z" fill="#F04086"/>
<path fill-rule="evenodd" clip-rule="evenodd" d="M15.0865 11.7858C15.8732 11.9011 16.4756 12.1896 16.8935 12.6511C17.3168 13.1264 17.5469 13.7442 17.5382 14.3819C17.5382 15.3462 17.2134 16.1325 16.5215 16.6646C15.8296 17.1966 14.8316 17.5388 13.5265 17.5388H8.39371V14.374H10.6574V15.7586H13.3296C13.9408 15.7586 14.4015 15.5925 14.7076 15.3403C15.0137 15.0881 15.1672 14.6865 15.1672 14.2158C15.1672 13.745 15.0117 13.4265 14.7076 13.1803C14.4034 12.934 13.9428 12.8905 13.3296 12.8905H5.53845V11.1103H8.39273V6.46191H13.3641C14.68 6.46191 15.6514 6.63301 16.2981 7.15422C16.9447 7.67543 17.2577 8.33807 17.2577 9.31323C17.2612 9.89974 17.0583 10.4686 16.6849 10.9194C16.3168 11.3733 15.7755 11.6572 15.0865 11.7689V11.7858ZM10.6574 11.1063H13.0452C14.2725 11.1063 14.8857 10.6247 14.8857 9.67224C14.8857 8.71983 14.2725 8.23818 13.0452 8.23818H10.6574V11.1063Z" fill="#F04086"/>
</svg>
