<svg width="16" height="10" viewBox="0 0 16 10" fill="none" xmlns="http://www.w3.org/2000/svg">
<path fill-rule="evenodd" clip-rule="evenodd" d="M15.6651 5.46596L13.5164 7.63305H11.4747C11.244 7.6338 11.0566 7.82202 11.0566 8.05448V9.28949C11.0543 9.42447 10.9449 9.5332 10.8103 9.5332H9.2515C9.11535 9.5332 9.00523 9.42222 9.00523 9.285V6.28481L10.2813 4.9988C10.378 4.90732 10.529 4.90882 10.6235 5.0033L11.1868 5.57094H12.6629L13.6153 4.61187V3.35286L12.6399 2.36529H11.3274L6.10942 7.62406H3.06852L0.901123 5.44122V2.49577L3.07075 0.309178H6.0365L7.3222 1.60494C7.41372 1.70092 7.41372 1.85314 7.3222 1.94912L6.22921 3.04691C6.14215 3.14815 5.98963 3.15939 5.88918 3.07166C5.88323 3.06641 5.87727 3.06041 5.87132 3.05516L5.18978 2.37054H3.91747L2.94649 3.34911V4.58938L3.91449 5.56644H5.26195L10.4807 0.307678H13.4873L15.6651 2.50252V5.46596Z" fill="#EC1550"/>
</svg>
