<svg width="24" height="24" viewBox="0 0 24 24" fill="none" xmlns="http://www.w3.org/2000/svg">
<path opacity="0.2" d="M12 24C18.6274 24 24 18.6274 24 12C24 5.37258 18.6274 0 12 0C5.37258 0 0 5.37258 0 12C0 18.6274 5.37258 24 12 24Z" fill="#008FBB"/>
<path fill-rule="evenodd" clip-rule="evenodd" d="M18.5477 10.0928H14.95C14.6143 10.0928 14.3504 10.3607 14.3504 10.7017C14.3504 11.0428 14.6143 11.3107 14.95 11.3107H18.5477C18.8834 11.3107 19.1473 11.0428 19.1473 10.7017C19.1473 10.3607 18.8834 10.0928 18.5477 10.0928ZM7.03524 12.346H5.59619C5.26041 12.346 4.99658 12.6139 4.99658 12.955C4.99658 13.296 5.26041 13.5639 5.59619 13.5639H7.03524C7.37102 13.5639 7.63485 13.296 7.63485 12.955C7.63485 12.6139 7.37102 12.346 7.03524 12.346Z" fill="#008FBB"/>
<path fill-rule="evenodd" clip-rule="evenodd" d="M12.3161 10.2255C12.2063 10.1393 12.071 10.0932 11.928 10.0932H10.417C10.0812 10.081 9.80542 10.3611 9.79343 10.7021C9.79343 11.0432 10.0812 11.3233 10.417 11.3111H11.6642L14.8061 13.3816L14.7857 13.347C14.8979 13.5254 15.1038 13.6252 15.3098 13.6252H16.8208C17.1566 13.6374 17.4324 13.3573 17.4444 13.0162C17.4444 12.6752 17.1566 12.3951 16.8208 12.4073H15.6935L12.3161 10.2255ZM17.9481 12.0541V10.69C17.9481 10.3611 18.2119 10.0932 18.5357 10.0932H18.5597C18.8834 10.0932 19.1473 10.3611 19.1473 10.69V12.0541C19.1473 12.3829 18.8834 12.6508 18.5597 12.6508H18.5357C18.1999 12.6508 17.9481 12.3829 17.9481 12.0541ZM7.395 10.215L10.6329 12.4073H11.7122C12.0479 12.4073 12.3118 12.6752 12.3118 13.0163C12.3118 13.3573 12.0479 13.6252 11.7122 13.6252H10.2731C10.0689 13.6252 9.88614 13.5271 9.77563 13.3515L9.79343 13.3817L6.7954 11.3111H5.59619C5.26041 11.3111 4.99658 11.0432 4.99658 10.7022C4.99658 10.3611 5.26041 10.0932 5.59619 10.0932H7.03524C7.16861 10.0932 7.30197 10.1393 7.40528 10.2254L7.395 10.215Z" fill="#008FBB"/>
</svg>
