<svg width="24" height="24" viewBox="0 0 24 24" fill="none" xmlns="http://www.w3.org/2000/svg">
<path opacity="0.1" d="M23.9349 12.0002C23.9349 18.5927 18.5907 23.937 11.9982 23.937C5.4057 23.937 0.0614624 18.5927 0.0614624 12.0002C0.0614624 5.40772 5.4057 0.0634766 11.9982 0.0634766C18.5906 0.0634766 23.9349 5.40772 23.9349 12.0002Z" fill="#BEBEBE"/>
<path opacity="0.1" d="M21.0134 12.0006C21.0134 16.9797 16.9772 21.016 11.9982 21.016C7.01918 21.016 2.98291 16.9797 2.98291 12.0006C2.98291 7.02162 7.01918 2.98535 11.9982 2.98535C16.9772 2.98535 21.0134 7.02162 21.0134 12.0006Z" fill="#BEBEBE"/>
<path fill-rule="evenodd" clip-rule="evenodd" d="M16.5347 4.23956C15.8796 4.70976 15.2244 5.17996 14.5693 5.62973C13.6873 6.25423 12.8053 6.89129 11.9331 7.52123L11.9331 7.52125C11.6918 7.69554 11.4512 7.86929 11.2116 8.04208C11.0683 8.1443 10.9659 8.16474 10.8431 8.02163C10.6588 7.82742 10.4694 7.64343 10.2801 7.45943C10.0907 7.27544 9.9013 7.09145 9.71704 6.89723C9.61467 6.79501 9.5123 6.77457 9.36898 6.8359C8.48862 7.28566 7.79252 7.91942 7.21926 8.71672C7.17831 8.75761 7.13736 8.81894 7.09642 8.88027C6.96088 8.70264 6.82885 8.53201 6.69888 8.36403C6.51471 8.12603 6.33467 7.89335 6.15463 7.65365C5.96577 7.40612 5.78371 7.1586 5.60453 6.915L5.60453 6.91499C5.47293 6.73608 5.34289 6.55928 5.21285 6.38614C5.15142 6.30028 5.11948 6.22913 5.13472 6.15504C4.75762 6.59737 4.42253 7.07661 4.13562 7.58658L4.13798 7.5856C4.14646 7.5821 4.1567 7.57786 4.16869 7.57187C4.84432 8.46117 5.52506 9.35047 6.20581 10.2398C6.88656 11.1291 7.56731 12.0184 8.24294 12.9077C8.23196 12.9241 8.22246 12.9391 8.21364 12.953C8.18955 12.9909 8.17054 13.0208 8.14057 13.0508L8.14053 13.0508C7.73107 13.4801 7.32161 13.9094 6.89168 14.3183C6.76884 14.4409 6.74836 14.5432 6.83026 14.6863C7.2602 15.504 7.85394 16.1787 8.59099 16.7306C8.65709 16.7702 8.71466 16.8098 8.78023 16.855C8.8162 16.8797 8.85458 16.9061 8.89809 16.9351C8.72909 17.0633 8.56456 17.1871 8.40301 17.3087L8.40297 17.3087C8.07526 17.5553 7.75987 17.7926 7.44447 18.039C7.27046 18.1719 7.09645 18.2997 6.92244 18.4274L6.92242 18.4274L6.9224 18.4274C6.74837 18.5552 6.57434 18.683 6.40031 18.8159C6.32786 18.8779 6.26588 18.9086 6.20113 18.9052C6.60125 19.2415 7.03103 19.5437 7.48597 19.8072C8.20472 19.2729 8.9173 18.7416 9.62737 18.2122L9.6281 18.2117C10.7239 17.3948 11.8137 16.5823 12.9109 15.7698C13.113 15.9614 13.31 16.1531 13.5045 16.3423C13.7043 16.5365 13.9013 16.7282 14.0984 16.9146C14.1749 16.9874 14.2327 17.0479 14.279 17.0964L14.279 17.0965L14.2791 17.0965C14.3642 17.1858 14.4107 17.2345 14.4646 17.2449C14.5294 17.2574 14.605 17.2143 14.7714 17.1196L14.7715 17.1195C14.8138 17.0954 14.862 17.068 14.9173 17.0373C15.6748 16.608 16.3095 16.0151 16.8009 15.2996C16.8111 15.2791 16.8265 15.2587 16.8418 15.2382L16.8418 15.2382L16.8419 15.2382L16.8419 15.2382C16.8572 15.2178 16.8726 15.1974 16.8828 15.1769L16.8774 15.1769C16.876 15.1768 16.8752 15.1766 16.8751 15.1763C16.875 15.1757 16.8775 15.1744 16.8828 15.1718C16.893 15.1667 16.9135 15.1565 16.9442 15.136C17.59 16.0025 18.2556 16.8888 18.9215 17.7754C19.2635 17.3658 19.5698 16.9255 19.8356 16.4591C19.4201 15.925 19.0421 15.4283 18.6641 14.9317L18.664 14.9316C18.3931 14.575 18.1221 14.2165 17.8507 13.8573C17.2195 13.0222 16.5852 12.1831 15.941 11.354C15.8182 11.1904 15.8182 11.0882 15.9615 10.9451C16.156 10.7509 16.3454 10.5566 16.5347 10.3624C16.7241 10.1682 16.9135 9.974 17.108 9.77979C17.2104 9.67757 17.2513 9.57535 17.1694 9.43225C16.719 8.57361 16.1048 7.85808 15.3063 7.28566C15.2843 7.27099 15.2622 7.25368 15.2392 7.23563C15.1982 7.20339 15.1541 7.16877 15.1016 7.14256C15.1354 7.10879 15.1692 7.08123 15.1996 7.05644C15.2244 7.03621 15.247 7.01783 15.2654 6.99945C15.6544 6.70301 16.0434 6.41169 16.4324 6.12036C16.8214 5.82904 17.2104 5.53772 17.5994 5.2413C17.7012 5.15657 17.7889 5.11398 17.8976 5.18338C17.4703 4.81328 17.0078 4.48268 16.5159 4.19727C16.5181 4.21635 16.5231 4.22795 16.5347 4.23956ZM18.221 5.47745C18.3688 5.61978 18.5109 5.76481 18.6474 5.91255C18.5102 5.76278 18.368 5.61766 18.221 5.47745Z" fill="#F2F2F2"/>
</svg>
