<svg width="24" height="24" viewBox="0 0 24 24" fill="none" xmlns="http://www.w3.org/2000/svg">
<path opacity="0.2" d="M12 24C18.6274 24 24 18.6274 24 12C24 5.37258 18.6274 0 12 0C5.37258 0 0 5.37258 0 12C0 18.6274 5.37258 24 12 24Z" fill="#2C5F93"/>
<path fill-rule="evenodd" clip-rule="evenodd" d="M12.4613 11.2715L6.46155 14.5566V16.3621L12.4613 13.077L18.4609 16.3621V14.5566L12.4613 11.2715Z" fill="#1269AB"/>
<path fill-rule="evenodd" clip-rule="evenodd" d="M8.21442 9.27932L12.4613 6.99288L16.708 9.27932L18.2935 8.67816L12.4613 5.53809L6.62903 8.67816L8.21442 9.27932Z" fill="#3FBCED"/>
<path fill-rule="evenodd" clip-rule="evenodd" d="M16.708 9.66172V14.7178L16.0772 15.0575L17.4169 15.7909L18.4609 15.2288V8.99711L16.708 9.66172ZM8.84524 15.0575L8.20929 14.715V9.65979L6.46155 8.99707V15.2288L7.50559 15.7909L8.84524 15.0575Z" fill="#1269AB"/>
<path fill-rule="evenodd" clip-rule="evenodd" d="M15.7033 15.2588L12.4612 17.0043L9.21917 15.2588L7.87952 15.9923L12.4612 18.4591L17.0429 15.9923L15.7033 15.2588Z" fill="#3FBCED"/>
</svg>
